<svg width="40" height="28" viewBox="0 0 40 28" fill="none" xmlns="http://www.w3.org/2000/svg">
<path d="M20.07 13.932C20.07 16.212 19.824 18.192 19.332 19.872C18.84 21.552 18.162 22.944 17.298 24.048C16.434 25.14 15.408 25.956 14.22 26.496C13.044 27.024 11.772 27.288 10.404 27.288C9.036 27.288 7.764 27.024 6.588 26.496C5.412 25.956 4.398 25.14 3.546 24.048C2.694 22.944 2.022 21.552 1.53 19.872C1.05 18.192 0.81 16.212 0.81 13.932C0.81 11.652 1.05 9.678 1.53 8.01C2.022 6.33 2.694 4.944 3.546 3.852C4.398 2.748 5.412 1.932 6.588 1.404C7.764 0.863998 9.036 0.593998 10.404 0.593998C11.772 0.593998 13.044 0.863998 14.22 1.404C15.408 1.932 16.434 2.748 17.298 3.852C18.162 4.944 18.84 6.33 19.332 8.01C19.824 9.678 20.07 11.652 20.07 13.932ZM14.94 13.932C14.94 12.084 14.808 10.56 14.544 9.36C14.292 8.16 13.956 7.212 13.536 6.516C13.116 5.82 12.63 5.334 12.078 5.058C11.538 4.782 10.98 4.644 10.404 4.644C9.828 4.644 9.27 4.782 8.73 5.058C8.202 5.334 7.728 5.82 7.308 6.516C6.9 7.212 6.57 8.16 6.318 9.36C6.066 10.56 5.94 12.084 5.94 13.932C5.94 15.792 6.066 17.322 6.318 18.522C6.57 19.722 6.9 20.67 7.308 21.366C7.728 22.062 8.202 22.548 8.73 22.824C9.27 23.1 9.828 23.238 10.404 23.238C10.98 23.238 11.538 23.1 12.078 22.824C12.63 22.548 13.116 22.062 13.536 21.366C13.956 20.67 14.292 19.722 14.544 18.522C14.808 17.322 14.94 15.792 14.94 13.932ZM39.6388 23.346V27H24.9868V23.346H30.1708V9.054C30.1708 8.742 30.1768 8.424 30.1888 8.1C30.2008 7.776 30.2188 7.446 30.2428 7.11L26.8228 9.954C26.5828 10.134 26.3488 10.248 26.1208 10.296C25.8928 10.344 25.6768 10.35 25.4728 10.314C25.2688 10.266 25.0888 10.194 24.9328 10.098C24.7768 9.99 24.6568 9.882 24.5728 9.774L23.0068 7.668L31.0348 0.864H35.1208V23.346H39.6388Z" fill="#1971F4"/>
</svg>
