<svg width="41" height="28" viewBox="0 0 41 28" fill="none" xmlns="http://www.w3.org/2000/svg">
<path d="M20.07 13.932C20.07 16.212 19.824 18.192 19.332 19.872C18.84 21.552 18.162 22.944 17.298 24.048C16.434 25.14 15.408 25.956 14.22 26.496C13.044 27.024 11.772 27.288 10.404 27.288C9.036 27.288 7.764 27.024 6.588 26.496C5.412 25.956 4.398 25.14 3.546 24.048C2.694 22.944 2.022 21.552 1.53 19.872C1.05 18.192 0.81 16.212 0.81 13.932C0.81 11.652 1.05 9.678 1.53 8.01C2.022 6.33 2.694 4.944 3.546 3.852C4.398 2.748 5.412 1.932 6.588 1.404C7.764 0.863998 9.036 0.593998 10.404 0.593998C11.772 0.593998 13.044 0.863998 14.22 1.404C15.408 1.932 16.434 2.748 17.298 3.852C18.162 4.944 18.84 6.33 19.332 8.01C19.824 9.678 20.07 11.652 20.07 13.932ZM14.94 13.932C14.94 12.084 14.808 10.56 14.544 9.36C14.292 8.16 13.956 7.212 13.536 6.516C13.116 5.82 12.63 5.334 12.078 5.058C11.538 4.782 10.98 4.644 10.404 4.644C9.828 4.644 9.27 4.782 8.73 5.058C8.202 5.334 7.728 5.82 7.308 6.516C6.9 7.212 6.57 8.16 6.318 9.36C6.066 10.56 5.94 12.084 5.94 13.932C5.94 15.792 6.066 17.322 6.318 18.522C6.57 19.722 6.9 20.67 7.308 21.366C7.728 22.062 8.202 22.548 8.73 22.824C9.27 23.1 9.828 23.238 10.404 23.238C10.98 23.238 11.538 23.1 12.078 22.824C12.63 22.548 13.116 22.062 13.536 21.366C13.956 20.67 14.292 19.722 14.544 18.522C14.808 17.322 14.94 15.792 14.94 13.932ZM38.5048 22.446C39.0448 22.446 39.4648 22.596 39.7648 22.896C40.0768 23.196 40.2328 23.592 40.2328 24.084V27H22.1248V25.38C22.1248 25.068 22.1908 24.732 22.3228 24.372C22.4548 24 22.6768 23.664 22.9888 23.364L30.7288 15.606C31.3888 14.946 31.9708 14.316 32.4748 13.716C32.9788 13.104 33.3988 12.51 33.7348 11.934C34.0708 11.346 34.3228 10.752 34.4908 10.152C34.6588 9.552 34.7428 8.922 34.7428 8.262C34.7428 7.098 34.4428 6.216 33.8428 5.616C33.2428 5.004 32.3968 4.698 31.3048 4.698C30.8248 4.698 30.3808 4.77 29.9728 4.914C29.5768 5.046 29.2168 5.232 28.8928 5.472C28.5808 5.712 28.3108 5.994 28.0828 6.318C27.8548 6.642 27.6868 6.996 27.5788 7.38C27.3628 7.98 27.0688 8.382 26.6968 8.586C26.3368 8.778 25.8208 8.82 25.1488 8.712L22.5208 8.244C22.7128 6.972 23.0728 5.856 23.6008 4.896C24.1288 3.936 24.7888 3.138 25.5808 2.502C26.3728 1.866 27.2788 1.392 28.2988 1.08C29.3188 0.755998 30.4168 0.593998 31.5928 0.593998C32.8288 0.593998 33.9508 0.779998 34.9588 1.152C35.9788 1.512 36.8488 2.022 37.5688 2.682C38.2888 3.33 38.8468 4.116 39.2428 5.04C39.6388 5.964 39.8368 6.984 39.8368 8.1C39.8368 9.06 39.6988 9.948 39.4228 10.764C39.1468 11.58 38.7688 12.36 38.2888 13.104C37.8208 13.836 37.2748 14.55 36.6508 15.246C36.0268 15.942 35.3668 16.644 34.6708 17.352L29.1268 23.022C29.7388 22.842 30.3448 22.704 30.9448 22.608C31.5448 22.5 32.1088 22.446 32.6368 22.446H38.5048Z" fill="#1971F4"/>
</svg>
