<svg width="41" height="28" viewBox="0 0 41 28" fill="none" xmlns="http://www.w3.org/2000/svg">
<path d="M20.07 13.932C20.07 16.212 19.824 18.192 19.332 19.872C18.84 21.552 18.162 22.944 17.298 24.048C16.434 25.14 15.408 25.956 14.22 26.496C13.044 27.024 11.772 27.288 10.404 27.288C9.036 27.288 7.764 27.024 6.588 26.496C5.412 25.956 4.398 25.14 3.546 24.048C2.694 22.944 2.022 21.552 1.53 19.872C1.05 18.192 0.81 16.212 0.81 13.932C0.81 11.652 1.05 9.678 1.53 8.01C2.022 6.33 2.694 4.944 3.546 3.852C4.398 2.748 5.412 1.932 6.588 1.404C7.764 0.863998 9.036 0.593998 10.404 0.593998C11.772 0.593998 13.044 0.863998 14.22 1.404C15.408 1.932 16.434 2.748 17.298 3.852C18.162 4.944 18.84 6.33 19.332 8.01C19.824 9.678 20.07 11.652 20.07 13.932ZM14.94 13.932C14.94 12.084 14.808 10.56 14.544 9.36C14.292 8.16 13.956 7.212 13.536 6.516C13.116 5.82 12.63 5.334 12.078 5.058C11.538 4.782 10.98 4.644 10.404 4.644C9.828 4.644 9.27 4.782 8.73 5.058C8.202 5.334 7.728 5.82 7.308 6.516C6.9 7.212 6.57 8.16 6.318 9.36C6.066 10.56 5.94 12.084 5.94 13.932C5.94 15.792 6.066 17.322 6.318 18.522C6.57 19.722 6.9 20.67 7.308 21.366C7.728 22.062 8.202 22.548 8.73 22.824C9.27 23.1 9.828 23.238 10.404 23.238C10.98 23.238 11.538 23.1 12.078 22.824C12.63 22.548 13.116 22.062 13.536 21.366C13.956 20.67 14.292 19.722 14.544 18.522C14.808 17.322 14.94 15.792 14.94 13.932ZM22.6648 8.244C22.8568 6.972 23.2168 5.856 23.7448 4.896C24.2728 3.936 24.9328 3.138 25.7248 2.502C26.5168 1.866 27.4168 1.392 28.4248 1.08C29.4448 0.755998 30.5428 0.593998 31.7188 0.593998C32.9668 0.593998 34.0828 0.773998 35.0668 1.134C36.0628 1.482 36.9028 1.962 37.5868 2.574C38.2708 3.186 38.7928 3.9 39.1528 4.716C39.5248 5.532 39.7108 6.408 39.7108 7.344C39.7108 8.172 39.6208 8.904 39.4408 9.54C39.2728 10.164 39.0148 10.71 38.6668 11.178C38.3308 11.646 37.9108 12.042 37.4068 12.366C36.9148 12.69 36.3448 12.96 35.6968 13.176C38.6968 14.16 40.1968 16.158 40.1968 19.17C40.1968 20.502 39.9508 21.678 39.4588 22.698C38.9668 23.706 38.3068 24.552 37.4788 25.236C36.6508 25.92 35.6848 26.436 34.5808 26.784C33.4888 27.12 32.3428 27.288 31.1428 27.288C29.8708 27.288 28.7488 27.144 27.7768 26.856C26.8048 26.568 25.9468 26.136 25.2028 25.56C24.4708 24.984 23.8408 24.264 23.3128 23.4C22.7848 22.524 22.3228 21.504 21.9268 20.34L24.1228 19.44C24.6988 19.2 25.2328 19.134 25.7248 19.242C26.2288 19.35 26.5888 19.614 26.8048 20.034C27.0448 20.49 27.2968 20.91 27.5608 21.294C27.8368 21.678 28.1428 22.014 28.4788 22.302C28.8148 22.578 29.1928 22.794 29.6128 22.95C30.0448 23.106 30.5368 23.184 31.0888 23.184C31.7848 23.184 32.3908 23.07 32.9068 22.842C33.4228 22.614 33.8548 22.32 34.2028 21.96C34.5508 21.588 34.8088 21.174 34.9768 20.718C35.1568 20.25 35.2468 19.788 35.2468 19.332C35.2468 18.732 35.1928 18.192 35.0848 17.712C34.9768 17.22 34.7248 16.806 34.3288 16.47C33.9448 16.122 33.3688 15.858 32.6008 15.678C31.8448 15.486 30.8128 15.39 29.5048 15.39V11.898C30.5968 11.898 31.4908 11.808 32.1868 11.628C32.8828 11.448 33.4288 11.196 33.8248 10.872C34.2208 10.548 34.4908 10.158 34.6348 9.702C34.7908 9.246 34.8688 8.748 34.8688 8.208C34.8688 7.068 34.5688 6.198 33.9688 5.598C33.3808 4.998 32.5408 4.698 31.4488 4.698C30.9688 4.698 30.5248 4.77 30.1168 4.914C29.7208 5.046 29.3608 5.232 29.0368 5.472C28.7248 5.712 28.4548 5.994 28.2268 6.318C27.9988 6.642 27.8308 6.996 27.7228 7.38C27.4948 7.98 27.2008 8.382 26.8408 8.586C26.4808 8.778 25.9588 8.82 25.2748 8.712L22.6648 8.244Z" fill="#1971F4"/>
</svg>
