<svg width="309" height="49" viewBox="0 0 309 49" fill="none" xmlns="http://www.w3.org/2000/svg">
<path d="M31.5099 4.20352L11.2367 32.7035C6.52715 39.3242 11.2605 48.5 19.3853 48.5H276.515C280.2 48.5 283.587 46.4729 285.328 43.2247L300.606 14.7247C304.178 8.06299 299.352 0 291.793 0H39.6585C36.4221 0 33.3858 1.56628 31.5099 4.20352Z" fill="#1971F4"/>
<path d="M100.396 25.424C100.828 25.424 101.207 25.368 101.532 25.256C101.863 25.144 102.137 24.9867 102.356 24.784C102.58 24.576 102.748 24.3307 102.86 24.048C102.972 23.76 103.028 23.4427 103.028 23.096C103.028 22.3973 102.809 21.848 102.372 21.448C101.94 21.048 101.281 20.848 100.396 20.848H98.62V25.424H100.396ZM100.396 19.512C101.132 19.512 101.772 19.5973 102.316 19.768C102.86 19.9387 103.311 20.1813 103.668 20.496C104.025 20.8053 104.289 21.1813 104.46 21.624C104.636 22.0667 104.724 22.5573 104.724 23.096C104.724 23.6347 104.631 24.1307 104.444 24.584C104.257 25.032 103.983 25.4187 103.62 25.744C103.257 26.0693 102.804 26.3227 102.26 26.504C101.721 26.68 101.1 26.768 100.396 26.768H98.62V31H96.916V19.512H100.396ZM110.402 27.392C109.767 27.4133 109.228 27.464 108.786 27.544C108.343 27.6187 107.983 27.72 107.706 27.848C107.428 27.976 107.228 28.128 107.106 28.304C106.983 28.4747 106.922 28.6667 106.922 28.88C106.922 29.0827 106.954 29.2587 107.018 29.408C107.087 29.552 107.178 29.672 107.289 29.768C107.407 29.8587 107.543 29.9253 107.698 29.968C107.852 30.0107 108.02 30.032 108.202 30.032C108.442 30.032 108.66 30.008 108.858 29.96C109.06 29.912 109.25 29.8453 109.426 29.76C109.602 29.6693 109.77 29.56 109.93 29.432C110.09 29.304 110.247 29.1573 110.402 28.992V27.392ZM105.826 24.008C106.279 23.576 106.77 23.2533 107.298 23.04C107.831 22.8267 108.415 22.72 109.049 22.72C109.514 22.72 109.924 22.7973 110.282 22.952C110.639 23.1013 110.94 23.312 111.186 23.584C111.431 23.856 111.615 24.1813 111.738 24.56C111.866 24.9387 111.93 25.3573 111.93 25.816V31H111.234C111.079 31 110.962 30.976 110.882 30.928C110.802 30.8747 110.738 30.7787 110.69 30.64L110.522 29.928C110.314 30.12 110.108 30.2907 109.906 30.44C109.703 30.584 109.49 30.7093 109.266 30.816C109.047 30.9173 108.812 30.9947 108.562 31.048C108.311 31.1013 108.034 31.128 107.73 31.128C107.41 31.128 107.108 31.0853 106.826 31C106.548 30.9093 106.306 30.7733 106.098 30.592C105.89 30.4107 105.724 30.184 105.602 29.912C105.484 29.64 105.426 29.3227 105.426 28.96C105.426 28.64 105.511 28.3333 105.682 28.04C105.858 27.7413 106.14 27.4747 106.53 27.24C106.924 27.0053 107.436 26.8133 108.066 26.664C108.7 26.5147 109.479 26.4293 110.402 26.408V25.816C110.402 25.2027 110.271 24.744 110.01 24.44C109.748 24.136 109.364 23.984 108.858 23.984C108.516 23.984 108.228 24.0267 107.994 24.112C107.764 24.1973 107.564 24.2933 107.394 24.4C107.228 24.5013 107.082 24.5947 106.954 24.68C106.831 24.7653 106.703 24.808 106.57 24.808C106.463 24.808 106.37 24.7787 106.29 24.72C106.215 24.6613 106.154 24.592 106.106 24.512L105.826 24.008ZM118.81 24.272C118.767 24.3413 118.722 24.392 118.674 24.424C118.626 24.4507 118.565 24.464 118.49 24.464C118.405 24.464 118.309 24.4347 118.202 24.376C118.101 24.3173 117.975 24.2533 117.826 24.184C117.682 24.1147 117.511 24.0507 117.314 23.992C117.117 23.9333 116.882 23.904 116.61 23.904C116.386 23.904 116.181 23.9333 115.994 23.992C115.813 24.0453 115.658 24.1227 115.53 24.224C115.402 24.32 115.303 24.4373 115.234 24.576C115.165 24.7093 115.13 24.8533 115.13 25.008C115.13 25.2107 115.189 25.3787 115.306 25.512C115.429 25.6453 115.586 25.76 115.778 25.856C115.975 25.952 116.197 26.04 116.442 26.12C116.693 26.1947 116.946 26.2747 117.202 26.36C117.463 26.4453 117.717 26.544 117.962 26.656C118.213 26.7627 118.434 26.8987 118.626 27.064C118.823 27.224 118.981 27.4187 119.098 27.648C119.221 27.8773 119.282 28.1573 119.282 28.488C119.282 28.8667 119.213 29.2187 119.074 29.544C118.941 29.864 118.741 30.1413 118.474 30.376C118.213 30.6107 117.887 30.7947 117.498 30.928C117.109 31.0613 116.663 31.128 116.162 31.128C115.602 31.128 115.085 31.0347 114.61 30.848C114.135 30.6613 113.738 30.424 113.418 30.136L113.786 29.536C113.829 29.4613 113.882 29.4053 113.946 29.368C114.01 29.3253 114.095 29.304 114.202 29.304C114.303 29.304 114.407 29.3413 114.514 29.416C114.621 29.4907 114.749 29.5733 114.898 29.664C115.047 29.7493 115.229 29.8293 115.442 29.904C115.655 29.9733 115.922 30.008 116.242 30.008C116.509 30.008 116.741 29.976 116.938 29.912C117.135 29.8427 117.298 29.752 117.426 29.64C117.559 29.5227 117.658 29.3893 117.722 29.24C117.786 29.0907 117.818 28.9333 117.818 28.768C117.818 28.5547 117.757 28.3787 117.634 28.24C117.517 28.096 117.359 27.9733 117.162 27.872C116.97 27.7707 116.749 27.6827 116.498 27.608C116.247 27.5333 115.991 27.4533 115.73 27.368C115.469 27.2827 115.213 27.184 114.962 27.072C114.711 26.96 114.487 26.8187 114.29 26.648C114.098 26.4773 113.941 26.2693 113.818 26.024C113.701 25.7787 113.642 25.48 113.642 25.128C113.642 24.8133 113.706 24.512 113.834 24.224C113.967 23.936 114.157 23.6827 114.402 23.464C114.653 23.2453 114.959 23.072 115.322 22.944C115.69 22.8107 116.109 22.744 116.578 22.744C117.117 22.744 117.602 22.8293 118.034 23C118.471 23.1707 118.845 23.4053 119.154 23.704L118.81 24.272ZM123.515 31.128C122.859 31.128 122.352 30.944 121.995 30.576C121.643 30.208 121.467 29.6827 121.467 29V24.136H120.523C120.432 24.136 120.355 24.1093 120.291 24.056C120.232 23.9973 120.203 23.912 120.203 23.8V23.168L121.523 22.984L121.875 20.56C121.896 20.4693 121.936 20.4 121.995 20.352C122.059 20.2987 122.139 20.272 122.235 20.272H123.027V23H125.331V24.136H123.027V28.896C123.027 29.216 123.104 29.456 123.259 29.616C123.419 29.7707 123.622 29.848 123.867 29.848C124.011 29.848 124.134 29.8293 124.235 29.792C124.342 29.7547 124.432 29.7147 124.507 29.672C124.582 29.624 124.646 29.5813 124.699 29.544C124.752 29.5067 124.8 29.488 124.843 29.488C124.896 29.488 124.936 29.5013 124.963 29.528C124.995 29.5493 125.027 29.5867 125.059 29.64L125.523 30.392C125.267 30.6267 124.963 30.808 124.611 30.936C124.259 31.064 123.894 31.128 123.515 31.128ZM134.615 25.424C135.047 25.424 135.425 25.368 135.751 25.256C136.081 25.144 136.356 24.9867 136.575 24.784C136.799 24.576 136.967 24.3307 137.079 24.048C137.191 23.76 137.247 23.4427 137.247 23.096C137.247 22.3973 137.028 21.848 136.591 21.448C136.159 21.048 135.5 20.848 134.615 20.848H132.839V25.424H134.615ZM134.615 19.512C135.351 19.512 135.991 19.5973 136.535 19.768C137.079 19.9387 137.529 20.1813 137.887 20.496C138.244 20.8053 138.508 21.1813 138.679 21.624C138.855 22.0667 138.943 22.5573 138.943 23.096C138.943 23.6347 138.849 24.1307 138.663 24.584C138.476 25.032 138.201 25.4187 137.839 25.744C137.476 26.0693 137.023 26.3227 136.479 26.504C135.94 26.68 135.319 26.768 134.615 26.768H132.839V31H131.135V19.512H134.615ZM141.834 24.432C142.095 23.8987 142.41 23.48 142.778 23.176C143.146 22.872 143.588 22.72 144.106 22.72C144.282 22.72 144.447 22.7413 144.602 22.784C144.762 22.8213 144.9 22.88 145.018 22.96L144.914 24.136C144.876 24.28 144.788 24.352 144.65 24.352C144.575 24.352 144.463 24.3387 144.314 24.312C144.164 24.28 144.004 24.264 143.834 24.264C143.583 24.264 143.362 24.3013 143.17 24.376C142.978 24.4453 142.804 24.552 142.65 24.696C142.5 24.8347 142.367 25.008 142.25 25.216C142.132 25.4187 142.023 25.6507 141.922 25.912V31H140.362V22.872H141.258C141.428 22.872 141.543 22.904 141.602 22.968C141.666 23.0267 141.711 23.1333 141.738 23.288L141.834 24.432ZM149.388 22.744C149.985 22.744 150.524 22.8427 151.004 23.04C151.489 23.232 151.9 23.512 152.236 23.88C152.577 24.2427 152.839 24.6827 153.02 25.2C153.201 25.712 153.292 26.288 153.292 26.928C153.292 27.568 153.201 28.1467 153.02 28.664C152.839 29.1813 152.577 29.6213 152.236 29.984C151.9 30.3467 151.489 30.6267 151.004 30.824C150.524 31.016 149.985 31.112 149.388 31.112C148.785 31.112 148.241 31.016 147.756 30.824C147.276 30.6267 146.865 30.3467 146.524 29.984C146.183 29.6213 145.919 29.1813 145.732 28.664C145.551 28.1467 145.46 27.568 145.46 26.928C145.46 26.288 145.551 25.712 145.732 25.2C145.919 24.6827 146.183 24.2427 146.524 23.88C146.865 23.512 147.276 23.232 147.756 23.04C148.241 22.8427 148.785 22.744 149.388 22.744ZM149.388 29.896C150.156 29.896 150.729 29.6373 151.108 29.12C151.487 28.6027 151.676 27.8747 151.676 26.936C151.676 25.9973 151.487 25.2693 151.108 24.752C150.729 24.2293 150.156 23.968 149.388 23.968C148.609 23.968 148.028 24.2293 147.644 24.752C147.265 25.2693 147.076 25.9973 147.076 26.936C147.076 27.8747 147.265 28.6027 147.644 29.12C148.028 29.6373 148.609 29.896 149.388 29.896ZM156.666 22.872V31.512C156.666 31.848 156.62 32.16 156.53 32.448C156.444 32.7413 156.306 32.9947 156.114 33.208C155.927 33.4267 155.682 33.5973 155.378 33.72C155.079 33.8427 154.716 33.904 154.29 33.904C154.114 33.904 153.954 33.8907 153.809 33.864C153.66 33.8373 153.511 33.8 153.361 33.752L153.425 32.904C153.447 32.8027 153.495 32.7467 153.569 32.736C153.639 32.7253 153.775 32.72 153.978 32.72C154.388 32.72 154.679 32.6267 154.85 32.44C155.02 32.2533 155.106 31.944 155.106 31.512V22.872H156.666ZM156.962 20.36C156.962 20.504 156.932 20.6427 156.874 20.776C156.815 20.904 156.735 21.0187 156.634 21.12C156.532 21.216 156.415 21.2933 156.282 21.352C156.154 21.4053 156.015 21.432 155.866 21.432C155.722 21.432 155.586 21.4053 155.458 21.352C155.33 21.2933 155.215 21.216 155.113 21.12C155.018 21.0187 154.94 20.904 154.882 20.776C154.828 20.6427 154.802 20.504 154.802 20.36C154.802 20.2107 154.828 20.072 154.882 19.944C154.94 19.8107 155.018 19.696 155.113 19.6C155.215 19.4987 155.33 19.4213 155.458 19.368C155.586 19.3093 155.722 19.28 155.866 19.28C156.015 19.28 156.154 19.3093 156.282 19.368C156.415 19.4213 156.532 19.4987 156.634 19.6C156.735 19.696 156.815 19.8107 156.874 19.944C156.932 20.072 156.962 20.2107 156.962 20.36ZM164.308 26.032C164.308 25.7227 164.263 25.4373 164.172 25.176C164.087 24.9147 163.959 24.688 163.788 24.496C163.617 24.304 163.409 24.1547 163.164 24.048C162.919 23.9413 162.636 23.888 162.316 23.888C161.66 23.888 161.143 24.0773 160.764 24.456C160.391 24.8347 160.153 25.36 160.052 26.032H164.308ZM165.596 29.84C165.404 30.064 165.183 30.2587 164.932 30.424C164.681 30.584 164.415 30.7147 164.132 30.816C163.849 30.9173 163.556 30.992 163.252 31.04C162.953 31.088 162.657 31.112 162.364 31.112C161.804 31.112 161.284 31.0187 160.804 30.832C160.329 30.64 159.916 30.3627 159.564 30C159.217 29.632 158.945 29.1787 158.748 28.64C158.556 28.096 158.46 27.472 158.46 26.768C158.46 26.2027 158.548 25.6773 158.724 25.192C158.9 24.7013 159.151 24.2747 159.476 23.912C159.807 23.5493 160.209 23.264 160.684 23.056C161.159 22.848 161.692 22.744 162.284 22.744C162.78 22.744 163.236 22.8267 163.652 22.992C164.073 23.152 164.436 23.3867 164.74 23.696C165.044 24.0053 165.281 24.3867 165.452 24.84C165.628 25.2933 165.716 25.8107 165.716 26.392C165.716 26.632 165.689 26.7947 165.636 26.88C165.583 26.96 165.484 27 165.34 27H160.012C160.028 27.4853 160.097 27.9093 160.22 28.272C160.343 28.6293 160.511 28.928 160.724 29.168C160.943 29.408 161.201 29.5867 161.5 29.704C161.799 29.8213 162.132 29.88 162.5 29.88C162.847 29.88 163.145 29.84 163.396 29.76C163.652 29.68 163.871 29.5947 164.052 29.504C164.239 29.408 164.393 29.32 164.516 29.24C164.644 29.16 164.756 29.12 164.852 29.12C164.98 29.12 165.079 29.168 165.148 29.264L165.596 29.84ZM173.089 24.392C173.041 24.4507 172.993 24.4987 172.945 24.536C172.902 24.568 172.838 24.584 172.753 24.584C172.668 24.584 172.577 24.552 172.481 24.488C172.39 24.4187 172.273 24.3467 172.129 24.272C171.99 24.192 171.82 24.12 171.617 24.056C171.42 23.9867 171.174 23.952 170.881 23.952C170.497 23.952 170.158 24.0213 169.865 24.16C169.572 24.2987 169.326 24.496 169.129 24.752C168.937 25.008 168.79 25.32 168.689 25.688C168.588 26.056 168.537 26.4693 168.537 26.928C168.537 27.4027 168.59 27.8267 168.697 28.2C168.804 28.568 168.956 28.88 169.153 29.136C169.35 29.3867 169.59 29.5787 169.873 29.712C170.156 29.84 170.47 29.904 170.817 29.904C171.153 29.904 171.43 29.864 171.649 29.784C171.868 29.6987 172.049 29.608 172.193 29.512C172.337 29.416 172.457 29.328 172.553 29.248C172.649 29.1627 172.748 29.12 172.849 29.12C172.977 29.12 173.076 29.168 173.145 29.264L173.593 29.84C173.406 30.0693 173.196 30.264 172.961 30.424C172.732 30.584 172.486 30.7147 172.225 30.816C171.964 30.9173 171.689 30.992 171.401 31.04C171.118 31.088 170.83 31.112 170.537 31.112C170.03 31.112 169.556 31.0187 169.113 30.832C168.676 30.6453 168.294 30.3733 167.969 30.016C167.649 29.6587 167.396 29.2213 167.209 28.704C167.022 28.1813 166.929 27.5893 166.929 26.928C166.929 26.3253 167.012 25.768 167.177 25.256C167.348 24.744 167.596 24.304 167.921 23.936C168.252 23.5627 168.657 23.272 169.137 23.064C169.617 22.8507 170.166 22.744 170.785 22.744C171.366 22.744 171.878 22.8373 172.321 23.024C172.764 23.2107 173.158 23.4747 173.505 23.816L173.089 24.392ZM177.593 31.128C176.937 31.128 176.43 30.944 176.073 30.576C175.721 30.208 175.545 29.6827 175.545 29V24.136H174.601C174.51 24.136 174.433 24.1093 174.369 24.056C174.31 23.9973 174.281 23.912 174.281 23.8V23.168L175.601 22.984L175.953 20.56C175.974 20.4693 176.014 20.4 176.073 20.352C176.137 20.2987 176.217 20.272 176.313 20.272H177.105V23H179.409V24.136H177.105V28.896C177.105 29.216 177.182 29.456 177.337 29.616C177.497 29.7707 177.7 29.848 177.945 29.848C178.089 29.848 178.212 29.8293 178.313 29.792C178.42 29.7547 178.51 29.7147 178.585 29.672C178.66 29.624 178.724 29.5813 178.777 29.544C178.83 29.5067 178.878 29.488 178.921 29.488C178.974 29.488 179.014 29.5013 179.041 29.528C179.073 29.5493 179.105 29.5867 179.137 29.64L179.601 30.392C179.345 30.6267 179.041 30.808 178.689 30.936C178.337 31.064 177.972 31.128 177.593 31.128ZM185.638 24.272C185.595 24.3413 185.55 24.392 185.502 24.424C185.454 24.4507 185.393 24.464 185.318 24.464C185.233 24.464 185.137 24.4347 185.03 24.376C184.929 24.3173 184.803 24.2533 184.654 24.184C184.51 24.1147 184.339 24.0507 184.142 23.992C183.945 23.9333 183.71 23.904 183.438 23.904C183.214 23.904 183.009 23.9333 182.822 23.992C182.641 24.0453 182.486 24.1227 182.358 24.224C182.23 24.32 182.131 24.4373 182.062 24.576C181.993 24.7093 181.958 24.8533 181.958 25.008C181.958 25.2107 182.017 25.3787 182.134 25.512C182.257 25.6453 182.414 25.76 182.606 25.856C182.803 25.952 183.025 26.04 183.27 26.12C183.521 26.1947 183.774 26.2747 184.03 26.36C184.291 26.4453 184.545 26.544 184.79 26.656C185.041 26.7627 185.262 26.8987 185.454 27.064C185.651 27.224 185.809 27.4187 185.926 27.648C186.049 27.8773 186.11 28.1573 186.11 28.488C186.11 28.8667 186.041 29.2187 185.902 29.544C185.769 29.864 185.569 30.1413 185.302 30.376C185.041 30.6107 184.715 30.7947 184.326 30.928C183.937 31.0613 183.491 31.128 182.99 31.128C182.43 31.128 181.913 31.0347 181.438 30.848C180.963 30.6613 180.566 30.424 180.246 30.136L180.614 29.536C180.657 29.4613 180.71 29.4053 180.774 29.368C180.838 29.3253 180.923 29.304 181.03 29.304C181.131 29.304 181.235 29.3413 181.342 29.416C181.449 29.4907 181.577 29.5733 181.726 29.664C181.875 29.7493 182.057 29.8293 182.27 29.904C182.483 29.9733 182.75 30.008 183.07 30.008C183.337 30.008 183.569 29.976 183.766 29.912C183.963 29.8427 184.126 29.752 184.254 29.64C184.387 29.5227 184.486 29.3893 184.55 29.24C184.614 29.0907 184.646 28.9333 184.646 28.768C184.646 28.5547 184.585 28.3787 184.462 28.24C184.345 28.096 184.187 27.9733 183.99 27.872C183.798 27.7707 183.577 27.6827 183.326 27.608C183.075 27.5333 182.819 27.4533 182.558 27.368C182.297 27.2827 182.041 27.184 181.79 27.072C181.539 26.96 181.315 26.8187 181.118 26.648C180.926 26.4773 180.769 26.2693 180.646 26.024C180.529 25.7787 180.47 25.48 180.47 25.128C180.47 24.8133 180.534 24.512 180.662 24.224C180.795 23.936 180.985 23.6827 181.23 23.464C181.481 23.2453 181.787 23.072 182.15 22.944C182.518 22.8107 182.937 22.744 183.406 22.744C183.945 22.744 184.43 22.8293 184.862 23C185.299 23.1707 185.673 23.4053 185.982 23.704L185.638 24.272Z" fill="white"/>
</svg>
