<svg width="150" height="150" viewBox="0 0 150 150" fill="none" xmlns="http://www.w3.org/2000/svg">
<g clip-path="url(#clip0_309_526)">
<path opacity="0.1" d="M135.61 146.122C135.61 147.536 132.613 148.861 127.384 150H28.4756C24.075 150.015 19.7503 148.136 15.9414 144.553L15.8828 144.499C17.3856 143.608 20.0982 142.778 23.7902 142.029L23.9558 141.996C25.6114 141.666 27.4618 141.354 29.4842 141.058C29.5352 141.058 29.5874 141.045 29.6383 141.035C31.243 140.803 32.9499 140.586 34.7592 140.383C34.8165 140.383 34.8726 140.366 34.9299 140.362C35.6278 140.28 36.3401 140.203 37.0669 140.13L37.347 140.101C42.6386 139.567 48.6535 139.14 55.1766 138.859H55.1842C56.0978 138.817 57.0211 138.781 57.9542 138.749C58.9917 138.709 60.0419 138.674 61.1049 138.643C61.9162 138.614 62.7376 138.594 63.5616 138.573H63.5807C67.2981 138.482 71.1391 138.436 75.0667 138.436C84.7787 138.436 93.9584 138.724 102.093 139.242H102.115C103.366 139.32 104.594 139.407 105.791 139.496L106.81 139.575C108.161 139.68 109.477 139.793 110.758 139.913C125.824 141.306 135.61 143.569 135.61 146.122Z" fill="#6C63FF"/>
<g opacity="0.2">
<path d="M86.6356 137.486C86.6315 137.709 86.6158 137.932 86.5885 138.151C85.7021 137.922 84.8106 137.714 83.9141 137.53C83.9141 137.472 83.9141 137.412 83.9141 137.351C83.9224 136.731 84.0323 136.125 84.2324 135.596C84.4948 134.921 84.8934 134.498 85.3328 134.521C85.7722 134.544 86.1529 135.006 86.3885 135.703C86.5667 136.251 86.652 136.867 86.6356 137.486Z" fill="#1971F4"/>
<path d="M86.7081 133.948C86.7392 132.347 86.1547 131.017 85.4025 130.979C84.6502 130.94 84.0152 132.207 83.9841 133.808C83.953 135.409 84.5375 136.739 85.2897 136.777C86.042 136.816 86.677 135.549 86.7081 133.948Z" fill="#1971F4"/>
<path d="M86.7784 130.403C86.8095 128.802 86.225 127.473 85.4728 127.434C84.7206 127.395 84.0855 128.662 84.0544 130.263C84.0233 131.864 84.6078 133.194 85.3601 133.233C86.1123 133.271 86.7473 132.004 86.7784 130.403Z" fill="#1971F4"/>
<path d="M86.8468 126.858C86.8779 125.257 86.2933 123.928 85.5411 123.889C84.7889 123.851 84.1539 125.117 84.1228 126.718C84.0916 128.32 84.6762 129.649 85.4284 129.688C86.1806 129.726 86.8156 128.46 86.8468 126.858Z" fill="#1971F4"/>
<path d="M86.9151 123.314C86.9463 121.712 86.3617 120.383 85.6095 120.344C84.8573 120.306 84.2222 121.572 84.1911 123.174C84.16 124.775 84.7446 126.104 85.4968 126.143C86.249 126.182 86.884 124.915 86.9151 123.314Z" fill="#1971F4"/>
<path d="M80.9175 98.7184C80.7382 98.3236 80.5765 97.9084 80.4336 97.4761L84.0326 96.7038L80.1585 96.5527C79.8128 95.2195 79.638 93.7856 79.6448 92.3388C79.6516 90.892 79.8398 89.4627 80.198 88.1382L85.3074 92.7865L80.6272 86.8152C81.0993 85.5737 81.7238 84.5038 82.4617 83.6723C83.1996 82.8409 84.0351 82.2657 84.9158 81.9827C85.7966 81.6998 86.7038 81.7151 87.5808 82.0277C88.4577 82.3404 89.2856 82.9436 90.0128 83.7998C90.7399 84.656 91.3506 85.7468 91.8068 87.0039C92.263 88.2611 92.5548 89.6577 92.6641 91.1065C92.7734 92.5552 92.6977 94.0251 92.4419 95.4242C92.186 96.8233 91.7555 98.1216 91.1772 99.2381C91.4561 99.8521 91.6931 100.514 91.884 101.211L87.1604 104.897L92.1693 102.447C92.4847 104.139 92.5355 105.933 92.3172 107.665C92.0988 109.397 91.6181 111.013 90.9187 112.367C91.6459 113.971 92.0807 115.875 92.1735 117.862C92.2663 119.849 92.0133 121.839 91.4434 123.603C90.8736 125.367 90.0098 126.835 88.9509 127.839C87.8921 128.842 86.6808 129.341 85.4558 129.278C84.2307 129.216 83.0412 128.594 82.0233 127.484C81.0055 126.373 80.2003 124.82 79.6999 123.001C79.1995 121.182 79.0241 119.171 79.1937 117.197C79.3633 115.224 79.8711 113.367 80.659 111.841C79.7902 109.924 79.343 107.588 79.3892 105.208C79.4354 102.828 79.9723 100.542 80.9137 98.7184H80.9175Z" fill="#6C63FF"/>
<path opacity="0.1" d="M92.4469 105.878C92.4023 108.259 91.8637 110.546 90.9187 112.367C91.6459 113.971 92.0807 115.875 92.1735 117.862C92.2663 119.849 92.0133 121.839 91.4434 123.603C90.8736 125.367 90.0098 126.835 88.9509 127.839C87.8921 128.842 86.6808 129.341 85.4558 129.278C84.2307 129.216 83.0412 128.594 82.0233 127.484C81.0055 126.373 80.2003 124.82 79.6999 123.001C79.1995 121.182 79.0241 119.171 79.1937 117.197C79.3633 115.224 79.8711 113.367 80.659 111.841C79.8223 109.992 92.4698 104.688 92.4469 105.878Z" fill="#1971F4"/>
</g>
<g opacity="0.2">
<path d="M67.2782 137.486C67.2741 137.709 67.2584 137.932 67.2311 138.151C66.3447 137.922 65.4532 137.714 64.5566 137.53C64.5566 137.472 64.5566 137.412 64.5566 137.351C64.5649 136.731 64.6748 136.125 64.875 135.596C65.1374 134.921 65.536 134.498 65.9754 134.521C66.4147 134.544 66.7955 135.006 67.0311 135.703C67.2093 136.251 67.2946 136.867 67.2782 137.486Z" fill="#1971F4"/>
<path d="M67.3507 133.949C67.3818 132.348 66.7972 131.018 66.045 130.98C65.2928 130.941 64.6578 132.208 64.6267 133.809C64.5955 135.41 65.1801 136.739 65.9323 136.778C66.6845 136.817 67.3196 135.55 67.3507 133.949Z" fill="#1971F4"/>
<path d="M67.419 130.404C67.4502 128.803 66.8656 127.473 66.1134 127.435C65.3612 127.396 64.7262 128.663 64.695 130.264C64.6639 131.865 65.2485 133.195 66.0007 133.233C66.7529 133.272 67.3879 132.005 67.419 130.404Z" fill="#1971F4"/>
<path d="M67.4874 126.859C67.5185 125.258 66.934 123.929 66.1818 123.89C65.4295 123.851 64.7945 125.118 64.7634 126.719C64.7323 128.321 65.3168 129.65 66.069 129.689C66.8213 129.727 67.4563 128.461 67.4874 126.859Z" fill="#1971F4"/>
<path d="M67.5558 123.315C67.5869 121.713 67.0023 120.384 66.2501 120.345C65.4979 120.307 64.8629 121.573 64.8317 123.175C64.8006 124.776 65.3852 126.105 66.1374 126.144C66.8896 126.183 67.5246 124.916 67.5558 123.315Z" fill="#1971F4"/>
<path d="M61.5601 98.7184C61.3808 98.3236 61.2191 97.9084 61.0762 97.4761L64.6752 96.7038L60.8011 96.5527C60.4554 95.2195 60.2806 93.7856 60.2874 92.3388C60.2941 90.892 60.4824 89.4627 60.8406 88.1382L65.95 92.7865L61.2698 86.8152C61.7419 85.5737 62.3664 84.5038 63.1043 83.6723C63.8422 82.8409 64.6776 82.2657 65.5584 81.9827C66.4392 81.6998 67.3464 81.7151 68.2234 82.0277C69.1003 82.3404 69.9282 82.9436 70.6553 83.7998C71.3825 84.656 71.9932 85.7468 72.4494 87.0039C72.9055 88.2611 73.1974 89.6577 73.3067 91.1065C73.4159 92.5552 73.3403 94.0251 73.0845 95.4242C72.8286 96.8233 72.3981 98.1216 71.8198 99.2381C72.0987 99.8521 72.3357 100.514 72.5266 101.211L67.803 104.897L72.8118 102.447C73.1273 104.139 73.1781 105.933 72.9597 107.665C72.7414 109.397 72.2607 111.013 71.5612 112.367C72.2884 113.971 72.7233 115.875 72.8161 117.862C72.9089 119.849 72.6559 121.839 72.086 123.603C71.5161 125.367 70.6524 126.835 69.5935 127.839C68.5346 128.842 67.3234 129.341 66.0983 129.278C64.8733 129.216 63.6838 128.594 62.6659 127.484C61.648 126.373 60.8429 124.82 60.3425 123.001C59.8421 121.182 59.6667 119.171 59.8363 117.197C60.0059 115.224 60.5137 113.367 61.3016 111.841C60.4328 109.924 59.9856 107.588 60.0318 105.208C60.078 102.828 60.6149 100.542 61.5563 98.7184H61.5601Z" fill="#6C63FF"/>
<path opacity="0.1" d="M73.0895 105.878C73.0449 108.259 72.5063 110.546 71.5612 112.367C72.2884 113.971 72.7233 115.875 72.8161 117.862C72.9089 119.849 72.6559 121.839 72.086 123.603C71.5161 125.367 70.6524 126.835 69.5935 127.839C68.5346 128.842 67.3234 129.341 66.0983 129.278C64.8733 129.216 63.6838 128.594 62.6659 127.484C61.648 126.373 60.8429 124.82 60.3425 123.001C59.8421 121.182 59.6667 119.171 59.8363 117.197C60.0059 115.224 60.5137 113.367 61.3016 111.841C60.4649 109.992 73.1124 104.688 73.0895 105.878Z" fill="#1971F4"/>
</g>
<g opacity="0.2">
<path d="M120.156 139.751C120.146 140.174 120.115 140.595 120.063 141.01C118.356 140.567 116.637 140.171 114.906 139.822C114.906 139.71 114.906 139.596 114.906 139.48C114.922 138.284 115.134 137.117 115.52 136.099C116.03 134.801 116.794 133.987 117.638 134.028C118.482 134.07 119.217 134.962 119.676 136.306C120.021 137.364 120.187 138.554 120.156 139.751Z" fill="#1971F4"/>
<path d="M120.295 132.934C120.355 129.851 119.229 127.291 117.78 127.216C116.331 127.142 115.108 129.581 115.048 132.665C114.988 135.748 116.114 138.309 117.563 138.383C119.012 138.457 120.235 136.018 120.295 132.934Z" fill="#1971F4"/>
<path d="M120.428 126.11C120.488 123.026 119.362 120.466 117.913 120.392C116.464 120.317 115.241 122.757 115.181 125.84C115.121 128.924 116.247 131.484 117.696 131.559C119.145 131.633 120.368 129.194 120.428 126.11Z" fill="#1971F4"/>
<path d="M120.561 119.286C120.62 116.202 119.494 113.642 118.046 113.568C116.597 113.493 115.374 115.933 115.314 119.016C115.254 122.1 116.38 124.66 117.829 124.734C119.277 124.809 120.501 122.369 120.561 119.286Z" fill="#1971F4"/>
<path d="M120.544 112.151C120.601 109.066 119.472 106.507 118.022 106.437C116.573 106.366 115.351 108.81 115.294 111.895C115.238 114.98 116.367 117.538 117.816 117.609C119.266 117.68 120.487 115.236 120.544 112.151Z" fill="#1971F4"/>
<path d="M109.147 65.1186C108.803 64.3586 108.492 63.5609 108.216 62.7314L115.144 61.2448L107.687 60.9528C107.021 58.3864 106.684 55.6261 106.697 52.8407C106.71 50.0553 107.072 47.3034 107.761 44.7534L117.599 53.6999L108.59 42.2046C109.501 39.8203 110.704 37.7665 112.125 36.1713C113.546 34.576 115.153 33.4736 116.847 32.9325C118.541 32.3915 120.286 32.4236 121.972 33.0267C123.658 33.6298 125.25 34.791 126.648 36.438C128.046 38.085 129.22 40.1825 130.098 42.5997C130.975 45.0169 131.537 47.7021 131.748 50.4878C131.96 53.2736 131.816 56.1002 131.325 58.7916C130.835 61.4829 130.01 63.9814 128.899 66.1311C129.436 67.3143 129.892 68.5881 130.261 69.9304L121.167 77.0301L130.809 72.3094C131.416 75.563 131.515 79.0117 131.096 82.3431C130.678 85.6746 129.754 88.7836 128.41 91.3889C129.81 94.477 130.647 98.1431 130.826 101.968C131.004 105.793 130.517 109.623 129.42 113.019C128.323 116.415 126.66 119.24 124.621 121.172C122.583 123.104 120.251 124.065 117.893 123.944C115.535 123.823 113.245 122.626 111.285 120.489C109.326 118.352 107.776 115.361 106.813 111.86C105.849 108.358 105.511 104.486 105.838 100.687C106.164 96.8882 107.141 93.315 108.658 90.3764C106.986 86.6861 106.126 82.1897 106.214 77.6089C106.303 73.0282 107.336 68.6287 109.147 65.1166V65.1186Z" fill="#6C63FF"/>
<path opacity="0.1" d="M131.345 78.8997C131.262 83.4815 130.23 87.8833 128.416 91.393C129.816 94.4811 130.653 98.1473 130.831 101.972C131.01 105.797 130.523 109.627 129.426 113.023C128.328 116.419 126.666 119.244 124.627 121.176C122.589 123.108 120.257 124.069 117.899 123.948C115.541 123.827 113.251 122.63 111.291 120.493C109.332 118.356 107.782 115.366 106.818 111.864C105.855 108.362 105.517 104.491 105.843 100.691C106.17 96.8923 107.147 93.3192 108.664 90.3806C107.041 86.8173 131.39 76.6077 131.345 78.8997Z" fill="#1971F4"/>
</g>
<path d="M20.0996 140.116L21.4356 140.109H23.3191L25.7006 77.2123L49.2853 13.2283L48.2601 11.4394V6.90919L22.7537 75.7298L20.0996 140.116Z" fill="#F1C0C0"/>
<path opacity="0.1" d="M21.5781 140.109H23.3191L25.7006 77.2123L49.2852 13.2283L48.26 11.4394L23.9329 76.2537L21.5781 140.109Z" fill="#1971F4"/>
<path d="M16.1621 140.639L77.2729 148.242L77.3251 148.248L136.467 142.335L136.512 142.331V138.271L71.3446 136.327L16.9759 136.242H16.5786L16.5353 136.697L16.1621 140.639Z" fill="#F1C0C0"/>
<path opacity="0.1" d="M16.1621 140.639L77.2729 148.242L77.3251 148.248L136.467 142.335L136.512 142.256V138.356H136.459L77.2729 141.569L16.9759 136.242H16.967L16.86 136.356L16.5353 136.697L16.1621 140.639Z" fill="#1971F4"/>
<path opacity="0.1" d="M16.1621 140.639L77.2729 148.242V141.569L16.86 136.356L16.5353 136.697L16.1621 140.639Z" fill="#1971F4"/>
<path d="M48.252 11.3545L75.1937 58.3668L74.3608 141.062L76.6493 141.511L76.6875 141.519H78.9761L79.2499 61.9177L129.699 89.3143L130.549 138.095L132.391 138.43L133.015 138.544L131.571 85.9311L78.8335 55.8305L49.9165 6.95681H48.252V11.3545Z" fill="#F1C0C0"/>
<path opacity="0.1" d="M79.043 60.3959L79.2506 61.9177L129.699 89.3143L130.55 138.095L132.392 138.43L130.947 88.2997L79.043 60.3959Z" fill="#1971F4"/>
<path opacity="0.1" d="M48.252 11.3545L75.1937 58.3668L74.3608 141.062L76.6493 141.511L77.2734 55.6607L48.252 6.95681V11.3545Z" fill="#1971F4"/>
<path d="M79.1406 93.5836L97.6439 99.5072L97.6502 99.5093L130.058 109.889L131.542 108.922L131.537 108.752L131.44 105.387L79.1597 88.2128L79.1406 93.5836Z" fill="#F1C0C0"/>
<path opacity="0.1" d="M97.6504 99.5093L130.058 109.889L131.542 108.922L131.537 108.752L97.6504 99.5093Z" fill="#1971F4"/>
<path d="M98.8887 72.5827L99.3892 117.375L99.6477 140.356L101.926 140.231L103.36 140.153L102.914 73.2308L101.926 72.6966L101.71 72.5827H98.8887Z" fill="#F1C0C0"/>
<path opacity="0.1" d="M98.9102 72.5724V72.5827L99.3903 117.375L99.6488 140.356L101.927 140.231V72.5724H98.9102Z" fill="#1971F4"/>
<path d="M63.201 84.0221C63.3346 84.1402 63.4624 84.2752 63.583 84.4259C63.7257 84.6289 63.8538 84.8574 63.9651 85.107C64.5114 86.2562 65.0157 87.5916 64.9623 89.041C64.9634 89.2518 64.9389 89.461 64.8902 89.6564C64.8414 89.8518 64.7694 90.0297 64.6783 90.1797C64.4528 90.4924 64.1294 90.5069 63.8339 90.5069C63.513 90.5069 63.1755 90.5069 62.8978 90.2377C62.6202 89.9685 62.3884 89.4447 62.0599 89.4571C62.0135 89.4696 61.9662 89.4696 61.9198 89.4571C61.8064 89.3971 61.7835 89.1548 61.7096 89.0016C61.5823 88.7262 61.3136 88.7946 61.1136 88.9147C60.9137 89.0347 60.6921 89.2149 60.4947 89.0761C60.3801 88.9779 60.2864 88.8256 60.226 88.6393C59.7535 87.397 59.6529 85.9042 59.5637 84.4611C59.509 83.5832 59.0912 80.5893 60.2438 81.2704C60.7532 81.5686 61.2295 82.1649 61.6931 82.6018L63.201 84.0221Z" fill="#1971F4"/>
<path d="M62.0625 84.3182C62.1655 84.4386 62.2902 84.4995 62.4169 84.4912C62.5436 84.483 62.665 84.406 62.7617 84.2726C62.9513 83.9941 63.0722 83.6129 63.1017 83.2001C63.2291 83.136 63.294 83.4072 63.3755 83.5728C63.5182 83.8544 63.8085 83.8503 63.9384 84.1505C64.0289 84.3575 64.0085 84.6453 64.0722 84.8793C64.1549 85.1816 64.36 85.3389 64.5001 85.5833C64.6324 85.8502 64.7279 86.1601 64.7803 86.4922L64.9891 87.5109C65.089 87.9345 65.1533 88.3781 65.1801 88.8298C65.1933 89.0555 65.1787 89.2833 65.1372 89.4998C65.0956 89.7163 65.028 89.9172 64.9382 90.0907C64.658 90.5814 64.1982 90.6332 63.792 90.6187C63.6563 90.6233 63.5209 90.5976 63.3895 90.5421C63.0291 90.3599 62.7986 89.7698 62.7031 89.1755C62.6076 88.5813 62.6178 87.9581 62.5617 87.3494C62.5012 86.7514 62.3942 86.1684 62.2434 85.6143C62.1313 85.1837 61.8231 84.5418 61.8282 84.0842C61.9199 84.0842 61.9861 84.2209 62.0625 84.3182Z" fill="#1971F4"/>
<path d="M62.5185 82.2208C62.4589 81.9268 62.4242 81.621 62.4153 81.3119C62.4153 80.6907 62.5898 80.1068 62.7655 79.552L61.3099 79.8729C61.1341 79.9122 60.938 79.9702 60.8387 80.2083C60.8009 80.3263 60.7812 80.4573 60.7812 80.5903C60.7812 80.7233 60.8009 80.8543 60.8387 80.9723C60.9117 81.2085 60.9697 81.4562 61.0119 81.7115C61.0152 81.9349 61.031 82.1573 61.059 82.3761C61.1043 82.5368 61.1678 82.6822 61.2462 82.8047C61.6627 83.5542 61.9747 84.4383 62.2854 85.3141C62.2765 85.2893 63.1629 84.1733 63.1272 83.8089C63.1069 83.6018 62.8509 83.3534 62.7694 83.1546C62.6568 82.8661 62.5722 82.5511 62.5185 82.2208Z" fill="#BE6F72"/>
<path d="M75.0005 74.1314V76.1709L53.5197 82.9827L52.4054 84.0801H48.5605V82.931L69.6656 74.6408L75.0005 74.1314Z" fill="#F1C0C0"/>
<path opacity="0.1" d="M75.0005 76.1709L53.5197 82.9827L52.4054 84.0801H48.5605L69.8223 76.6823L75.0005 76.1709Z" fill="#1971F4"/>
<path d="M57.7533 132.026C57.514 131.555 57.1836 131.229 56.8159 131.102C56.4482 130.975 56.0649 131.054 55.7284 131.326C55.6563 131.381 55.5928 131.462 55.5424 131.562C55.4151 131.852 55.4966 132.252 55.5081 132.61C55.5374 133.484 55.1094 134.194 54.7248 134.805C54.5185 135.132 54.3084 135.482 54.2154 135.927C54.1224 136.372 54.1912 136.937 54.4408 137.169C54.5498 137.258 54.6683 137.311 54.7898 137.327C55.1969 137.456 55.6143 137.475 56.0251 137.382C56.4314 137.256 56.83 136.881 57.0057 136.273C57.0396 136.108 57.0958 135.957 57.17 135.832C57.3942 135.544 57.738 135.881 57.9927 135.676C58.2029 135.507 58.2118 135.24 58.2143 134.888C58.222 133.914 58.1328 132.813 57.7533 132.026Z" fill="#6C63FF"/>
<path d="M60.8098 131.989C60.9664 132.66 60.9881 133.391 61.0085 134.107C61.0199 134.521 61.0276 134.964 60.89 135.314C60.7525 135.664 60.4838 135.848 60.2265 135.935C59.6954 136.113 59.0803 135.946 58.7377 135.26C58.4754 134.736 58.4206 134.018 58.469 133.339C58.5098 132.782 58.5964 132.13 58.3506 131.734C58.2869 131.629 58.2041 131.554 58.1455 131.44C58.0182 131.188 58.0386 130.807 58.1073 130.496C58.1969 130.199 58.264 129.886 58.3073 129.562C58.3175 129.409 60.0316 129.67 60.1896 129.796C60.4048 129.968 60.3717 130.256 60.4366 130.604C60.5271 131.088 60.7003 131.525 60.8098 131.989Z" fill="#6C63FF"/>
<path d="M61.1253 102.244C61.4615 102.598 61.5915 103.294 61.6437 103.94C61.7876 105.71 61.5354 107.499 61.5163 109.286C61.4985 111.789 61.9442 114.338 61.5634 116.763C61.3355 118.212 61.529 119.868 61.3151 121.332C61.2514 121.767 61.1343 122.177 61.0731 122.612C60.9458 123.554 61.0795 124.539 61.2591 125.461C61.3164 125.709 61.3528 125.969 61.3673 126.233C61.3587 126.64 61.2952 127.038 61.1814 127.401L60.4172 130.339C60.3319 130.668 59.9957 130.722 59.7805 130.765C59.3755 130.844 58.9234 130.9 58.6012 130.492C58.279 130.084 58.2013 129.401 58.1516 128.763C58.0564 127.539 58.0138 126.305 58.0243 125.071C58.0383 124.749 58.0206 124.426 57.9721 124.113C57.902 123.759 57.7479 123.452 57.7059 123.078C57.6524 122.593 57.8039 122.117 57.86 121.628C57.8984 121.182 57.8941 120.729 57.8472 120.284C57.7976 119.622 57.7403 118.959 57.6753 118.301C57.5836 117.38 57.7148 116.471 57.8027 115.547C57.8855 114.68 57.7797 113.796 57.6753 112.934C57.6843 113.633 57.6307 114.331 57.5161 115.005C57.4486 115.334 57.3518 115.649 57.2933 115.984C57.0322 117.489 57.5887 119.069 57.5098 120.628C57.4728 121.357 57.2971 122.078 57.3467 122.796C57.3811 123.322 57.5314 123.804 57.6346 124.305C57.7377 124.806 57.7912 125.38 57.6346 125.848C57.2207 127.119 57.5301 128.848 57.9007 130.152C57.976 130.384 58.0415 130.623 58.0969 130.869C58.2064 131.457 58.1147 132.088 58.144 132.701C58.0373 132.73 57.9281 132.718 57.8246 132.667C57.7211 132.617 57.626 132.529 57.5467 132.409C57.4907 132.314 57.4448 132.202 57.39 132.103C57.237 131.866 57.0559 131.682 56.8577 131.562C56.7413 131.457 56.6088 131.407 56.4756 131.42C56.3357 131.483 56.2098 131.61 56.1127 131.786C55.9867 131.966 55.8531 132.131 55.7128 132.281C55.653 132.355 55.5832 132.406 55.509 132.428C55.4717 132.437 55.4336 132.427 55.4 132.399C55.3664 132.372 55.339 132.327 55.3218 132.273C55.3139 132.238 55.3091 132.202 55.3078 132.165C55.2605 131.54 55.2354 130.911 55.2327 130.281C55.2327 129.198 54.4354 128.453 54.3348 127.382C54.2546 126.519 54.4036 125.639 54.3539 124.769C54.3297 124.322 54.2533 123.883 54.2584 123.436C54.2584 123.146 54.2992 122.862 54.3132 122.574C54.3249 122.255 54.3219 121.935 54.3043 121.616L54.2648 120.616C54.2266 119.628 54.1846 118.62 53.9451 117.717C53.6612 116.663 53.4931 115.536 53.4484 114.388C53.423 113.663 53.4395 112.938 53.3886 112.212C53.3427 111.555 53.2409 110.903 53.2701 110.245C53.2943 109.735 53.3975 109.243 53.4217 108.733C53.4714 107.754 53.2421 106.802 53.0626 105.864C52.883 104.926 52.7505 103.886 52.9862 102.981C53.0198 102.833 53.0759 102.701 53.1492 102.596C53.2395 102.499 53.3423 102.437 53.4497 102.414C55.6348 101.668 57.8745 101.436 60.1001 101.725C60.463 101.758 60.8151 101.937 61.1253 102.244Z" fill="#1971F4"/>
<path d="M53.8957 80.2538C55.0225 80.2538 55.9359 78.7688 55.9359 76.9369C55.9359 75.1051 55.0225 73.62 53.8957 73.62C52.7689 73.62 51.8555 75.1051 51.8555 76.9369C51.8555 78.7688 52.7689 80.2538 53.8957 80.2538Z" fill="#BE6F72"/>
<path d="M53.4999 81.08C53.5293 81.2696 53.5293 81.468 53.4999 81.6576C53.4679 81.7901 53.4227 81.9132 53.3662 82.022C53.1687 82.4362 52.9502 82.8227 52.7129 83.1774C52.8338 83.6163 53.0514 83.9657 53.3229 84.1567C53.5925 84.3432 53.8752 84.4747 54.1647 84.548C54.3092 84.6098 54.4596 84.6266 54.6079 84.5977C54.7446 84.5418 54.874 84.4465 54.99 84.3161L56.1234 83.2126C56.2945 83.0619 56.4528 82.8761 56.5946 82.6597C56.8025 82.3124 56.9202 81.8482 56.9232 81.3636C56.9285 81.2768 56.914 81.1899 56.8825 81.1193C56.839 81.0578 56.7845 81.0208 56.7271 81.0137C56.3285 80.8708 56.0139 80.3449 55.8356 79.7486C55.6744 79.1374 55.5701 78.4905 55.5261 77.8293L54.3176 78.8645C54.138 79.0198 53.9597 79.1751 53.7737 79.3097C53.6553 79.3967 53.4159 79.4691 53.3318 79.6451C53.1714 79.9702 53.4579 80.6886 53.4999 81.08Z" fill="#BE6F72"/>
<path d="M52.7208 82.5749C52.5487 82.8042 52.4143 83.0995 52.3298 83.4341C52.2508 83.8482 52.3298 84.2851 52.4011 84.695C52.7353 86.4424 52.9907 88.227 53.1652 90.0348C53.2722 91.2771 53.3117 92.538 53.3639 93.7948C53.4709 96.358 53.6262 100.445 53.8338 102.992C54.5979 103.048 55.343 102.685 56.1007 102.553C57.5169 102.309 58.9751 102.868 60.362 102.346C60.0258 100.186 59.6896 96.4988 59.3533 94.3414C59.2046 93.4914 59.1014 92.622 59.0452 91.7429C59.0159 91.1114 59.0337 90.4779 59.0388 89.8422C59.0502 88.6 59.0082 87.3577 58.9662 86.1154C58.9178 84.666 58.8694 83.2167 58.658 81.7984C58.6433 81.6177 58.5912 81.4505 58.5103 81.3243C58.3829 81.1731 58.2173 81.227 58.0658 81.2601C57.6018 81.3559 57.1321 81.175 56.7439 80.7508C56.5758 80.5644 56.3503 80.3367 56.1937 80.5437C56.1268 80.6686 56.0827 80.8213 56.0663 80.9847C55.997 81.2776 55.8901 81.5431 55.7526 81.7634C55.6151 81.9837 55.4503 82.1538 55.2691 82.2622C54.9062 82.4759 54.5261 82.6028 54.1407 82.6391C54.0228 82.6802 53.8999 82.6577 53.7905 82.5749C53.6097 82.3947 53.5969 81.7467 53.369 81.7032C53.169 81.6659 52.8557 82.3657 52.7208 82.5749Z" fill="#1971F4"/>
<path d="M55.7344 87.631C55.2644 86.9001 55.0581 85.84 54.7155 84.9393C54.4823 84.3337 54.1842 83.8008 53.8355 83.3658C53.6602 83.1776 53.4995 82.9558 53.3567 82.7053C53.2357 82.463 53.144 82.14 52.9606 82.0469C52.8848 82.0201 52.8062 82.0236 52.7314 82.0571C52.6567 82.0907 52.588 82.1532 52.5314 82.2394C52.4192 82.4134 52.3129 82.5972 52.213 82.7902C51.6731 83.6991 50.7243 83.8254 50.2964 84.8772C50.1809 85.1002 50.1024 85.3675 50.0684 85.6537C49.9452 87.1845 50.1887 88.7338 50.7485 89.9809C50.8569 90.27 51.0233 90.4894 51.2197 90.6021C51.193 90.9882 51.2245 91.379 51.3114 91.7409C51.5472 93.0513 51.8369 94.3344 52.1786 95.5816C52.0969 96.0695 52.0399 96.5673 52.008 97.0703C51.9188 98.3353 52.0016 99.619 51.9176 100.886C51.8488 101.921 51.6629 102.93 51.6565 103.967C51.6565 104.133 51.6654 104.329 51.7533 104.414C51.8 104.453 51.8524 104.471 51.9048 104.466L53.4713 104.543C54.3806 104.586 55.2988 104.63 56.1941 104.356C56.3133 104.328 56.429 104.268 56.5367 104.18C56.8398 103.905 56.9404 103.284 56.9888 102.731C57.052 102.014 57.0772 101.289 57.0639 100.565C57.2537 101.54 57.4791 102.549 58.0522 102.971C58.3553 103.195 58.7017 103.178 59.0341 103.164C59.7505 103.112 60.4645 102.992 61.1724 102.805C61.216 102.814 61.2603 102.806 61.3017 102.782C61.3431 102.758 61.3805 102.719 61.4108 102.667C61.4411 102.615 61.4636 102.553 61.4764 102.484C61.4891 102.416 61.4919 102.344 61.4844 102.273L61.492 101.143C61.5073 98.8467 61.1571 96.652 61.0208 94.3662C60.9775 93.6457 60.9814 92.9169 60.8731 92.2109C60.8285 91.9148 60.7636 91.6249 60.7241 91.3268C60.6901 91.0349 60.6688 90.7394 60.6604 90.4427L60.5611 88.1651C60.514 87.1113 60.4465 86.0947 60.3968 85.0429C60.3695 84.0187 60.2782 83.0017 60.1243 82.0075C60.0135 81.3864 59.783 80.6824 59.3843 80.6058C59.1717 80.5665 58.9653 80.7176 58.7628 80.8232C58.2651 81.078 57.731 81.0743 57.2346 80.8129C57.0812 80.7144 56.9214 80.645 56.7583 80.6058C56.6762 80.5877 56.5926 80.6053 56.516 80.657C56.4395 80.7086 56.3728 80.7924 56.3227 80.8998C56.2733 81.0616 56.2501 81.2412 56.2553 81.4216C56.1954 83.49 56.0846 85.6205 55.7344 87.631Z" fill="#6C63FF"/>
<path d="M53.685 87.6931C53.0979 86.6868 52.4955 85.6619 51.739 85.0222C51.441 84.7696 51.1023 84.5791 50.7724 84.6743C50.4426 84.7696 50.1357 85.2354 50.1509 85.78C50.1611 86.1174 50.2872 86.4156 50.3267 86.7469C50.3725 87.1196 50.3063 87.5171 50.3776 87.8774C50.4356 88.1148 50.5222 88.3309 50.6323 88.513L51.534 90.2501C51.9161 90.9748 52.2981 91.7098 52.7897 92.2109C53.2813 92.7119 53.9181 92.9459 54.458 92.5898C54.8422 92.2995 55.1617 91.8228 55.3724 91.2253C55.5966 90.6456 55.7545 90.012 55.9646 89.4136C56.2917 88.4576 56.7233 87.6065 57.2382 86.9022C56.9733 86.7904 56.6409 86.633 56.4741 86.281C56.4266 86.1691 56.386 86.0498 56.3531 85.9249L56.1468 85.2002C56.0766 85.1943 56.0064 85.212 55.9407 85.2523C55.8749 85.2925 55.815 85.3545 55.7647 85.4342C55.6762 85.6004 55.5814 85.7574 55.4807 85.9042C55.3011 86.1237 55.0579 86.1837 54.8949 86.4342C54.8318 86.5418 54.7747 86.6582 54.7242 86.7821C54.6009 87.0455 54.4444 87.2631 54.2652 87.4202C54.086 87.5773 53.8882 87.6704 53.685 87.6931Z" fill="#1971F4"/>
<path d="M57.2852 83.3637C57.7271 82.0531 57.7067 80.4816 57.8328 79.0012C57.8465 78.6092 57.9311 78.2324 58.0761 77.9183C58.3308 77.4504 58.7803 77.4442 59.1649 77.5042C59.2783 77.5249 59.4196 77.6119 59.4133 77.7962C59.4043 77.8622 59.3845 77.923 59.356 77.9722C58.9832 78.7544 58.764 79.701 58.7268 80.6886C58.9268 80.9143 59.2363 80.4505 59.4286 80.6886C59.5559 80.8626 59.4973 81.2063 59.4209 81.4547C59.2435 82.0303 59.0605 82.6018 58.872 83.1691C58.7216 83.6691 58.5253 84.1292 58.29 84.5335C58.1283 84.7861 57.9385 84.9849 57.7742 85.2333C57.3922 85.8151 57.1617 86.6371 56.7669 87.2044C56.7335 87.2632 56.6883 87.3006 56.6395 87.31C56.5893 87.3042 56.5419 87.2697 56.5058 87.2127C56.3086 86.9519 56.145 86.6304 56.0244 86.2665C55.8741 85.8151 55.897 85.6826 56.1339 85.3638C56.5771 84.7944 57.0088 84.1836 57.2852 83.3637Z" fill="#BE6F72"/>
<path d="M52.9469 86.8028C53.0234 86.8794 53.1176 86.9663 53.2017 86.9021C53.236 86.8684 53.2652 86.8223 53.287 86.7676C53.4326 86.4517 53.554 86.1082 53.6487 85.7447C53.665 85.6934 53.6741 85.6368 53.6754 85.5791C53.6754 85.4466 53.6028 85.3493 53.5353 85.2727C53.1737 84.8979 52.7848 84.5975 52.3777 84.3782C52.0415 84.1712 51.69 83.991 51.3334 84.0428C51.1994 84.0574 51.0686 84.116 50.9489 84.2149C50.8292 84.3138 50.723 84.4511 50.6367 84.6184C50.382 85.1505 50.8087 85.312 51.0761 85.5046C51.6951 85.9621 52.3649 86.2272 52.9469 86.8028Z" fill="#6C63FF"/>
<path opacity="0.1" d="M52.545 90.3226C52.5407 90.3698 52.5433 90.4181 52.5526 90.4634C52.5619 90.5087 52.5776 90.5499 52.5985 90.5835C52.6354 90.2895 52.587 89.9789 52.6252 89.6828C52.6813 89.2376 52.9474 88.9022 52.9703 88.455C52.4826 88.2997 52.5488 89.8422 52.545 90.3226Z" fill="#1971F4"/>
<path opacity="0.2" d="M75.0009 74.1314V76.1709L69.8227 76.6823L69.666 74.6408L75.0009 74.1314Z" fill="#1971F4"/>
<path d="M52.0578 77.4297C52.3813 77.0011 52.1941 76.1025 52.4131 75.5269C52.5405 75.2122 52.7557 75.0466 52.9671 74.9058C53.2223 74.7117 53.4956 74.5885 53.7758 74.5414C53.9161 74.5195 54.0577 74.5492 54.19 74.6284C54.3223 74.7077 54.4419 74.8343 54.5399 74.999C54.6227 75.1522 54.6788 75.3385 54.7564 75.4979C54.8526 75.6839 54.978 75.8241 55.1193 75.9036C55.2606 75.9831 55.4124 75.9989 55.5588 75.9493C55.7282 75.8872 55.9039 75.6781 55.8924 75.3965C55.8733 75.2252 55.8195 75.0693 55.7396 74.9534L55.3754 74.2971C54.9615 73.5517 54.5017 72.7608 53.8943 72.5744C53.4714 72.444 53.0384 72.6283 52.6309 72.8498C52.4666 72.9388 52.282 73.0713 52.2361 73.3426C52.2055 73.5289 52.2514 73.7318 52.2246 73.9202C52.1724 74.295 51.877 74.4213 51.7394 74.736C51.6019 75.0507 51.6439 75.4234 51.6044 75.7713C51.565 76.1191 51.4503 76.4587 51.4363 76.8189C51.4274 77.0363 51.4949 77.4401 51.6452 77.5187C51.7955 77.5974 51.9648 77.1709 52.0578 77.4297Z" fill="#1971F4"/>
<path d="M55.7698 75.0984C55.6625 74.1874 55.431 73.3271 55.0923 72.5806C54.7912 71.8832 54.3723 71.3424 53.8863 71.0236C53.6433 70.8693 53.382 70.8064 53.1219 70.8398C52.8619 70.8731 52.6099 71.0018 52.3848 71.2162C52.0506 71.604 51.7906 72.1372 51.6347 72.7546C51.3048 73.9099 51.1826 75.322 51.5659 76.4317C51.7187 76.1295 51.9811 76.2661 52.2129 76.1564C52.5032 76.0218 52.749 75.7071 53.0254 75.5104C53.8595 74.912 54.8784 75.3965 55.7698 75.0984Z" fill="#FED253"/>
<path opacity="0.1" d="M51.7603 75.0342C51.731 74.6615 51.7119 74.2287 51.8749 73.9637C51.883 73.9475 51.8933 73.9345 51.905 73.9259C51.9167 73.9173 51.9295 73.9132 51.9424 73.914C51.9538 73.92 51.9642 73.9297 51.9732 73.9426C51.9822 73.9554 51.9895 73.971 51.9946 73.9886C52.0887 74.23 52.1688 74.4851 52.234 74.7505C52.1391 74.7149 52.0398 74.7265 51.949 74.7837C51.8582 74.841 51.78 74.9412 51.7246 75.0714" fill="#1971F4"/>
<path opacity="0.1" d="M54.7376 73.9823L54.6917 73.2432C54.6843 73.1823 54.6874 73.1192 54.7007 73.061C54.7199 73.0122 54.7495 72.9768 54.7838 72.9615C54.8182 72.9462 54.8548 72.9521 54.8866 72.9782C54.9492 73.0346 55.0009 73.1186 55.0356 73.2204C55.1416 73.485 55.2296 73.7676 55.2979 74.0631C55.0928 73.9989 54.8818 74.0031 54.6777 74.0755" fill="#1971F4"/>
<path opacity="0.1" d="M55.8756 103.982V105.671L54.9981 105.766H50.3828V103.982H55.8756Z" fill="#1971F4"/>
<path d="M55.876 103.982V105.766H50.3832L35.791 76.0487V74.6449H38.8501L55.876 103.982Z" fill="#F1C0C0"/>
<path opacity="0.1" d="M55.876 103.982V105.766H50.3832L35.791 76.0487V74.6449H38.8501L55.876 103.982Z" fill="#1971F4"/>
<path opacity="0.1" d="M55.876 103.982V105.766H50.3832L35.791 76.0487V74.6449L50.4622 103.982H55.876Z" fill="#1971F4"/>
<path d="M37.7051 133.767C37.7147 133.851 37.7135 133.938 37.7017 134.021C37.6899 134.104 37.6676 134.183 37.6363 134.251C37.6049 134.32 37.5653 134.377 37.5197 134.42C37.4741 134.462 37.4237 134.489 37.3714 134.498C37.0174 134.693 36.6417 134.885 36.3908 135.327C36.1399 135.768 36.0902 136.585 36.3908 136.944C36.5444 137.094 36.7208 137.172 36.9002 137.169C37.4771 137.233 38.0782 137.221 38.6017 136.823C38.9761 136.542 39.3289 136.062 39.7402 136.105C39.9529 136.126 40.1796 136.287 40.3693 136.13C40.5591 135.972 40.6126 135.534 40.6139 135.167C40.6187 134.402 40.5477 133.641 40.4037 132.912C40.3846 132.813 39.5747 132.736 39.4779 132.705L38.496 132.498C38.31 132.459 37.9089 132.231 37.7624 132.484C37.6159 132.736 37.7051 133.467 37.7051 133.767Z" fill="#6C63FF"/>
<path d="M43.5633 128.6C43.6049 128.972 43.6724 129.336 43.7646 129.684C43.9008 130.248 44.0753 130.846 44.409 131.119C44.7121 131.366 45.084 131.277 45.3921 131.043C45.5208 130.956 45.6335 130.817 45.7194 130.639C45.8189 130.357 45.8633 130.033 45.8468 129.709C45.8468 128.908 45.8175 128.08 45.5921 127.368C45.3985 126.746 45.061 126.212 45.0559 125.525L43.8957 125.889C43.8336 125.899 43.7745 125.937 43.7251 125.999C43.6883 126.062 43.6628 126.14 43.6512 126.225C43.5273 127 43.4975 127.806 43.5633 128.6Z" fill="#6C63FF"/>
<path d="M29.7092 108.93C29.6608 109.597 29.6812 110.311 29.8952 110.887C30.1091 111.462 30.56 111.843 30.9497 111.613C30.9696 111.605 30.9884 111.59 31.0048 111.57C31.0212 111.55 31.0349 111.524 31.0452 111.495C31.0555 111.425 31.0497 111.352 31.0286 111.288C30.8566 110.542 30.8707 109.716 31.0681 108.986C31.0936 108.891 31.1483 108.779 31.2082 108.816C31.2332 108.837 31.2534 108.87 31.2655 108.911C31.3272 109.085 31.358 109.283 31.3547 109.483C31.3367 109.664 31.3332 109.849 31.3445 110.031C31.3687 110.21 31.4858 110.377 31.5877 110.301C31.6172 110.271 31.6426 110.232 31.6626 110.186C31.6825 110.141 31.6964 110.089 31.7036 110.034C31.9876 108.698 31.859 107.238 31.7291 105.841C31.7302 105.809 31.7269 105.777 31.7195 105.747C31.7121 105.717 31.7008 105.69 31.6864 105.668C31.6719 105.646 31.6547 105.63 31.6359 105.62C31.6171 105.61 31.5971 105.607 31.5775 105.611C30.9764 105.514 30.6478 105.28 30.304 106.189C30.0085 106.955 29.7092 108.009 29.7092 108.93Z" fill="#6C63FF"/>
<path d="M36.7365 105.532C36.5582 106.737 36.3786 107.957 36.3672 109.195C36.3703 109.966 36.4061 110.736 36.4742 111.499L36.6079 113.292C36.6537 113.897 36.6983 114.5 36.7633 115.098C36.8047 115.406 36.8273 115.72 36.8308 116.036C36.8183 116.347 36.788 116.655 36.7403 116.957C36.6602 117.591 36.6155 118.236 36.6066 118.883C36.5926 119.918 36.6716 120.953 36.7212 121.988C36.8204 124.051 36.8055 126.125 36.6767 128.183C36.6252 128.739 36.6994 129.306 36.8855 129.78C36.961 129.929 37.0232 130.095 37.0702 130.272C37.1657 130.747 36.9428 131.221 36.8855 131.707C36.8489 132.087 36.9063 132.474 37.0453 132.785C37.1843 133.095 37.3934 133.304 37.6267 133.364C38.6456 133.56 39.6924 133.471 40.6106 134.229C40.7074 133.77 40.496 133.248 40.5928 132.78C40.6539 132.49 40.822 132.302 40.9366 132.057C41.0906 131.685 41.1674 131.242 41.1557 130.794C41.1602 130.209 41.0962 129.628 40.9672 129.082C40.859 128.626 40.7036 128.177 40.7125 127.689C40.7125 127.448 40.7647 127.196 40.7049 126.974C40.6638 126.847 40.608 126.734 40.5406 126.641C40.16 125.963 39.9261 125.101 39.8745 124.187C39.8249 123.28 39.8428 122.367 39.928 121.467C39.9904 120.61 40.0745 119.705 40.4094 119.036C40.2541 117.008 40.3454 114.95 40.6781 112.98C40.7112 112.798 40.7634 112.586 40.8781 112.543C40.9236 112.535 40.9696 112.546 41.0121 112.573C41.0547 112.6 41.0926 112.644 41.1226 112.7C41.3225 113.005 41.418 113.446 41.5046 113.868C41.6002 114.326 41.6969 114.814 41.6244 115.282C41.5938 115.489 41.5327 115.671 41.497 115.87C41.4195 116.27 41.4331 116.701 41.5352 117.086C41.585 117.226 41.6162 117.382 41.6269 117.543C41.6151 117.682 41.5893 117.816 41.5505 117.941C41.5033 118.186 41.4883 118.444 41.5065 118.699C41.5247 118.954 41.5757 119.2 41.6562 119.421C41.8185 119.861 42.0188 120.26 42.2509 120.607C42.14 121.402 42.1687 122.232 42.3337 123.001C42.3456 123.036 42.3532 123.074 42.3561 123.113C42.3589 123.153 42.3569 123.193 42.3503 123.231C42.3274 123.309 42.2688 123.338 42.2229 123.394C42.0956 123.564 42.1745 123.885 42.2599 124.107C42.4937 124.715 42.7519 125.297 43.0329 125.85C43.2876 126.345 43.2647 127.299 43.6442 127.477C43.8037 127.533 43.9687 127.533 44.1281 127.477C44.5026 127.384 44.9203 127.208 45.1037 126.67C45.1788 126.448 45.2094 126.179 45.3265 126.014C45.4437 125.848 45.5953 125.819 45.6602 125.62C45.7252 125.421 45.6526 125.16 45.6742 124.931C45.6959 124.701 45.8194 124.517 45.8589 124.274C45.9531 123.715 45.552 123.256 45.4972 122.684C45.4182 121.856 46.0601 121.235 46.0334 120.407C45.9773 118.607 45.9417 116.8 45.8843 115.001C45.8124 113.389 45.8022 111.772 45.8538 110.158C45.8984 109.154 45.9811 108.102 45.7544 107.168C45.4284 105.851 44.5293 105.112 43.6595 104.971C42.7896 104.83 41.9224 105.166 41.0602 105.385C39.6292 105.744 38.1754 105.793 36.7365 105.532Z" fill="#1971F4"/>
<path d="M39.3215 85.7427C40.4482 85.7427 41.3617 84.2577 41.3617 82.4258C41.3617 80.5939 40.4482 79.1089 39.3215 79.1089C38.1947 79.1089 37.2812 80.5939 37.2812 82.4258C37.2812 84.2577 38.1947 85.7427 39.3215 85.7427Z" fill="#FBBEBE"/>
<path d="M38.4913 86.3618C38.422 86.6241 38.3055 86.8462 38.157 86.9989C38.0086 87.1515 37.8352 87.2275 37.6597 87.2169C37.5858 87.7138 37.7628 88.2148 37.9653 88.6062C38.3858 89.4016 38.9292 90.0004 39.5394 90.3407C40.1497 90.681 40.8047 90.7505 41.437 90.5421C41.6831 90.4704 41.9165 90.3121 42.1209 90.0783C42.3965 89.7042 42.5815 89.1833 42.6431 88.6082C42.7017 88.0372 42.7183 87.4568 42.6927 86.8794C42.6999 86.7653 42.6798 86.6512 42.6367 86.5605C42.5858 86.4964 42.5228 86.4628 42.4584 86.4653C42.0279 86.4032 41.5784 86.3762 41.2001 86.0325C40.8219 85.6888 40.5532 84.9124 40.7353 84.2747C40.706 84.3741 39.9622 84.4217 39.8642 84.4424C39.5573 84.5128 39.2503 84.5915 38.9447 84.6826C38.7978 84.6957 38.6527 84.7403 38.513 84.8151C38.3283 84.9704 38.3971 84.8938 38.4404 85.1754C38.5053 85.606 38.6008 85.9145 38.4913 86.3618Z" fill="#FBBEBE"/>
<path d="M40.0435 88.3784C39.7687 88.3836 39.4946 88.3342 39.2272 88.2314C38.9572 88.1289 38.7192 87.8707 38.5573 87.5047C38.463 87.2728 38.4019 86.9808 38.2516 86.8504C38.0058 86.6433 37.7257 86.9933 37.5295 87.3142C37.351 87.6307 37.144 87.9015 36.9157 88.1175C36.6432 88.3515 36.3248 88.4343 36.0675 88.7097C35.8665 88.9566 35.6941 89.2594 35.5581 89.6041L33.7535 93.6002C33.0289 95.2068 32.3985 96.9315 31.7528 98.6273C31.1937 100.095 30.9008 101.785 30.4792 103.369C30.4458 103.466 30.432 103.577 30.4398 103.688C30.455 103.795 30.5353 103.882 30.5913 103.82C30.4015 104.126 30.5684 104.648 30.5238 105.079C30.4731 105.38 30.3675 105.649 30.2207 105.851C30.501 105.792 30.7856 105.813 31.0612 105.915C31.3461 106.047 31.615 106.257 31.8559 106.537C32.01 106.497 31.996 106.052 32.1106 105.886C32.1794 105.789 32.2813 105.801 32.3717 105.772C32.7117 105.665 32.8467 105 33.1078 104.625C33.3256 104.313 33.6338 104.211 33.8643 103.917C34.2387 103.439 34.319 102.588 34.5151 101.882C34.6819 101.284 34.9443 100.762 35.0907 100.149C35.1862 99.7515 35.2321 99.3209 35.3683 98.9544C35.5861 98.3623 35.9962 98.0475 36.3872 97.7639C36.6342 97.5838 36.8966 97.3974 37.1628 97.4264C37.1488 98.3892 37.0736 99.3375 37.2022 100.277C37.2468 100.609 37.3092 100.932 37.3627 101.261C37.606 102.743 37.6633 104.288 37.6747 105.816C38.2599 105.598 38.8575 105.482 39.4577 105.468C39.9302 105.445 40.4014 105.545 40.8739 105.53C41.4342 105.514 41.9882 105.338 42.5486 105.276C43.1089 105.213 43.6947 105.276 44.1902 105.69C44.1499 104.378 44.1725 103.062 44.2577 101.756L44.3926 99.6977C44.4231 99.0998 44.4797 98.5061 44.562 97.9212C44.6359 97.4492 44.7429 96.9937 44.8244 96.5237C45.1109 94.8673 45.0587 93.0991 45.0039 91.3744C44.9759 90.4882 44.7658 89.6166 44.5187 88.8277C44.4293 88.5347 44.3272 88.2524 44.2131 87.9829C43.9145 87.3142 43.5166 86.7793 43.0565 86.4281C42.5965 86.0769 42.0892 85.9209 41.5819 85.9746C41.5172 85.9778 41.4533 86.0003 41.3935 86.0408C41.286 86.1527 41.202 86.3152 41.1528 86.5067C40.8893 87.2766 40.507 87.9217 40.0435 88.3784Z" fill="#1971F4"/>
<path d="M37.5269 83.5252C37.5842 83.3182 37.7383 83.2415 37.8325 83.0759C38.0133 82.7612 37.9318 82.2581 37.9599 81.8336C38.0057 81.2125 38.3228 80.6928 38.6858 80.4712C39.0559 80.2781 39.4498 80.2376 39.832 80.3532C40.0159 80.3751 40.1936 80.4711 40.349 80.6327C40.4152 80.7114 40.4764 80.8129 40.5388 80.8853C40.6525 80.9971 40.7887 81.0322 40.9181 80.9831C41.0475 80.9339 41.16 80.8045 41.2316 80.6224C40.7807 79.7404 40.2815 78.8086 39.5964 78.5374C39.3613 78.4594 39.1218 78.4226 38.8819 78.4277C38.5648 78.4173 38.2375 78.409 37.9446 78.6057C37.546 78.8728 37.2658 79.4878 37.1219 80.1503C36.996 80.8219 36.9287 81.5188 36.9219 82.2208C36.8958 82.6891 36.8958 83.1604 36.9219 83.6287C36.9712 84.2683 37.1173 84.878 37.3473 85.4031C37.3784 85.4847 37.4224 85.5512 37.4746 85.5957C38.0554 86.0098 37.4797 83.697 37.5269 83.5252Z" fill="#1971F4"/>
<path d="M41.1659 80.111C41.0958 79.1358 40.6679 78.3304 40.2133 77.6823C39.8468 77.1204 39.4103 76.6932 38.9334 76.4297C38.4533 76.1998 37.9005 76.2495 37.4892 76.7154C37.1581 77.0902 36.9479 77.6864 36.7862 78.2869C36.5737 78.9955 36.4685 79.7763 36.4793 80.5644C36.5111 81.3471 36.7454 82.1401 37.1632 82.5355C37.3134 82.1753 37.5745 81.9889 37.8254 81.8419C38.9189 81.1674 40.034 80.5896 41.1659 80.111Z" fill="#FED253"/>
<path opacity="0.1" d="M37.3026 79.7052C37.3433 79.7052 37.3701 79.7735 37.3904 79.8294C37.4941 80.092 37.5832 80.3692 37.6566 80.6576C37.5076 80.7093 37.2516 80.7673 37.1778 80.5541C37.1383 80.4464 37.1854 79.6948 37.3026 79.7052Z" fill="#1971F4"/>
<path opacity="0.1" d="M40.205 79.2372C40.1745 79.2849 40.1388 79.1875 40.1388 79.1171V78.3138C40.138 78.2915 40.1411 78.2692 40.1477 78.2496C40.153 78.2398 40.1594 78.2318 40.1667 78.2261C40.1739 78.2204 40.1817 78.2172 40.1897 78.2165C40.2929 78.1979 40.3782 78.3407 40.4445 78.4774C40.545 78.6988 40.6324 78.9352 40.7055 79.1834L40.1668 79.1565" fill="#1971F4"/>
<path d="M46.9295 92.5401C47.0467 92.3592 47.1718 92.1924 47.3039 92.0411C47.6567 91.658 48.0833 91.5069 48.4794 91.2626C48.8755 91.0183 49.2779 90.6228 49.432 89.9809C49.5091 89.5796 49.5343 89.1566 49.5059 88.7387C49.5096 88.5637 49.4905 88.3894 49.4498 88.2273C49.4013 88.084 49.3323 87.9618 49.2486 87.8711C48.7112 87.2251 47.9904 87.1734 47.323 87.2396C45.8518 87.388 44.4097 87.9732 43.0681 88.9664C42.9972 89.0045 42.935 89.0767 42.8898 89.1735C42.8637 89.2632 42.8519 89.3622 42.8554 89.4613C42.8317 90.0718 42.8806 90.6841 42.9993 91.2646C43.1751 92.0017 43.5368 92.596 43.6883 93.3475C43.7571 93.685 43.78 94.0432 43.8399 94.3828C43.889 94.7335 44.0165 95.0419 44.1978 95.2482C44.7008 95.7369 45.1758 95.0805 45.5248 94.5712L46.9295 92.5401Z" fill="#1971F4"/>
<path d="M40.341 95.4077L39.6953 93.1177C39.6007 92.8004 39.519 92.4732 39.4508 92.1384C39.377 91.7388 39.3413 91.3247 39.2725 90.923C39.0458 89.5855 38.474 88.4716 38.1951 87.161C38.1775 87.0426 38.1415 86.9336 38.0907 86.8442C38.05 86.7974 38.0034 86.7657 37.9544 86.7514C37.9053 86.7371 37.8549 86.7405 37.8067 86.7614C37.417 86.8711 37.1126 87.3535 36.756 87.6268C36.5905 87.751 36.4122 87.8339 36.2466 87.9767C36.1638 88.0404 36.0905 88.1324 36.0316 88.2464C35.9727 88.3604 35.9296 88.4937 35.9053 88.6372C35.8658 88.954 35.9626 89.2583 36.0441 89.5668C36.3905 90.8381 36.4695 92.2585 36.4848 93.6498C36.4962 94.5857 36.4669 95.5899 36.1269 96.3415C35.4736 97.7908 35.8913 99.9193 36.1358 101.673C36.1651 101.88 36.1995 102.104 36.2199 102.323C36.2414 102.598 36.2512 102.874 36.2491 103.151C36.2491 104.081 36.2173 105.04 35.9779 105.882C36.2143 106.087 36.4748 106.207 36.742 106.234C37.4815 106.387 38.224 106.495 38.9694 106.557C39.203 106.593 39.4385 106.573 39.6686 106.499C39.9419 106.379 40.1827 106.115 40.3532 105.747C40.5236 105.38 40.6139 104.93 40.6097 104.47C40.6505 105.044 40.7256 105.667 40.9816 106.064C41.2376 106.462 41.6107 106.522 41.9584 106.553C42.9397 106.638 43.9235 106.593 44.9003 106.418C44.9626 106.414 45.0239 106.391 45.0811 106.35C45.2696 106.197 45.2798 105.775 45.2645 105.435C45.2365 104.799 45.2072 104.164 45.1601 103.532C45.1202 103.13 45.0997 102.723 45.099 102.315C45.1184 101.895 45.161 101.48 45.2263 101.073C45.397 99.7805 45.532 98.4616 45.4747 97.1386C45.452 96.8163 45.4439 96.4917 45.4505 96.1675C45.4836 95.4367 45.7205 94.741 45.6759 94.0142C45.5485 91.8775 45.4454 89.6849 45.0786 87.6227C45.0124 87.2541 44.9283 86.8587 44.7309 86.6475C44.4762 86.37 44.1183 86.515 43.8267 86.339C43.6899 86.2354 43.5597 86.1099 43.4383 85.9642C43.1744 85.6959 42.8719 85.5446 42.5608 85.5253C42.3265 85.5108 42.0654 85.5957 41.924 85.9021C41.8586 86.0746 41.8153 86.2669 41.7967 86.4673C41.612 87.7303 41.3955 88.9788 41.179 90.2273L40.9714 91.4241L40.4149 94.6375C40.3601 94.9791 40.3971 95.0847 40.341 95.4077Z" fill="#6C63FF"/>
<path d="M43.5972 82.8709L55.9161 103.917V105.702H50.4234L41.166 86.0595" fill="#F1C0C0"/>
<path opacity="0.1" d="M43.5972 82.8709L55.9161 103.917V105.702H50.4234L41.166 86.0595" fill="#1971F4"/>
<path opacity="0.1" d="M41.3621 85.782L41.4016 85.8048L50.5023 103.917H55.9161V105.702H50.4234L41.166 86.0595L41.3621 85.782Z" fill="#1971F4"/>
<path d="M42.7797 86.2251C42.3339 86.5419 41.8385 86.9477 41.7048 87.7096C41.6784 87.8433 41.6727 87.9856 41.6882 88.1237C41.7208 88.2862 41.7829 88.4287 41.8664 88.5326C41.9498 88.6365 42.0507 88.6968 42.1556 88.7055C42.3653 88.7138 42.5739 88.6518 42.7682 88.5233L45.3981 87.1113C45.4694 87.074 45.5509 87.0181 45.5687 86.9042C45.5733 86.8326 45.5644 86.7604 45.5432 86.6972C45.4617 86.3742 45.3815 85.7137 45.2108 85.488C45.0708 85.3058 44.7931 85.37 44.6237 85.3741C43.9717 85.3824 43.3591 85.811 42.7797 86.2251Z" fill="#6C63FF"/>
<path d="M45.1241 87.279C45.5672 87.2769 46.0077 87.388 46.4295 87.6082C46.8532 87.8319 47.2285 88.2487 47.5107 88.8091C47.5929 88.9657 47.6514 89.1515 47.6814 89.3515C47.7069 89.5586 48.122 89.6828 48.0303 89.8236C48.3093 89.7512 48.243 89.9644 48.5258 89.9603C48.8085 89.9561 49.1141 89.8381 49.2835 89.4716C49.4012 89.1706 49.4536 88.8142 49.4325 88.4592C49.4362 88.2134 49.4076 87.9691 49.3485 87.7428C49.2211 87.308 48.9282 87.074 48.6582 86.8732L46.3837 85.1816C46.2517 85.0675 46.1101 84.9859 45.9634 84.9394C45.8399 84.9204 45.7155 84.9253 45.5928 84.9538L44.5625 85.1464C44.7878 85.3835 44.9713 85.7119 45.0947 86.0992C45.2182 86.4866 45.2775 86.9196 45.2668 87.3556" fill="#1971F4"/>
</g>
<defs>
<clipPath id="clip0_309_526">
<rect width="150" height="150" fill="white"/>
</clipPath>
</defs>
</svg>
