<svg width="150" height="150" viewBox="0 0 150 150" fill="none" xmlns="http://www.w3.org/2000/svg">
<path d="M85.3448 84.8778C85.6183 84.8402 85.8819 84.7284 86.1169 84.5504C86.352 84.3723 86.5529 84.1323 86.7054 83.8472C86.8579 83.5621 86.9583 83.2389 86.9997 82.9003C87.041 82.5617 87.0222 82.216 86.9446 81.8874L92.3883 77.048L89.1442 75.4932L84.4722 80.3271C84.0372 80.5261 83.676 80.9168 83.457 81.4251C83.2381 81.9334 83.1765 82.5241 83.2842 83.0851C83.3918 83.6461 83.661 84.1385 84.0408 84.4689C84.4207 84.7993 84.8845 84.9448 85.3448 84.8778Z" fill="#FFB7B7"/>
<path d="M88.3665 81.6904L86.5605 77.8508L86.5988 77.7965L93.8851 67.4724L99.5424 55.4652L104.455 56.2444L104.527 58.0924L104.513 58.12L96.7079 72.7222L96.6997 72.7309L88.3665 81.6904Z" fill="#1971F4"/>
<path d="M112.44 146.648H109.662L108.34 133.311H112.44L112.44 146.648Z" fill="#FFB7B7"/>
<path d="M113.149 150H104.191V149.859C104.192 148.708 104.559 147.605 105.213 146.791C105.866 145.978 106.753 145.521 107.677 145.52H113.149L113.149 150Z" fill="#2F2E41"/>
<path d="M88.5303 146.535L85.8281 145.732L87.0311 132.378L91.0192 133.563L88.5303 146.535Z" fill="#FFB7B7"/>
<path d="M88.5939 150L79.8809 147.41L79.9071 147.273C80.1219 146.154 80.6852 145.186 81.473 144.584C82.2608 143.981 83.2087 143.793 84.1082 144.06L89.4297 145.642L88.5939 150Z" fill="#2F2E41"/>
<path d="M99.3281 49.3688V43.5486C99.3281 41.4801 99.9883 39.4964 101.163 38.0338C102.339 36.5713 103.933 35.7496 105.594 35.7496C107.256 35.7496 108.85 36.5713 110.025 38.0338C111.201 39.4964 111.861 41.4801 111.861 43.5486V49.3688C111.86 49.6464 111.772 49.9124 111.614 50.1087C111.456 50.305 111.242 50.4155 111.019 50.4159H100.17C99.9468 50.4156 99.7329 50.3052 99.5751 50.1089C99.4173 49.9126 99.3285 49.6465 99.3281 49.3688Z" fill="#2F2E41"/>
<path d="M104.047 50.3282C106.585 50.3282 108.642 47.7681 108.642 44.6102C108.642 41.4522 106.585 38.8922 104.047 38.8922C101.51 38.8922 99.4531 41.4522 99.4531 44.6102C99.4531 47.7681 101.51 50.3282 104.047 50.3282Z" fill="#FFB7B7"/>
<path d="M97.8457 44.014C97.8472 42.3784 98.3699 40.8103 99.2992 39.6537C100.228 38.4972 101.488 37.8466 102.803 37.8448H103.738C105.052 37.8466 106.312 38.4972 107.241 39.6537C108.171 40.8103 108.693 42.3784 108.695 44.014V44.1305H106.718L106.044 41.7811L105.909 44.1305H104.888L104.547 42.9452L104.479 44.1305H97.8457V44.014Z" fill="#2F2E41"/>
<path d="M106.726 74.7886L95.0285 74.2346L94.3746 64.7104C93.8704 62.9672 93.8622 61.4692 94.3504 60.2615C94.7703 59.2688 95.4758 58.5099 96.3258 58.1365L98.8854 54.2889C99.2146 53.7944 99.6281 53.3971 100.096 53.1257C100.563 52.8543 101.074 52.7157 101.59 52.7197L108.241 52.7763C108.401 52.6564 109.373 52.0413 111.291 53.0755C113.371 54.1974 112.888 58.0954 112.883 58.1345L112.878 58.1712L112.855 58.1961L108.432 62.8335L106.726 74.7886Z" fill="#1971F4"/>
<path d="M95.1226 73.2112L89.5896 85.7666L85.3945 142.887L90.1343 144.688L98.524 100.005L108.26 143.421L113.942 143.597L110.074 93.4952L106.693 74.0977L95.1226 73.2112Z" fill="#2F2E41"/>
<path d="M96.7567 76.9799C96.6395 76.8593 96.5139 77.0637 96.4762 77.437L95.3253 88.7563C95.2875 89.1303 95.3516 89.5292 95.4686 89.6516L109.782 104.444C109.899 104.565 110.024 104.361 110.062 103.987L111.213 92.6682C111.251 92.2942 111.187 91.8953 111.07 91.7731L96.7567 76.9799Z" fill="#6C63FF"/>
<path d="M109.906 93.5373C110.111 93.3084 110.273 93.0265 110.38 92.7114C110.488 92.3963 110.539 92.0556 110.529 91.7134C110.52 91.3711 110.45 91.0356 110.326 90.7304C110.201 90.4253 110.024 90.1579 109.807 89.947L111.967 82.0671L108.601 83.1552L107.068 90.4709C106.807 90.9479 106.696 91.5273 106.756 92.0994C106.816 92.6714 107.042 93.1962 107.392 93.5743C107.742 93.9524 108.192 94.1575 108.655 94.1508C109.119 94.144 109.564 93.9258 109.907 93.5375L109.906 93.5373Z" fill="#FFB7B7"/>
<path d="M110.871 88.7553L107.605 86.9442L108.702 73.1982L107.681 59.3372L112.04 56.4089L112.964 57.8585V57.8914L113.454 75.4189L113.451 75.4321L110.871 88.7553Z" fill="#1971F4"/>
<path d="M34.0499 53.1618C38.2844 53.1618 41.7171 48.8895 41.7171 43.6194C41.7171 38.3493 38.2844 34.077 34.0499 34.077C29.8155 34.077 26.3828 38.3493 26.3828 43.6194C26.3828 48.8895 29.8155 53.1618 34.0499 53.1618Z" fill="#6C63FF"/>
<path d="M35.6351 50.5596C34.0791 50.5596 32.558 49.9854 31.2642 48.9094C29.9704 47.8335 28.962 46.3043 28.3665 44.5151C27.771 42.7259 27.6152 40.7571 27.9187 38.8576C28.2223 36.9582 28.9716 35.2135 30.0719 33.8441C31.1722 32.4747 32.574 31.5421 34.1002 31.1643C35.6263 30.7864 37.2082 30.9803 38.6458 31.7214C40.0834 32.4625 41.3121 33.7176 42.1766 35.3278C43.0411 36.938 43.5025 38.8312 43.5026 40.7678C43.5002 43.3638 42.6706 45.8527 41.1957 47.6884C39.7207 49.5241 37.721 50.5567 35.6351 50.5596ZM35.6351 31.4748C34.1583 31.4747 32.7147 32.0198 31.4867 33.0409C30.2588 34.062 29.3018 35.5134 28.7366 37.2115C28.1715 38.9096 28.0236 40.7782 28.3117 42.5808C28.5998 44.3835 29.311 46.0394 30.3552 47.3391C31.3995 48.6388 32.7299 49.5238 34.1784 49.8824C35.6268 50.241 37.1281 50.057 38.4925 49.3536C39.8569 48.6502 41.0231 47.4591 41.8435 45.9308C42.664 44.4026 43.1019 42.6058 43.1019 40.7678C43.0997 38.304 42.3123 35.9419 40.9125 34.1997C39.5126 32.4575 37.6147 31.4776 35.6351 31.4748Z" fill="#1971F4"/>
<path d="M31.1929 39C31.1127 39.0639 31.0226 39.106 30.9284 39.1235C30.8343 39.141 30.7382 39.1336 30.6465 39.1016L24.5412 37.2C24.0293 38.0819 23.3419 38.783 22.5465 39.2345C21.7511 39.6859 20.875 39.8722 20.0043 39.7751C19.1871 39.6826 18.4005 39.3427 17.713 38.785C17.0256 38.2273 16.4582 37.4687 16.0604 36.5755C15.6625 35.6822 15.4463 34.6814 15.4306 33.6603C15.4149 32.6391 15.6001 31.6287 15.9702 30.7172C16.3402 29.8056 16.8839 29.0206 17.5536 28.4305C18.2234 27.8404 18.999 27.4633 19.8128 27.3319C20.6266 27.2005 21.4538 27.3189 22.2224 27.6768C22.991 28.0346 23.6775 28.6211 24.2222 29.385C24.6695 30.0144 25.0108 30.7491 25.226 31.5456C25.4413 32.342 25.526 33.1841 25.4753 34.022L31.1256 37.4717C31.2837 37.5629 31.4079 37.7257 31.4729 37.927C31.5379 38.1283 31.5387 38.3528 31.4752 38.5548C31.4217 38.7369 31.3228 38.8929 31.1929 39Z" fill="#1971F4"/>
<path d="M20.4554 36.3873C21.7209 36.3873 22.7467 35.1105 22.7467 33.5355C22.7467 31.9605 21.7209 30.6837 20.4554 30.6837C19.1899 30.6837 18.1641 31.9605 18.1641 33.5355C18.1641 35.1105 19.1899 36.3873 20.4554 36.3873Z" fill="#6C63FF"/>
<path d="M39.0521 20.6409C38.9132 20.751 38.7483 20.799 38.5845 20.7771C38.4109 20.7588 38.2493 20.6588 38.1328 20.4975C38.0163 20.3361 37.9537 20.1255 37.9577 19.9086L37.9633 12.0754C37.2384 11.7151 36.5909 11.1498 36.0719 10.4243C35.5529 9.6987 35.1767 8.83276 34.973 7.89498C34.7694 6.9572 34.7439 5.9733 34.8986 5.02113C35.0532 4.06896 35.3838 3.17466 35.8642 2.40897C36.6684 1.1268 37.8421 0.284572 39.1366 0.0606379C40.4311 -0.163296 41.7448 0.248654 42.7995 1.20924C43.8542 2.16983 44.5671 3.60363 44.7872 5.20701C45.0073 6.81039 44.7174 8.45744 43.9787 9.79937C43.5963 10.4918 43.1061 11.0818 42.5373 11.5344C41.9684 11.987 41.3324 12.2931 40.6669 12.4344L39.3443 20.0927C39.3276 20.2038 39.2931 20.3095 39.2429 20.4037C39.1927 20.4979 39.1278 20.5786 39.0521 20.6409Z" fill="#E6E6E6"/>
<path d="M39.8324 9.10796C41.0978 9.10796 42.1237 7.83118 42.1237 6.25619C42.1237 4.6812 41.0978 3.40442 39.8324 3.40442C38.5669 3.40442 37.541 4.6812 37.541 6.25619C37.541 7.83118 38.5669 9.10796 39.8324 9.10796Z" fill="#CCCCCC"/>
<path d="M63.9774 39.2646C63.3176 39.7982 62.5667 40.1325 61.7846 40.2408C61.0026 40.349 60.2111 40.2283 59.4732 39.8882C58.8408 39.5938 58.2623 39.1446 57.7719 38.5671C57.2814 37.9897 56.8889 37.2957 56.6177 36.5262L50.3275 36.7819C50.1544 36.789 49.9854 36.716 49.8529 36.5771C49.7205 36.4383 49.634 36.2433 49.6102 36.0298C49.5864 35.8163 49.6269 35.5994 49.7239 35.4209C49.8209 35.2423 49.9676 35.1148 50.1356 35.0628L56.2434 33.1747C56.3489 32.2122 56.633 31.2934 57.0731 30.491C57.5132 29.6887 58.0973 29.0249 58.7792 28.5521C59.461 28.0792 60.222 27.8104 61.0018 27.7669C61.7815 27.7233 62.5588 27.9063 63.2719 28.3012C64.0983 28.7587 64.8104 29.4852 65.333 30.4039C65.8557 31.3227 66.1696 32.3999 66.2418 33.522C66.314 34.6442 66.1418 35.7698 65.7433 36.7804C65.3448 37.791 64.7348 38.6492 63.9774 39.2646Z" fill="#E6E6E6"/>
<path d="M61.2327 36.8751C62.4982 36.8751 63.5241 35.5984 63.5241 34.0234C63.5241 32.4484 62.4982 31.1716 61.2327 31.1716C59.9673 31.1716 58.9414 32.4484 58.9414 34.0234C58.9414 35.5984 59.9673 36.8751 61.2327 36.8751Z" fill="#CCCCCC"/>
<path d="M46.2273 64.3223C45.1373 65.2009 43.8165 65.5208 42.5413 65.215C41.2661 64.9091 40.1353 64.0013 39.3857 62.6815C38.636 61.3618 38.3255 59.7323 38.5192 58.134C38.7128 56.5358 39.3956 55.0928 40.4247 54.1068L38.7037 46.5725C38.6563 46.3652 38.6723 46.1433 38.7485 45.9498C38.8247 45.7562 38.9558 45.6046 39.1164 45.5242C39.2771 45.4437 39.456 45.4402 39.6187 45.5142C39.7814 45.5882 39.9163 45.7345 39.9974 45.9249L42.9471 52.8439C43.8162 52.7273 44.6948 52.894 45.4966 53.3275C46.2984 53.7611 46.9958 54.4466 47.5205 55.3168C47.9324 56.002 48.227 56.7851 48.3862 57.6176C48.5454 58.4501 48.5658 59.3143 48.4462 60.157C48.3265 60.9997 48.0693 61.803 47.6905 62.5171C47.3116 63.2313 46.8192 63.8412 46.2436 64.3092L46.2273 64.3223Z" fill="#1971F4"/>
<path d="M43.4925 61.9246C44.758 61.9246 45.7839 60.6479 45.7839 59.0729C45.7839 57.4979 44.758 56.2211 43.4925 56.2211C42.227 56.2211 41.2012 57.4979 41.2012 59.0729C41.2012 60.6479 42.227 61.9246 43.4925 61.9246Z" fill="#6C63FF"/>
<path d="M17.3041 69.075C16.5273 69.7015 15.6268 70.0492 14.7015 70.0799C13.7762 70.1106 12.862 69.8231 12.0596 69.249C11.2571 68.6749 10.5974 67.8365 10.153 66.8259C9.70863 65.8153 9.49682 64.6718 9.54086 63.5211C9.5849 62.3704 9.88309 61.2572 10.4026 60.3037C10.9222 59.3503 11.6429 58.5937 12.4856 58.1172C13.3283 57.6406 14.2603 57.4625 15.179 57.6025C16.0978 57.7425 16.9677 58.1952 17.6931 58.9108L23.1506 55.0099C23.3007 54.9025 23.4775 54.8681 23.6468 54.9133C23.8162 54.9585 23.966 55.0801 24.0676 55.2547C24.1692 55.4292 24.2153 55.6444 24.197 55.8587C24.1787 56.0731 24.0973 56.2714 23.9685 56.4155L19.2877 61.6516C19.6804 62.9858 19.698 64.4462 19.3377 65.7945C18.9774 67.1428 18.2605 68.2992 17.3041 69.075Z" fill="#E6E6E6"/>
<path d="M14.4144 66.7928C15.6799 66.7928 16.7057 65.516 16.7057 63.941C16.7057 62.366 15.6799 61.0893 14.4144 61.0893C13.1489 61.0893 12.123 62.366 12.123 63.941C12.123 65.516 13.1489 66.7928 14.4144 66.7928Z" fill="#CCCCCC"/>
<path d="M10.523 141.026C11.0705 141.265 11.6584 141.325 12.23 141.2C12.8015 141.075 13.3375 140.768 13.7863 140.31C14.9294 139.116 15.2876 137.149 15.5792 135.328L16.4417 129.94L14.6361 131.488C13.3376 132.6 12.0098 133.749 11.1104 135.361C10.2109 136.973 9.81884 139.173 10.5412 140.917" fill="#E6E6E6"/>
<path d="M10.8012 147.923C10.5738 145.862 10.3404 143.775 10.4997 141.693C10.6413 139.843 11.0947 138.036 12.0178 136.555C12.5078 135.77 13.104 135.097 13.7797 134.568C13.9557 134.429 14.118 134.777 13.9425 134.914C12.7734 135.834 11.8692 137.192 11.3603 138.793C10.7982 140.572 10.7078 142.512 10.8048 144.402C10.8633 145.546 10.9875 146.682 11.1127 147.816C11.1225 147.867 11.1164 147.921 11.0954 147.967C11.0745 148.013 11.0404 148.047 10.9999 148.063C10.9586 148.077 10.9147 148.07 10.8775 148.044C10.8403 148.017 10.813 147.974 10.8014 147.923L10.8012 147.923Z" fill="#F2F2F2"/>
<path d="M12.4375 144.616C12.6723 145.061 12.9951 145.422 13.3747 145.666C13.7544 145.91 14.1781 146.028 14.605 146.009C15.7022 145.944 16.6169 144.991 17.4405 144.086L19.876 141.41L18.2642 141.314C17.1051 141.244 15.916 141.18 14.8118 141.625C13.7076 142.07 12.6895 143.141 12.488 144.563" fill="#E6E6E6"/>
<path d="M10.1599 149.108C11.2539 146.698 12.5238 144.021 14.7905 143.165C15.421 142.928 16.0821 142.843 16.7382 142.915C16.945 142.938 16.8935 143.334 16.687 143.312C15.5873 143.198 14.4896 143.559 13.5787 144.334C12.7225 145.107 11.9967 146.082 11.4424 147.204C11.0886 147.874 10.7717 148.573 10.4548 149.271C10.3534 149.494 10.0575 149.333 10.1599 149.108Z" fill="#F2F2F2"/>
<path d="M134.264 141.392C133.696 141.687 133.077 141.795 132.467 141.706C131.856 141.617 131.274 141.333 130.777 140.883C129.509 139.706 129.034 137.652 128.636 135.748L127.461 130.113L129.447 131.614C130.875 132.692 132.335 133.807 133.365 135.445C134.395 137.082 134.918 139.38 134.238 141.279" fill="#6C63FF"/>
<path d="M134.078 149.034C134.33 145.063 134.548 140.596 132.395 137.303C131.796 136.388 131.062 135.625 130.233 135.053C129.972 134.872 129.777 135.397 130.037 135.578C131.423 136.544 132.499 138.075 133.085 139.913C133.651 141.678 133.797 143.592 133.778 145.478C133.767 146.632 133.693 147.784 133.62 148.935C133.596 149.302 134.054 149.406 134.078 149.034Z" fill="#F2F2F2"/>
</svg>
