<?xml version="1.0" encoding="UTF-8"?>
<svg version="1.1" viewBox="0 0 1408 1408" width="1280" height="1280" xmlns="http://www.w3.org/2000/svg">
<path transform="translate(232,279)" d="m0 0h6l3 3 9 27 7 25 5 13 5 10-2 4-1 1-1 7v10l13 37 15 39 11 24 15 29 15 35 15 42 12 37 13 33 13 32 13 30 11 25 8 17 8 19 3 13 2 10 2-3 3-25 2-27 1-28 1-47v-68l-1-54-3-63-3-35-3-16-7-23v-3l30-2 95-6 31 3 15 4 21 9 11 7 14 12 9 10 9 13 9 16 6 14 6 21 1 5 1 17v38l-2 20-7 31-8 20-12 22-14 19-19 19-19 12-23 10-23 6-6 1h-21l-18-2h-10v22l3 59 3 33 7 31 4 13v8l-6 9-4 3h-2l-2 5-1 5 3 10 9 16 11 17 14 22 13 19 10 14 26 36 11 14 14 19 13 16 12 14 15 15 14 10 15 8 19 7 24 5 15 2 13 1h44l17-2 20-4 13-5 16-9 11-9 9-10 10-14 5-10 3-10 2-12 4-11 6-9 4-14 3-141v-17l-1-4-1-45-3-25-2 2-5 12-10 19-7 12-9 11-11 12-11 10-18 11-18 8-21 6-14 2h-23l-11-3-10-5-9-8-6-12-3-12v-14l4-17 5-13 6-9 3-1 21 9 13 4 7 1h17l15-3 12-5 11-8 8-10 4-8 3-13 1-13-2-15-4-12-7-14-8-12-8-10-12-14-8-8-7-8-13-14-9-11-14-18-9-14-7-12-7-17-5-20-1-9v-12l3-24 4-17 9-21 8-14 8-11 9-12 9-10 12-12 13-10 10-7 21-11 18-5 17-2 18 1 14 4 8 5 7 8 5 11 1 5v23l-3 12-6 12-4 6-3 1-21-7-15-2h-19l-18 3-10 4-14 11-8 11-5 11-3 17v23l3 15 9 17 13 16 14 15 11 12 10 11 18 22 12 17 8 14 8 15 7 11 3 1 1-6v-33l1-16v-57l-1-53-1-19 2-8 7-6 15-7 17-4 22-2 21-1h54l20 2 21 5 25 9 27 11 16 8 24 15 9 8 2 5 1 20v33l-1 5v11l1 3v22l-1 11v12l1 1v31l-1 7 1 43-1 4v11l1 3v41l1 5-1 37 1 34 1 84 1 24 2 16-1 13-5 19-7 23-6 17-10 26-8 18-8 21-7 12-7 11-12 27-7 10-10 14-10 18-4 8-5 5-13 10-4 2v2l-8 7-2 3h-2l-2 4-8 9-16 11-15 7-13 5h-2l-2 5-11 17-7 9-6 3-25 3-10 4-6 4-16 12-11 4-16 3-31 3-31 6h-118l-36-12-28-12-23-12-19-14-14-12-12-9-15-14-13-12-12-12-7-8-11-12-10-13-8-14-18-40-15-30-14-32-11-27-9-29-13-49-9-29-16-50-10-28-12-28-5-13-5-10-3-8-5 10-7 9-11 8-11 3h-13l-8-4-7-6-9-14-8-16-11-27-13-37-8-25-5-20-4-9-1-1-19 1-27 1h-29l-33-1h-29l-12 36-7 22-13 50-3 16-2 24-3 7-3 2h-25l-10-3-10-7-5-7-4-12v-18l4-17 13-38 7-20 18-46 20-52 11-29 6-16 8-21 15-38 15-42 17-48 5-16 1-9-7-11-8-11-2-3 1-7 7-12 12-13 9-6 13-2 7 2 10 9 7 10 9 17 9 23 9 29 9 27 3 10 6 19 12 40 8 27 38 114 10 26 9 25 10 26 11 24 12 26 9 14 1 3 1-8-4-15-14-43-7-21-10-27-12-31-12-36-8-22-12-30-13-34-13-40-6-20-11-33-13-35-11-27-8-21-6-16-7-28v-15l4-8 4-4-9-4-1-1 1-9 9-24 8-26 6-15zm3 59-10 1-2 3-3 14 2 1 3-2v-2l10-2 1-3 5 5 6 2-1-6-4-10zm278 130-11 2-2 2-1 68-2 89v28l3 5 7 2h20l24-3 15-5 14-8 13-13 7-10 8-16 4-14 3-20v-34l-3-19-6-17-7-10-8-9-13-9-10-5-20-4zm-326 79-5 5-7 24-7 20-8 22-8 26-11 35-2 7 1 5 15 1h74l3-1v-11l-7-25-13-42-15-47-4-12-3-6z" fill="#987139"/>
<path transform="translate(875,399)" d="m0 0 18 1 14 4 8 5 7 8 5 11 1 5v23l-3 12-6 12-4 6-3 1-21-7-15-2h-19l-18 3-10 4-14 11-8 11-5 11-3 17v23l3 15 9 17 13 16 14 15 11 12 10 11 18 22 12 17 8 14 8 15 7 11 3 1 1-6v-33l1-16v-110l5-3 6 1 12 3 5 3 7 2 8 3 12 6 5 2 3 2 13 4 4 3 4 1 11 5 5 2 9 4 3 3 14 1 11 4-1 6h-8l-7-5-6-2h-12l-2 4-1 4-1 22-1 1-9-1-17-6-14-6-16-8-15-7-10-2 5 5 1 3 5 2 14 6 32 16 8 3 12 4 7 2 5 4 1 2-1 9-1 5v19l-3 5h-10l-12-4-5-4-7-2 1 4 8 5 16 5 9 5 9 9-1 5-2 12 1 13-2 5h-8l-12-3-28-14-11-6-8-3v-2l-4-1-8-4-9-3-7-2 5 3v2h2v3l6 2 14 8 32 16 15 7 15 6 7 3 4 4 1 9-1 4 1 6v13l-1 3h-7l-18-6-12-5-15-8-8-4-1-3-11-3-5-2-11-6v-2l-8-1-6-2 3 3 17 9 3 3 10 6 10 5 6 6v2l11 3 9 4 11 4 15 6 6 5v8l-2 8v8l1 5-2 3h-7l-10-4-15-7-16-8-5-3-4-5-7-1-14-8-21-9 2 9h7l15 9 22 12 8 4 11 7 17 8 9 2 8 4 10 4v2l5 1v7l-3 8v10l1 11-5 3 1 3 2 1v2h8l1-1v-6l5-6 8-2 2 4h2l6 15 4 1-1 3-5 1-3 6v6l2 7 1 4v9l2 6 23 3 8-3 14-3 15-7 11-2 9-2 6-1 3 3-4 4-3 2-15 3-4 2-1 2-10 4h-5l-5 2-7 2h-17l-13 2-5 2-2 5-2 4v8l4 10 2 14-3 5v18l2 10-2 9-3 8-3 7-1 7-3 9-1 1h-6l-4-3-6-2-11-5-12-5-2-2-9-2-8-5-4-4-9-6-5-5-24-16-13-10-21-12-5-3v-50l1-46v-17l-1-4-1-45-3-25-2 2-5 12-10 19-7 12-9 11-11 12-11 10-18 11-18 8-21 6-14 2h-23l-11-3-10-5-9-8-6-12-3-12v-14l4-17 5-13 6-9 3-1 21 9 13 4 7 1h17l15-3 12-5 11-8 8-10 4-8 3-13 1-13-2-15-4-12-7-14-8-12-8-10-12-14-8-8-7-8-13-14-9-11-14-18-9-14-7-12-7-17-5-20-1-9v-12l3-24 4-17 9-21 8-14 8-11 9-12 9-10 12-12 13-10 10-7 21-11 18-5z" fill="#697781"/>
<path transform="translate(999,512)" d="m0 0h54l20 2 21 5 25 9 27 11 16 8 24 15 9 8 2 5 1 20v33l-1 5v11l1 3v22l-1 11v12l1 1v31l-1 7 1 43-1 4v11l1 3v41l1 5-1 37 1 34 1 84 1 32h-6v-3l-12 2v2l2 1-8 8h-2v2l-10 8-10 6-13 5-6 4-5 5-7 4-7 8-12 5-21 2-5-2-4-3-8 1-10 2-3 3-11 1-2 4-3 1h-7l2 4-7 2h-11l-16-4-10-5-9-6-9-5-9-1-9-5v-2l-5-2-10-6-12-6-12-5 1-8 1-49 2 4 7 4 15 8 12 9 10 7 12 8 11 8 4 4 9 6v2l5 2 5 3 7 1 8 5 10 4 8 4 7 2 2 2h6l3-9 2-11 4-7 3-10-1-10-1-3v-18l3-5-2-14-4-10v-8l5-9 5-3 14-2h16l10-3 7-1 7-3h3l1-3 7-3 12-2 5-3 1-3-4-1-10 2-9 2-9 3-11 5-14 3-9 3-20-3-3-3-2-5v-8l-2-10-1-1 1-9 5-5h3l1-2-5-1-5-12v-3h-2l-2-3-8 2-4 5v6l-2 2h-6l-2-1v-2l-3-1-1-4 5-2-1-11v-10l3-8 1-7-5-1v-2l-9-2-5-3-6-3-10-2-19-10-11-7-16-8-18-10-6-4-7-1-2-6v-3l6 1 5 3 10 4 14 8 8 1 3 4v2l5 2 16 8 19 9 6 2 7 1 1-5-1-3v-8l2-8v-8l-9-6-20-7-9-4-10-3-10-10-16-8-6-4v-2l-6-2-14-8v-2l6 1 8 2v2l6 2 6 4 13 4 6 5 19 9 7 4 10 4 12 3 9 2v-16l-1-7 1-8-2-6-5-3-14-5-18-8-32-16-13-7-9-5v-3h-2v-2l-4-1-2-2 3-1 16 6 10 5v2l10 3 18 10 12 5 10 5 17 3 1-11-1-7 2-12 1-5-5-5-6-5-9-4-15-5-8-5 1-5 7 2 7 5 10 3h10l2-4v-19l2-8v-6l-5-5-16-5-10-3-5-3-16-8-21-10-10-5-5-5-1-3 10 1 30 14 10 5 18 7 8 2h5l1-22 2-5 4-4h10l9 4 4 3 8 1 1-6-5-1-6-2-14-1-3-2v-2l-9-3-5-2-13-6-4-2-10-4-7-2-2-2-10-4-9-4-7-3-9-3-7-2-8-3-7 1-3 1-1-19 2-8 7-6 15-7 17-4 22-2z" fill="#748089"/>
<path transform="translate(546,401)" d="m0 0 25 2 16 3 16 6 16 8 11 8 10 9 7 8 9 12 10 18 6 14 6 21 1 5 1 17v38l-2 20-7 31-8 20-12 22-14 19-19 19-19 12-23 10-23 6-6 1h-21l-18-2h-10v22l3 59 3 33 7 31 3 10v7l-10 7-14 8-13 5-6 1h-12l-8-3-6-4-7-8-4-11-2-16v-32l1-36 2-28 2-27 1-28 1-47v-68l-1-54-3-63-3-35-3-16-7-23v-3l30-2zm-33 67-11 2-2 2-1 68-2 89v28l3 5 7 2h20l24-3 15-5 14-8 13-13 7-10 8-16 4-14 3-20v-34l-3-19-6-17-7-10-8-9-13-9-10-5-20-4z" fill="#073455"/>
<path transform="translate(180,404)" d="m0 0 10 2 10 9 7 10 9 17 9 23 9 29 9 27 3 10 6 19 12 40 8 27 38 114 10 26 9 25 10 26 11 24 12 26 9 14 1 3v7l-7 11-4 5-11 8-11 3h-13l-8-4-7-6-9-14-8-16-11-27-13-37-8-25-5-20-4-9-1-1-19 1-27 1h-29l-33-1h-29l-12 36-7 22-13 50-3 16-2 24-3 7-3 2h-25l-10-3-10-7-5-7-4-12v-18l4-17 13-38 7-20 18-46 20-52 11-29 6-16 8-21 15-38 15-42 17-48 5-16 1-9-7-11-8-11-2-3 1-7 7-12 12-13 9-6zm7 143-5 5-7 24-7 20-8 22-8 26-11 35-2 7 1 5 15 1h74l3-1v-11l-7-25-13-42-15-47-4-12-3-6z" fill="#073555"/>
<path transform="translate(232,279)" d="m0 0h6l3 3 9 27 7 25 5 13 1 7 1 3-5 1h-9l-4-6-4-11v-2l-17 1-4 16 11-3 5 4v11l-1 3v3l2 9-1 5 3 1 1 9 1 7 1 12 3 10 2 9 5 18 4 8 1 5 2 1 2 8 3 5 1 5 3 8 1 7 2 1 1 5 1 4 5 14 3 8 3 5 1 7h2l2 10 2 5 4 18 2 7 1 7 3 8 3 9 2 4 1 4h3v2h-2l3 5v5l3 9 2 5 1 8 2 2 1 5 2 2-1 6 5 14 2 2-1 4h2l2 9 1 1 2 12 3 5 1 11 6 18 2 4v3l4 11 6 15 1 5h2l3 9 4 8 3 11 2 6 1 5 3 2-2 2 3 7v2h2l-1 4h2l3 13 2 6 2 9v6h2l2 6 2 2v2l3 12v6h2l4 8 2 2 1 7 3 9 1 5 2 1 3 11 3 5v3l2 1 5 14 3 14h2v5l3 7 3 11 4 10 3 6 1 3 2 9 2 6 5 18 1 7 2 1 2 7 1 3v3l3 10 4 14 3 6 2 7h2l2 6 2 1 3 6 7 11 2 4 9 9 4 7 3 5 3 4v2h2l2 5h2v3l3 1 1 4h2v3h2l1 5 3 1 5 10 2 1v2h2l3 5 1 3h2l2 6h2v4h2v3l3 1 6 9 2 4 3 3 7 8 3 7 6 8v3l2 1 5 10v5h2l2 5 2 8 10 10 1 3 3 1 1 4 5 2v3l5 2 2 2 5 2 3 3 7 3 7 4 8 6 10 5v2l10 3 9 4h13l11 3h5l3 1 9 2 8 1 10 4 2 2 11 1v2l7 1 22 5 20 7h2v2l10 1 16 2 27-2 11-4 17-3 9-1 9-2 6-2 14-7h3v-2l6-4 4-4 7-4 6-2 9-1 13-6 5-4h2l2-4 4-2v-2l15-15 9-6h3l2-4 8-4h2v-2l8-6 7-8 3-3 4-8 9-6 12-6 2-3 3-1 6-14 2-11 1-6 4-1v-2l8-7 8-11 5-13 2-3h2l2-4 3-1 2-5 2-3h2l2-5 4-9 6-17 4-9 2-4 2-2 6-8 6-4h7l10 4 4 1 4 7-2 10-11 28-7 12-7 11-12 27-7 10-10 14-10 18-4 8-5 5-13 10-4 2v2l-8 7-2 3h-2l-2 4-8 9-16 11-15 7-13 5h-2l-2 5-11 17-7 9-6 3-25 3-10 4-6 4-16 12-11 4-16 3-31 3-31 6h-118l-36-12-28-12-23-12-19-14-14-12-12-9-15-14-13-12-12-12-7-8-11-12-10-13-8-14-18-40-15-30-14-32-11-27-9-29-13-49-9-29-16-50-10-28-12-28-5-13-5-10-3-8-1-2 1-10-4-15-14-43-7-21-10-27-12-31-12-36-8-22-12-30-13-34-13-40-6-20-11-33-13-35-11-27-8-21-6-16-7-28v-15l4-8 4-4-9-4-1-1 1-9 9-24 8-26 6-15z" fill="#6B4823"/>
<path transform="translate(875,399)" d="m0 0 18 1 14 4 8 5 7 8 5 11 1 5v23l-3 12-6 12-4 6-3 1-21-7-15-2h-19l-18 3-10 4-14 11-8 11-5 11-3 17v23l3 15 9 17 13 16 14 15 11 12 10 11 18 22 12 17 8 14 8 15 3 5 3 9 4 9 2 18 1 15v11l-4 24-3 9-5 12-10 19-7 12-9 11-11 12-11 10-18 11-18 8-21 6-14 2h-23l-11-3-10-5-9-8-6-12-3-12v-14l4-17 5-13 6-9 3-1 21 9 13 4 7 1h17l15-3 12-5 11-8 8-10 4-8 3-13 1-13-2-15-4-12-7-14-8-12-8-10-12-14-8-8-7-8-13-14-9-11-14-18-9-14-7-12-7-17-5-20-1-9v-12l3-24 4-17 9-21 8-14 8-11 9-12 9-10 12-12 13-10 10-7 21-11 18-5z" fill="#073455"/>
<path transform="translate(999,512)" d="m0 0h54l20 2 21 5 25 9 27 11 16 8 24 15 9 8 2 5 1 20v33l-1 5v11l1 3v22h-1l-1-20h-4l-1 8-1 18-3 11-6 3-18 2-17 3-28 4-15 4-11 2-16 2-9 1-7-2-4-6-3-27-6-1-2-3-2-1-4 24-3 5-8 5h-7l-14-7-15-5-8-5 1-5 7 2 7 5 10 3h10l2-4v-19l2-8v-6l-5-5-16-5-10-3-5-3-16-8-21-10-10-5-5-5-1-3 10 1 30 14 10 5 18 7 8 2h5l1-22 2-5 4-4h10l9 4 4 3 8 1 1-6-5-1-6-2-14-1-3-2v-2l-9-3-5-2-13-6-4-2-10-4-7-2-2-2-10-4-9-4-7-3-9-3-7-2-8-3-7 1-3 1-1-19 2-8 7-6 15-7 17-4 22-2z" fill="#74808A"/>
<path transform="translate(401,800)" d="m0 0 8 1 2 9h5l4 13 2 7 2 5 1 5v9l1 12v20l3 14 1 5h2l4 5 16 7 7 2h15l15-3h8l-1 5-5 6-1 4-2 2-2 1v4l2 1 2 4 3 7 2 2 6 12 2 2v6h2l2 9h2l8 16 5 9 1 4 3 7 3 11 1 4 3 11 3 16 2 9 3 10 12 36 4 6 8 16 5 9v2h2l8 16 6 10v3l6 3 4 7 3 4v2h2l5 6 3 6 5 5v2l3 1 3 5 5 6 4 2 4 6 7 8 6 5 8 4 2 5h2v2h2l4 4 4 2v2l4 1 4 3 7 3 7 4 15 5 11 4 16 3 12 4 16 1 6 2v6l-10 7-11 6-5 2v2l-7 2v2l-12 6h-11l-8-6-1-2-23-11-8-6v-2l-5-2-7-4-8-3-7-2-9-2-7-4-15-2-6-6v-2l-5-2-7-8-10-2-5-6-5-5-5-6-5-5-10-13-3-6v-2h-2l-1-5h-2l-6-13-6-10-2-5v-3h-2l-2-7-6-9-5-12v-3h-2l-4-9-7-14-5-14-2-6-6-16-1-4-5-15-3-7-1-7-2-4-4-12v-5h-2l-2-7h-3l-3-6-1-3h-3l-6-13-3-12-4-15v-13l-3-6-1-8-3-2v-6l-3-1-4-10-3-12-5-13-2-8v-7l-4-2-4-11-2-5-2-6-4-8-4-18-4-12-2-16v-8l1-3z" fill="#876130"/>
<path transform="translate(926,793)" d="m0 0 8 2 5 5-6-2-7-3 2 9h7l15 9 22 12 8 4 11 7 17 8 9 2 8 4 10 4v2l5 1v7l-3 8v10l1 11-5 3 1 3 2 1v2h8l1-1v-6l5-6 8-2 2 4h2l6 15 4 1-1 3-5 1-3 6v6l2 7 1 4v9l2 6 23 3 8-3 14-3 15-7 11-2 9-2 6-1 3 3-4 4-3 2-15 3-4 2-1 2-10 4h-5l-5 2-7 2h-17l-13 2-5 2-2 5-2 4v8l4 10 2 14-3 5v18l2 10-2 9-3 8-3 7-1 7-3 9-1 1h-6l-4-3-6-2-11-5-12-5-2-2-9-2-8-5-4-4-9-6-5-5-24-16-13-10-21-12-5-3v-50l1-46v-17l-1-4-1-49 5 4 9 3 9 5 16 9 11 6 16 10 19 10 24 12 9 1-2-6v-13l3-8 1-4h-2v-2l-6-2-10-6-13-4-21-9-12-7-5-2v-2l-3-1v-2l-5-2-14-8-11-5-7-1-3-3v-7z" fill="#70777D"/>
<path transform="translate(232,279)" d="m0 0h6l3 3 9 27 7 25 5 13 1 7 1 3-5 1h-9l-4-6-4-11v-2l-17 1-4 16 11-3 5 4v11l-1 3v3l2 9-1 5 3 1 1 9 1 7 1 12 3 10 2 9 5 18 4 8 1 5 2 1 2 8 3 5 1 5 3 8 1 7 2 1 1 5 1 4 5 14 3 8 3 5 1 7h2l2 10 2 5 4 18 2 7 1 7 3 8 3 9 2 4 1 4h3v2h-2l3 5v5l3 9 2 5 1 8 2 2 1 5 2 2-1 6 5 14 2 2-1 4h2l2 9 1 1 2 12 3 5 1 11 6 18 2 4v3l4 11 6 15 1 5h2l3 9 4 8 3 11 2 6 1 5 3 2-2 2 3 7v2h2l-1 4h2l3 13 2 6 2 9v6h2l2 6 2 2v2l3 12v6h2l4 8 2 2 1 7 3 9 1 5 2 1 3 11 3 5v3l2 1 5 14 3 14h2v5l3 7 3 11 4 10 3 6 1 3 2 9 2 6 5 18 1 7 2 1 2 7 1 3v3l3 10 4 14 3 6 2 7h2l2 6 2 1 3 6 7 11 2 4 9 9 4 7 3 5 3 4v2h2l2 5h2v3l3 1 1 4h2v3h2l1 5 3 1 5 10 2 1v2h2l3 5 1 3h2l2 6h2v4h2v3l3 1 6 9 2 4 3 3 7 8 3 7 6 8v3l2 1 5 10v5h2l2 5 2 8 10 10 1 3 3 1 1 4 5 2v3l5 2 2 2 5 2 3 3 7 3 7 4 8 6 10 5v2l10 3 9 4h13l11 3h5l3 1 9 2 8 1 10 4 2 2 11 1v2l7 1 22 5 20 7h2v2l10 1 16 2 27-2 11-4 17-3 9-1 9-2 6-2 14-7h3v-2l6-4 4-4 7-4 6-2 9-1 13-6 5-4h2l2-4 4-2v-2l15-15 9-6h3l2-4 8-4h2v-2l8-6 7-8 3-3 4-8 9-6 12-6 2-3 3-1 6-14 2-11 1-6 4-1v-2l8-7 8-11 5-13 2-3h2l2-4 3-1 2-5 2-3h2l2-5 4-9 6-17 4-9 2-4 2-2 6-8 6-4h7l10 4 4 1 4 7-2 10-2 2v-8l-3-7-9-1-7 2-5 5-5 8-4 8-1 11-3 8-4 7-5 5-6 7h-2l-2 7-7 11-1 4-5 5-5 6-5 5-8 16-1 4-2 6-3 7-5 5h-2l-1 4-4 1v2l-9 4-7 5h-2v2h-2l-2 4-4 6-13 13-11 8-5 1v2l-7 4-8 6-6 7-4 4h-2v3l-7 6h-2l-1 3-9 4-9 2-8 2-6 3-9 6-8 6-10 6-14 4h-7l-2 1-11 1-3 1h-8v2l-9 2-20 3-7 2-20-3-8-2-17-4-4-1v-2l-12-1-21-5-6-2-25-5-7-2-16-2-21-4-8-4-9-6-4-2-1-4-7-1-5-5-8-4-7-2v-2l-6-2-1-3-5-2-4-1-3-4v-2l-6-2-2-3-3-1-5-5-4-5-2-2-2-4 1-2-3-1-2-7h-2l-5-6-4-8-3-8-4-8-2-6-4-6v-2h-2l-3-6-1-3-3-1-5-7v-2h-2l-3-6v-3h-2l-5-9-8-9-6-11-5-5-1-5-3-1v-3l-3-1-5-9-5-6-4-5-11-17-5-8-5-9-2-7-2-1-3-10-2-5-3-9-2-10-3-10-1-6-4-13-3-13-5-17-3-7-2-9-4-10-2-6-2-9-1-4h-2v-4l-2-2 1-5-3-1-5-15-6-11-2-9-4-6-2-9-2-5-3-8-2-2 1-2-3-5-4-12-5-1-2 1 1 10-2 3-3-8-1-2 1-10-4-15-14-43-7-21-10-27-12-31-12-36-8-22-12-30-13-34-13-40-6-20-11-33-13-35-11-27-8-21-6-16-7-28v-15l4-8 4-4-9-4-1-1 1-9 9-24 8-26 6-15z" fill="#886231"/>
<path transform="translate(929,704)" d="m0 0 7 2 13 5 8 4v2l10 3 18 10 12 5 10 5 17 3 1-11-1-7 1-9 4-6 8 1 5 8 3-1 2 2v-2h3l-1-2 6-2v2h2l1 3v13l1 22 1 4h-2l1 4-1 2 38-1 15-2 16-3 7-2 10-2 1-1 20-3 16-3h5l1 3-1 30-2 2-31 8h-4v2l-19 6-13 3h-5v2l-10 2-5 3-11 1 1 2 9 1 15-1 16-4 23-5 2-1 14-1 17-3 3 1v28l-2 3-15 5-27 7-10 2v2l-5 2-9 2-10 3-18 5-4 1h-8l-11-2-4-5-4-16-2-2-7-1-7 13-5 3-3-2-2-11v-15l3-4-1-4-2-1-1 6-1 11 1 15-4 2 9 3-1 5-4 1-7-3-10-5-10-2-19-10-11-7-16-8-18-10-6-4-7-1-2-6v-3l6 1 5 3 10 4 14 8 8 1 3 4v2l5 2 16 8 19 9 6 2 7 1 1-5-1-3v-8l2-8v-8l-9-6-20-7-9-4-10-3-10-10-16-8-6-4v-2l-6-2-14-8v-2l6 1 8 2v2l6 2 6 4 13 4 6 5 19 9 7 4 10 4 12 3 9 2v-16l-1-7 1-8-2-6-5-3-14-5-18-8-32-16-13-7-9-5v-3h-2v-2l-4-1-2-2z" fill="#7A7E81"/>
<path transform="translate(1015,1147)" d="m0 0 11 3 9 1 6 4 7 7 12 5 8 1h15l5 4v2l4 1v10l-1 7-7 4-15 5-10 4-5 5 2 5 9 3 3 4-1 5h-2l-2 4-1 1h-5l-7-5v-2l-12-1-7 3-2 4 3 10v5l-4 1-8-5-13 1-16 4-2 2-1 8-3 5-2 4-10 6-14 2-3 3-1 5v10l-2 6-11 5-10 4-4 2h-7l-3-1-9 6-3 4h-2v2l-7 7-10 2-2 5-3 3v4l2 1 1 10-4 1-5-7-5-11-11-4-7-4h-9l-15 3-5 3-7 6-2 4h-2v-2h-2l-3-5-2-9-4-3v-2l-3-1-6-16-2-7 3-5 13-13 1-4v-19l2-4 4 1 4 7v10h-2l-2 5h6l3 2v2l6 2 5 3 6 4h10l9-4 4-1 1-4 6-5v-2h-2l-3-7v-5l1-1h5l5 4 2 6 1 7 8 4 11 3 7-1 4-5 1-3 3-2 5-11 6-3h16l3-5h2l1-8 1-7 15-5 1-6-3-5-7-8-5-8-5-5 2-4 15-1 11 2 8 4 9 2 5-2 1-7-5-5-10-4-3-6 1-3h8l7-1 3 1 5 5 6 2h9l6-3v-6l-4-6-3-3-6-13 1-5z" fill="#876130"/>
<path transform="translate(1176,844)" d="m0 0 8 1 2 2v32l-1 7 2 3 1 16-2 16-2 4h-2v5l3 1 2 6v23l-1 7-2 6 2 7-7-1-8 2-10 5-12 4-13 5-17 5-8 3-8 1-23 1-6 3-2 2 1-11-4-8-1-13 1-12 1-5 3-2 14-2h16l10-3 7-1 7-3h3l1-3 7-3 12-2 5-3 1-3-4-1-10 2-9 2-9 3-11 5-14 3-9 3-8-3-10-2-4-6-1-14-1-8 2-5 2-2 4-1 24-1 14-5h2l1-4h-8l-16 4h-3v-2h-15l-5-3-3-8-4-18 3-7 8-3 32-2 15-3 23-6 29-9z" fill="#737F89"/>
<path transform="translate(1068,962)" d="m0 0 2 1v8l-1 8 1 12 4 8-1 9 4-3 3-1 23-1 12-2 16-6 10-3 17-6 9-4 6-3 11-1 3 5 1 22 6-2 3-9 1-10h1l1 9 1 32h-6v-3l-12 2v2l2 1-8 8h-2v2l-10 8-10 6-13 5-6 4-5 5-7 4-7 8-12 5-21 2-5-2-4-3-8 1-10 2-3 3-11 1-2 4-3 1h-7l2 4-7 2h-11l-16-4-10-5-9-6-9-5-9-1-9-5v-2l-5-2-10-6-12-6-12-5 1-8 1-49 2 4 7 4 15 8 12 9 10 7 12 8 11 8 4 4 9 6v2l5 2 5 3 7 1 8 5 10 4 8 4 7 2 2 2h6l3-9 2-11 4-7 3-10-1-10-1-3v-18l3-5-2-14-4-10v-8z" fill="#7A7E81"/>
<path transform="translate(1192,1021)" d="m0 0 4 1-1 3h7l1 14-3 16-10 33-6 17-10 26h-1l-1-6-6-5-4-1-3-2-1-3-1-11h-7l-3 3h-2v2h-2l-2 4-4 3-3 5-4 3-6 1-8-2-5-5-2-4h-7l-16 4-15 3-14 2-12 2-5 1-12 3-9 4-13 4-9-1-10-4-7-5-9-4-9-2-6-3-11-5-6-3-7-4-4-1-20-1-1-1-9-1-1 4-4 4-4 6-2-1 7-11 5-15 2-12 4-11 6-9 2-6 7 1 8 4 15 8 10 6v2l6 2 6 3h6l20 12 8 4 16 4h11l6-2-1-3 10-1 1-5 12-1 3-3 13-3 7 1 3 3 7 1 18-2 12-5 7-8 7-4h2l2-4 5-4 11-5 8-3 8-6 6-5h2v-2l8-7v-4z" fill="#AD8758"/>
<path transform="translate(999,512)" d="m0 0h54l20 2 21 5 25 9 27 11 16 8 24 15 9 8 1 4-26 3-36 3-34 4-16 1-23-2-48-7-11-3-21-9-34-15-19-8-12-6 3-5 9-6 14-6 14-3 22-2z" fill="#D7D8D9"/>
<path transform="translate(232,279)" d="m0 0h6l3 3 9 27 7 25 5 13 1 7 1 3-5 1h-9l-4-6-4-11v-2l-17 1-4 16v3l4-2 4 1v6l1 3-1 5v6l2 1h-2l2 7 1 2h-2l2 4 2 11 1 5 2 8 2 11 2 7 4 11 2 6 3 7 4 12 3 5 2 7 2 5 2 4 4 13 4 10 1 5 3 8 3 9 4 10 3 9 4 16 1 7h2l1 5 2 9 2 6v2l3 1-1 4 2 1v8l3 3 2 14 1 3-1 2h2l1 8h2l-1 5h2l3 11 3 10 4 9 1 6 2 5 1 7 2 1 3 10-2 3h2l3 10 1 3v3l1 7h2v2l2 1 1 6-2 1 1 3h2l2 4 1 8 4 1v3h-2l5 10 1 6 4 11 4 10v2h2l2 11 2 3 2 7 4 6-1 4 3 3v2h2l1 4v12l2 3-1 3h2v7l-5-2-2-4h-2l-14-42-7-23-13-35-12-31-12-36-8-22-12-30-13-34-13-40-6-20-11-33-13-35-11-27-8-21-6-16-7-28v-15l4-8 4-4-9-4-1-1 1-9 9-24 8-26 6-15z" fill="#6C4923"/>
<path transform="translate(909,1112)" d="m0 0 8 1 11 3 6 9 7 3 7 5v9l-9 9-11 6-15 10-8 7-2 4h-2l-1 4-5 5-5 9-6 3h-8l-7-1-18 4-16 8-11 6-8 2-13 2-8 2-13 1-13-1-14-3-8-4-5-5-9-6-1-7 1-3h2v-2l7-4 13-3 9 1 14 1 12-3 8-5 30-4 10-5 4-4h2l1-2 3-1v-2l14-11 1-2 14-8h2l2-5 8-8 1-2h2l2-4 8-6z" fill="#886231"/>
<path transform="translate(908,718)" d="m0 0 4 5 5 11 3 8 2 24-1 12 2-1 2-11 2-8 7 1 6 3 7 2 3 3 10 6 10 5 6 6v2l11 3 9 4 11 4 15 6 6 5v8l-2 8v8l1 5-2 3h-7l-10-4-15-7-16-8-5-3-4-5-7-1-14-8-11-6-4-3-6-1-1 3v7l5 3 5 1 11 5 18 10 3 3v2l5 1 12 7 23 10 11 3 16 9v2h2l-1 8-2 4v13l1 1v5h-9l-11-6-13-6-23-12-15-10-14-7-20-12-9-3-4-4-3-21h-2l1-4 3-14 2-13v-11l-2-27-3-12-4-7z" fill="#4A6277"/>
<path transform="translate(1192,1021)" d="m0 0 4 1-1 3h7l1 14-3 16-10 33-6 17-5 14-5-1-5-11-1-7-3-5-5-2-9 1-4 2-6 8-7 7-4 6-7 1-5-3-4-6v-2l-6-1-26 6-20 3-11-3-2-2 4-6 5-3h2l1-3 13-7 14-3v-2l-4-1 3-2 18-2 12-5 7-8 7-4h2l2-4 5-4 11-5 8-3 8-6 6-5h2v-2l8-7v-4z" fill="#BA9569"/>
<path transform="translate(916,535)" d="m0 0 4 1 24 11 17 7 38 17 9 3 25 4 28 4 27 2 67-7 35-3h6l1 1 1 20v14l-1 17-2 3-5-1-1-3-1-26-5-2-10 1-62 7-13 1-7 1-8-1-22-1-4 1-1 3h-2v-4l-5-1-6-2-14-1-3-2v-2l-9-3-5-2-13-6-4-2-10-4-7-2-2-2-10-4-9-4-7-3-9-3-7-2-8-3-7 1-3 1-1-19z" fill="#7B7F81"/>
<path transform="translate(1179,699)" d="m0 0h6l2 3v29l-3 3-29 7-38 7-14 4-22 4h-16l-5-5v-36l3-3 27 1 26-3 6-1 17-3 24-4z" fill="#8CA8C0"/>
<path transform="translate(1192,649)" d="m0 0h4l1 2v41l1 1v31l-1 7v13l-6-3h-2l-1 7-2 1v-2l-10 2-19 3-12 2-7 2-10 2-6 2-16 3-10 1-36 1-2-1v-6h2l-2-4-1-28v-10h-4l-3 1 1 2h-3l-1 3h-2l-1-3-2 3-5-10-8-2-2 5-1-2 1-5-8-8h9l8-5 3-9 3-19h3 2l2 3 5 1 3 29 4 5 9 1 11-2 19-2 9-3 22-4 17-2 21-4 12-1 5-2 3-13 1-18v-4h2zm-13 50-16 3-24 4-17 3-23 3-16 1-20-1-3 3v36l5 5h18l24-5 16-4 32-6 29-7 3-3v-29l-3-3z" fill="#74808A"/>
<path transform="translate(607,1098)" d="m0 0h5l12 6 1 4h7l7 8 12 12 14 10 15 8 19 7 24 5 15 2 13 1 40 1v1l-32 1h-8l-6 3-9 2-5 1-5 2-9 2-4 1-1 3h-2l-2 4-7 4-4 1-15 1-10-3-10-5-5-5-6-5v-3l-3-1v-2l-3-1v-2h-2l-11-15v-2h-2v-2h-2l-10-14-3-5-4-6-5-10-1-5z" fill="#BA9569"/>
<path transform="translate(918,598)" d="m0 0 6 2v5l5 2 16 8 14 6 32 16 8 3 15 5 5 6 1 4-2 12v18l-2 3-10-1-7-3-7-5-16-6-9-6-9-4-25-12-11-3v-25l-2-12-2-3z" fill="#4A6277"/>
<path transform="translate(922,653)" d="m0 0h2l2 5 12 4v2l5 2 20 9 4 4 15 6 14 7 13 4 6 3 5 5 4 5-2 14 1 17-5 1-14-4-9-5-15-7-19-9-17-9-14-8-13-2v-8l5-6-1-23z" fill="#4A6277"/>
<path transform="translate(1177,653)" d="m0 0h9v24l-1 3-8 3-52 7-17 4-13 4-25 3-8-1-3-4-1-20 1-12 3-3h16l19 1h24l41-7z" fill="#8CA8C0"/>
<path transform="translate(1176,844)" d="m0 0 8 1 2 2v17l-1 9-4 3-22 7-21 6-16 5-6 2-29 5h-13l-4-2-2-3-2-10v-18l6-3 32-2 15-3 23-6 29-9z" fill="#8CA8C0"/>
<path transform="translate(928,898)" d="m0 0 7 2 24 14 15 8 4 4 11 6 10 4 11 2 22 11 10 4 3 2 7-1 1-5v-2l-4-2-1-4 5-5 4-3 4 1 1 4-1 12-1 11-11 10-2 4-2 2v5l-3 3-9-1-16-8-11-6-18-10-7-5-7-4-10-7-14-9-7-4v-2l-5-2-11-6-7-2-1-1v-7l4-5 2-6z" fill="#4A6277"/>
<path transform="translate(922,708)" d="m0 0 7 1 16 8 15 8 19 9 19 10 22 9 3 4 2 6v12l2 14-2 3-11-2-8-3-6-3-7-5 1-9-5 7h-5l-5-4-19-9-11-5v-2l-6-2-7-4-10-5-2-3-1-14-1-12-1-8z" fill="#4A6277"/>
<path transform="translate(1173,753)" d="m0 0h12v26l-3 2-54 12-17 4-16 5-9 2h-19l-3-2-1-3v-28l1-3h28l15-1 18-3 31-8z" fill="#8CA8C0"/>
<path transform="translate(1178,606)" d="m0 0h7l2 1v20l-3 3-24 4-21 2-33 4-14 4-16 2-3 1h-11l-5-3-1-3v-31l5-3 12 1 20 4 7 1h11l23-3 25-2z" fill="#8CA8C0"/>
<path transform="translate(1022,603)" d="m0 0h10l9 4 4 3 8 1 1-2v16l1 29 2 8-4 10-6-1-2-3-2-1-4 24-3 5-8 5h-7l-14-7-15-5-8-5 1-5 7 2 7 5 10 3h10l2-4v-19l2-8v-6l-5-5-16-5-10-3-5-3-16-8-21-10-10-5-5-5-1-3 10 1 30 14 10 5 18 7 8 2h5l1-22 2-5z" fill="#7A7F81"/>
<path transform="translate(924,853)" d="m0 0 8 1 16 8 14 8 15 9v2l6 2 6 3v2l11 2 11 4v2l7 1 8 1 11 6 3 2v2l3 1v8l-3 14v8l-3 1-25-10-15-9-11-6-14-8-20-13-11-7-15-7-3-1-3-4 2-11v-9h2z" fill="#4A6277"/>
<path transform="translate(1181,890)" d="m0 0 4 2 1 8-1 16-4 5-36 12-11 3-10 2-10 4-18 6-5 1h-7l-9-3-4-4-1-3-1-22 3-3 3-1 33-1 15-4 30-10 11-4 10-2z" fill="#8CA8C0"/>
<path transform="translate(921,561)" d="m0 0h9l13 5 7 3 3 2 6 2 9 4 13 6 7 3 20 7 11 6v3l-2 1-3 10-1 6v7l-3 6-6-1-16-5-11-5-9-5-23-10-6-3-12-5-5-1-1-6 1-9-2-19z" fill="#4A6278"/>
<path transform="translate(920,807)" d="m0 0h5l1 3 6 1 6 4 8 2 3 3 10 5 11 6 15 8 6 2v2l7 2 5 3 7 5 9 1 16 8v6l-2 4v13l1 1v5h-9l-11-6-13-6-23-12-15-10-14-7-20-12-9-3-4-4-1-4v-11l3-8z" fill="#4A6278"/>
<path transform="translate(924,940)" d="m0 0h6l11 6 10 6 5 4 7 4 10 7 4 2v2l5 2 16 9 20 6 11 3 15 6 8 3 2 2 1 10-1 5-1 15-3 1-8-2-16-7-10-6-12-7-5-3v-2l-5-2-11-6-12-8-10-7-14-9-25-15-4-8 4-8z" fill="#4A6277"/>
<path transform="translate(1183,799)" d="m0 0 2 1v18l-1 7-5 3-13 4-42 10-15 4-17 5-13 1h-7l-5-5-1-5v-22l5-2 24-1h13l14-3 10-2 20-6 11-3 9-2z" fill="#8CA8C0"/>
<path transform="translate(1177,936)" d="m0 0h6l2 4v14l-1 8-3 3-14 5-11 4-9 2-9 3-15 2v3l-10 5-7 3-19 4h-9l-4-2-3-5-1-8 2-12 3-5 4-3 5-1h21l6-2h11l5-2 4-4 6-3 12-3z" fill="#8298AA"/>
<path transform="translate(1179,747)" d="m0 0h7l1 3-1 30-2 2-31 8h-4v2l-19 6-13 3h-5v2l-10 2-5 3-11 1 1 2 9 1 15-1 16-4 23-5 2-1 14-1 17-3 3 1v28l-2 3-15 5-27 7-10 2v2l-5 2-9 2-10 3-18 5-4 1h-8l-11-2-4-5-4-16-2-2-7-1-7 13-5 3-3-2-2-11v-15l4-6 7 1 9 5 5-1 3-3h2v-7l-4-7-1-19-2-7-1-3 3-7 4-2 34-1 15-2 16-3 7-2 10-2 1-1 20-3zm-6 6-25 5-28 7-13 2-20 1h-23l-1 3v28l2 4 2 1h19l20-5 13-4 26-6 23-5 16-4 1-1v-26zm10 46-18 3-4 2-13 3-16 5-15 3-11 2h-16l-21 1-3 2v22l2 7 4 3h13l15-3 19-6 15-3 15-4 17-4 16-5 2-2 1-7v-18z" fill="#7E8891"/>
<path transform="translate(925,981)" d="m0 0 6 1 12 7 27 18 23 15 15 7 22 5 7 4 14 7 5 2 1 5v21l-2 3h-6l-3-2-6-2-11-5-12-5-10-7-5-3v-2l-4-2-14-9-15-11-13-9-5-4-10-7-10-6v-2h-4l-5-6v-11h3z" fill="#4A6277"/>
<path transform="translate(913,1050)" d="m0 0 7 1 8 4 15 8 7 4-3 1-15-7-11-1-2 3v2l4 1v2l3 1 7 8 3 3v3l4 2 10 7 21 7 8-1 4-2 1-5 4-1 8 3 5 3 6 1 13 7 22 4v2l2 1-1 2h-2v2h-2v2l-3 2-7 2-15 4-11-1-18-9-3-2h-15l-8-2-16-7-7-4-10-2-13 1-5-2-6-1-5 1 4-21 4-11 6-9z" fill="#BA9569"/>
<path transform="translate(1176,981)" d="m0 0h7l2 5v9l-2 9-25 10-9 4-5 2-16 6-14 7-16 5-9 2h-7l-5-2-3-6-1-11 1-11 3-3 8-2h11l14-1 20-5 7-3 14-5 10-3z" fill="#8298AA"/>
<path transform="translate(1189,740)" d="m0 0 6 2 2 2 1 30-1 4v11l1 3v41l1 5-1 37 1 34v75l-1 12-4 8-6 1-3-27-2-6 2-5 1-7v-23l-2-6-2-1v-5h2l3-16v-11l-1-9-2-4 2-12 1-23-1-10 1-5-1-6 1-6v-25l-1-4 2-2-1-6v-4l1-20-1-17z" fill="#697781"/>
<path transform="translate(916,993)" d="m0 0 2 4 7 4 15 8 12 9 10 7 12 8 11 8 4 4 9 6v2l5 2 7 4v2l5 1 4 4-1 4-8-1-12-6-12-7v-2l-4-1-7-4-3-3-14-9-11-7 8 6 4 4-6-2-11-7-6-3h-7l-1 8 2 4 14 10 22 14v2l5 2 5 5 11 8 10 6 9 1 6-1 12 1 7 3 2 4-7 2h-11l-16-4-10-5-9-6-9-5-9-1-9-5v-2l-5-2-10-6-12-6-12-5 1-8z" fill="#797D80"/>
<path transform="translate(474,276)" d="m0 0h6l5 5 2 3v78l-5 1-12-6h-3l-3 4h-10l-18-2-6-4-6-7-1-7 4-7 12-9 5-4v-6l-2-2-11 1 1-7 2-3 4-1h8l7 3 5 6 1 5 2 24 1 8 7 2 2 1-1-4 2-26v-9l-1-10 4-4-2-5-2-3v-10zm-33 57-3 3v5l3 3 6-1 1-5-4-5zm21 21m1 1 2 2v-2z" fill="#204057"/>
<path transform="translate(918,919)" d="m0 0 1 3 7 1 9 4 14 8v2l5 2 16 10 7 5 11 6 5 4 3 1 1 2 8 3 9 6 19 9 13 4 4 2v4l-9-1-8-4-11-2-1-1-14-3-16-5-14-8v-2l-6-2-12-9-7-4-16-10-6-3h-5l-4 5-2 5-1 11 6 2 17 9 19 13 10 7 11 7 9 6 3 1v2l4 1 8 6 6 4-1 4-8-2v-2l-4-1-13-7-16-10-3-2v-2l-7-2v-2l-6-2-13-8-20-12h-3v-25z" fill="#747F89"/>
<path transform="translate(1180,1024)" d="m0 0h3v2l2 1-8 8h-2v2l-10 8-10 6-13 5-6 4-5 5-7 4-7 8-12 5-21 2-5-2-2-2-2-11v-12l3-5 6-3 19-1 21-2 7-3 9-3 5-3 6-2 12-6 6-2 5-2z" fill="#898D8F"/>
<path transform="translate(232,279)" d="m0 0h6l3 3 9 27 7 25 5 13 1 7 1 3-5 1h-9l-4-6-4-11v-2l-17 1-4 16-2 4-5 2-2-2-7-3-1-1 1-9 9-24 8-26 6-15z" fill="#0A3757"/>
<path transform="translate(536,280)" d="m0 0h26l7 4 4 5 2 5 1 6v10l-2 6-14 14-7 3-1 30-10-1-6-4-1-2v-75z" fill="#083556"/>
<path transform="translate(921,1059)" d="m0 0 11 1 15 7 6 2v2l6 2 6 3h6l20 12 8 4 16 4h11l6-2-1-3 10-1 1-5 12-1 3-3 13-3 7 1 3 3 4 1 1 2 3 1v2l-14 4-13 7-1 2-9 3-7 3h-14l-12-3-14-7-5-1-7-4-8-1-1 5-7 4-8-1-12-4-7-3-10-7-3-2-3-5-4-5-6-5-1-2-3-1-1-3z" fill="#A2835B"/>
<path transform="translate(916,535)" d="m0 0 4 1 24 11 17 7 38 17 9 3 25 4 28 4 27 2 67-7 35-3h6l1 1v17l-2-3v-2l-11-1-26 1-21 2-16 2-10 1h-11l-8-1h-25l-8-2h-7l-24-4-16-1-9-3-9-4-4-2v-2l-8-2v-2l-6-2-17-7-14-6-9-3-12-5v-2h-6l-3 3v-7z" fill="#898E91"/>
<path transform="translate(607,1098)" d="m0 0h5l12 6 1 4h7l7 8 12 12 2 1v2h-5l-8-4-5-3-3-1v-2l-4-1-6-3v6l4 5 3 5v2h2l8 11 5 6 4 3v3l5 2 5 6 2 1v2l4 2 12 7 8 2h11l12-6 1-3h2l1-3 4-4-7-3-17-1-8-4-5-7 1-1h6l18 6 20 4 15 2 13 1 40 1v1l-32 1h-8l-6 3-9 2-5 1-5 2-9 2-4 1-1 3h-2l-2 4-7 4-4 1-15 1-10-3-10-5-5-5-6-5v-3l-3-1v-2l-3-1v-2h-2l-11-15v-2h-2v-2h-2l-10-14-3-5-4-6-5-10-1-5z" fill="#AE8959"/>
<path transform="translate(1152,302)" d="m0 0h9l10 1 8-1 7 3 4 7 1 3 1 11 1 35-4 1-5-3h-11l-1-3 3-7v-26l-3 1-3 8-1 17v14l-6 1-3-3-8-3v-55z" fill="#093656"/>
<path transform="translate(875,278)" d="m0 0 12 1 4 2 2 14-1 1-12 1 1 10 7 11 5 8 2 7v7l-3 10-6 10-5 4-6 1-7-3-5-5-3-6v-12l14 1 2-1v-7l-6-9-6-8-3-6-1-5v-9l3-9 5-5z" fill="#0A3656"/>
<path transform="translate(931,1027)" d="m0 0h6l11 7 14 8 11 8 10 6 7 5 11 6 15 7 9 3 7 3 10 4-1 6-3 1h-9l-6-2-11-1-10 1-9-3-10-7-12-9v-2l-5-2v-2l-5-2-12-8-11-7-10-8-1-6 2-5z" fill="#606A71"/>
<path transform="translate(298,280)" d="m0 0h14l1 1-1 27-1 17v17l2 18h-28l-6-4-6-8-2-5v-15l4-11 7-9 11-7 4-2 1-8zm-8 32-5 6-1 2v17l4 8 5 1 5-4 1-3-1-19-2-8z" fill="#0C3858"/>
<path transform="translate(1185,696)" d="m0 0h2l1 5 1 18-1 18h2v-2l5-2 1-2 1 13-6-3h-2l-1 7-2 1v-2l-10 2-19 3-12 2-7 2-10 2-6 2-16 3-10 1-36 1-2-1v-6h2l-2-4-1-28 1-13 5-3 11 1h18l12-1 7-2 20-3 21-3 6-2 15-2 1-1zm-6 3-16 3-24 4-17 3-23 3-16 1-20-1-3 3v36l5 5h18l24-5 16-4 32-6 29-7 3-3v-29l-3-3z" fill="#74808A"/>
<path transform="translate(918,883)" d="m0 0h11l8 3 20 12 15 10 14 8 10 6 12 7 3 3 21 7 7 4h10l5 6-1 5-3 2-7-1-8-4-9-4-16-8-15-3-13-7-15-10-19-10-13-8-7-2-3 2-2 7-3 3v7l8 3 15 8v2l6 2 10 7 11 7 8 6 9 5 1 2-5-2-9-5-10-7-15-9v-2l-5-2-12-7-13-4-1-3z" fill="#71777D"/>
<path transform="translate(985,304)" d="m0 0 13 1 1 1 1 32 1 4 8 1v-36l2-3h10l3 2 2 8-1 3v32l1 12-1 1h-25l-7-3-8-9-1-2v-32z" fill="#224259"/>
<path transform="translate(1064,868)" d="m0 0h2l1 18 2 10 1 3 10 1h7l29-5 19-6 20-6 16-5 15-5-1 13 2 3 1 16-1 11h-2l-1 5-5 3-21 7-34 9-13 5-5 1-3 2-13 3-8-1-10-2-4-6-1-14-1-8 2-5 2-2 4-1 24-1 14-5h2l1-4h-8l-16 4h-3v-2h-15l-5-3-3-8-4-18zm117 22-17 4-25 9-16 5-15 4-33 1-5 3-1 5 1 18 3 5 4 3 7 2h7l13-4 11-3 12-5 15-3 37-12 5-4 1-2 1-18-2-7z" fill="#747F89"/>
<path transform="translate(1114,303)" d="m0 0h12l6 3 7 8 3 10v12l-4 15-5 9-3 3-5 1h-7l-9-4-8-9-4-9-1-6v-8l3-11 6-8 5-4zm1 10-3 4-1 5v10l3 10 3 4h6l4-6 1-11-2-9-5-6z" fill="#0B3757"/>
<path transform="translate(921,303)" d="m0 0h10l8 4 5 6 3 7v23l-4 11-5 6-4 2h-9l-9-4-8-8-4-8v-18l4-11 5-6zm1 12-3 3-1 3v12l3 8 5 4 5-2 3-5 1-9-3-8-7-6z" fill="#0B3757"/>
<path transform="translate(718,302)" d="m0 0 9 1 7 5 5 10 1 7v8l-1 2-8 2 3 3 5 1-1 7-4 8-3 1h-11l-8-4-7-8-4-11v-11l3-9 9-10z" fill="#0B3757"/>
<path transform="translate(340,303)" d="m0 0h9l8 4 5 6 3 10v17l-4 13-4 5-4 2h-13l-8-4-6-7-4-10-1-9 2-10 6-10 5-4zm-1 11-3 8v11l4 10 4 3 5-1 3-3 1-4v-10l-6-12-3-2z" fill="#0A3757"/>
<path transform="translate(642,303)" d="m0 0 10 1 7 4 4 5 3 9v14l-4 11-7 9-6 4-10-1-9-5-6-8-3-9-1-12 3-9 9-10zm-2 11-4 5-1 2v11l3 10 5 5 3 1 6-5 1-3v-12l-3-9-6-5z" fill="#0C3858"/>
<path transform="translate(377,304)" d="m0 0h9l6 2 5-1 1-1h11l4 5 2 6 3 35v8h-9l-7-2-1-1 1-13v-18l-2-5-1-1h-6l-3 6v9l3 21v4h-10l-7-3 2-28v-14z" fill="#0B3757"/>
<path transform="translate(682,275)" d="m0 0 7 1 4 5 1 11-1 2-1 61-1 18-2 6h-6l-10-5 1-5 3-12 1-54 2-4-1-6-2-4v-8l3-5z" fill="#093656"/>
<path transform="translate(1216,301)" d="m0 0 7 1 5 3 1 2v9l-1 4v11l3 12v10l-4 8-5 3-9-1-12-5-2-3v-12h3l3 2 6-1v-7l-7-10-2-4v-9l4-7 5-4z" fill="#0D3958"/>
<path transform="translate(916,993)" d="m0 0 2 4 7 4 15 8 12 9 10 7 12 8 11 8 4 4 9 6v2l5 2 7 4v2l5 1 4 4-1 4-8-1-12-6-12-7v-2l-4-1-7-4-3-3-14-9-16-10-17-9-1-3-6 1-2 2z" fill="#898C8F"/>
<path transform="translate(1181,890)" d="m0 0 4 2 1 8-1 16-4 5-36 12-11 3-10 2-10 4-18 6-5 1h-7l-9-3-4-4-1-3-1-22 3-3 3-1 33-1 15-4 30-10 11-4 10-2zm-2 4-21 6-7 5-3 10-9 2-33-1-4-1h-16l-10 1-2 1-1 7 2 9 1 6 5 5 9 2 8-3 4-5 4-2h12l8-3 12-2 17-5 7-2 9-3 11-5 1-3v-17l-1-2z" fill="#8298AA"/>
<path transform="translate(934,605)" d="m0 0 10 1 30 14 10 5 18 7 8 2h5l1-22 2-5 3-2h8l5 2 2 4 3 3 2 6-1 5-6 17-3 3-6 2-10-3-22-8-13-6-12-5-14-8-14-5-6-5z" fill="#7E8890"/>
<path transform="translate(1187,749)" d="m0 0h1l1 18-1 17v3l1 6-2 2 1 3v25l-1 6-6 2v2l-12 3-9 2-5 2-11 2-4 2h-8l2-2 24-6 26-8 1-2v-28l-14 2-5 1-14 1-10 3-20 4-11 3-17 1-7-1-1-3 13-3 6-3h7v-2l22-5 12-4h3v-2l28-7 8-3 1-30z" fill="#74808A"/>
<path transform="translate(922,556)" d="m0 0 6 1 12 3 5 3 7 2 8 3 12 6 5 2 3 2 13 4 4 3 4 1 11 5 5 2 9 4 3 3 14 1 11 4-1 6h-8l-7-5-6-2h-12l-2 4-1 4-1 22-1 1-9-1-17-6-14-6-16-8-15-7-10-2 5 5 1 2-9-3-7-4-1-5-5-2 1 3-1 7h-1v-49zm-1 5-1 6 2 19-1 9 3 3 5 1 10 4 15 7 17 7 7 5 18 7 10 3h4l3-6v-8l3-12 1-3 2-1-1-4-6-3-7-3-17-6-7-3-13-6-10-5-7-2-2-2-13-5-7-2z" fill="#71787E"/>
<path transform="translate(803,294)" d="m0 0 7 6 5 5 1 7-3 6-4 7-1 4v7l2 5 5 3 1 4-2 9-3 4-8-1-8-5-3-4-1-29-3-6-4-4 10-8z" fill="#0B3757"/>
<path transform="translate(959,280)" d="m0 0h8l5 2 4 53 3 5-1 3h-2v16l-4 2-10-3-4-4v-73z" fill="#063455"/>
<path transform="translate(1073,276)" d="m0 0h8l4 3 1 3v16l1 2 1 63-7-1-3-3-9-1 2-7 1-36v-13l4-4-5-6v-12z" fill="#093657"/>
<path transform="translate(1185,960)" d="m0 0h1v7l-2 6 2 7-7-1-8 2-10 5-12 4-13 5-17 5-8 3-8 1-23 1-6 3-2 2 1-11-2-5 9 3h8l24-6 15-7 5-3 27-7 21-7 4-4z" fill="#737F89"/>
<path transform="translate(1049,293)" d="m0 0 2 1 2 6 7 3v10l-1 2-6 1 1 7-2 11 2 7 7 2 1 20-1 1h-10l-6-3-6-8-2-13v-15l-2-9-1-3 4-6 5-5z" fill="#0B3858"/>
<path transform="translate(1179,600)" d="m0 0h9v29l-1 3-10 3-24 4-56 7-6 2-11 1h-20l-5-5v-35l1-2 3-1h12l7 1 23 1 23-2 37-4zm-1 6-21 2-26 2-20 3h-15l-11-3-19-3-8 1-2 2v31l2 4 4 2h11l22-4 13-3 32-4 27-3 18-3 2-3v-20l-7-1z" fill="#8298AA"/>
<path transform="translate(764,302)" d="m0 0h9l6 3 4 6-1 5h-11l-7 6-2 6v7l3 7 4 3 10-1v10l-4 4-2 1-10-1-9-6-6-7-4-9v-9l4-11 7-9z" fill="#0E3959"/>
<path transform="translate(1177,649)" d="m0 0h10l1 4v18l-1 12-7 3-18 4-24 3-23 4-21 5-19 2h-12l-5-4-1-8v-24l2-7 2-2h33l16-1 31-4 19-3zm0 4-40 6-16 3h-24l-19-1h-16l-3 3-1 16 1 16 3 4 8 1 25-3 20-6 18-3 29-4 15-2 8-3 1-3v-24z" fill="#8298AA"/>
<path transform="translate(929,704)" d="m0 0 7 2 13 5 8 4v2l10 3 18 10 12 5 10 5 17 3 1-11-1-7 1-9 4-6 8 1 5 8v7l-2 14v7l-3 5-6 2-8-1-10-5v-2l-9-2-13-5-16-8-23-12-12-6-4-1v-2h-2v-2l-4-1-2-2z" fill="#898C8F"/>
<path transform="translate(438,303)" d="m0 0h8l7 3 5 6 1 5 1 23-2 10-2 4h-3-5l-1-4h-2v-2l-3-1 4-1 1-8-3-4-4 1-1 1v8l-2 5-7 1v-2h-2v2h-3l-2-4 1-8 4-5 11-8 5-4v-6l-2-2-11 1 1-7 2-3z" fill="#0D3958"/>
<path transform="translate(1061,663)" d="m0 0h14l10 1 6 4 2 3 2 10-1 6-3 6-11 4-7 1h-9l-4-4v-29z" fill="#9DB7CF"/>
<path transform="translate(1108,1007)" d="m0 0 9 1 4 4-1 10h-2l-2 5h-2v2l-8 4-16 4h-7l-5-4-2-9v-9l3-5 3-1 20-1z" fill="#8CA8C0"/>
<path transform="translate(1070,1078)" d="m0 0 7 1 3 3 4 1 1 2 3 1v2l-14 4-13 7-1 2-9 3-7 3h-14l-12-3-14-7 1-3 12 2h9l6-2-1-3 10-1 1-5 12-1 3-3z" fill="#A3835B"/>
<path transform="translate(1085,962)" d="m0 0 12 1v2l3 1v2l5 1 2-4h2v-2l7 1 2 5-3 12-4 4-12 5-15 3-7-1-4-5v-9l4-10 4-4z" fill="#8CA8C0"/>
<path transform="translate(916,831)" d="m0 0 5 4 9 3 9 5 16 9 11 6 14 9 4 4 16 8 13 7v2l4 2 2 3-8-1-7-3-12-4-15-8-9-7-8-4-14-8-11-5-10-2-4-1-2 4-1 6h-1z" fill="#888C8F"/>
<path transform="translate(1069,770)" d="m0 0 12 1 16 4 3 5 2 8-1 6-5 4-10 3-8 1h-10l-4-3v-27z" fill="#9DB7CF"/>
<path transform="translate(1064,717)" d="m0 0h12l12 3 7 4 3 5v9l-5 7-7 3-7 2h-13l-3-2-1-6v-20z" fill="#9DB7CF"/>
<path transform="translate(1070,820)" d="m0 0h29l5 4 2 4-1 10-6 7-8 3-9 1h-10l-3-3-2-16 1-9z" fill="#9DB7CF"/>
<path transform="translate(1026,658)" d="m0 0h9l5 3 3 6-4 24-3 5-8 5h-7l-14-7-15-5-8-5 1-5 7 2 7 5 10 3h10l2-4v-19l1-5h2v-2z" fill="#7E8891"/>
<path transform="translate(1059,609)" d="m0 0h10l12 5 7 6 2 8-1 7-3 4h-2l-1 3-12 3h-9l-3-1-2-5v-27z" fill="#9DB7CF"/>
<path transform="translate(1176,844)" d="m0 0 8 1 2 2v17l-1 9-4 3-22 7-21 6-16 5-6 2-29 5h-13l-4-2-2-3-2-10v-18l6-3 32-2 15-3 23-6 29-9zm-1 4-25 8-1 1-13 2-23 6-13 1-29 1-3 2v17l3 8 3 3 12 1 21-4 15-4 10-4 12-3 5-3 10-1 13-4 10-3 1-2 1-10v-9l-1-2z" fill="#8298AA"/>
<path transform="translate(587,303)" d="m0 0 27 2 1 2v9l-6 2-8 2v24l1 17-10-1-5-3-1-53z" fill="#0B3757"/>
<path transform="translate(1179,699)" d="m0 0h6l2 3v29l-3 3-29 7-38 7-14 4-22 4h-16l-5-5v-36l3-3 27 1 26-3 6-1 17-3 24-4zm4 4-18 2-13 2-12 3-31 5h-46l-2 4v29l4 4 2 1 19-1 25-6 5-2 37-6 13-2 6-2 12-2 1-1 1-8v-20z" fill="#8298AA"/>
<path transform="translate(433,792)" d="m0 0h1l-1 45v32l2 16 4 11 8 9 8 4 4 1h12l12-3 16-8 14-9 2-4v8l-6 9-4 3h-2l-2 5-2 2v-2l-14 2-11 2h-17l-13-6-4-4-7-8-3-7-1-4-1-21v-27l1-37h2z" fill="#5D6A74"/>
<path transform="translate(908,718)" d="m0 0 4 5 5 11 3 8 2 24-1 12h2l-1 16h3v10l5 3 5 1 11 5 18 10 3 3v2l5 1 12 7 23 10 11 3 16 9v2h2l-1 4-2-2-14-7-9-1-7-5-12-6v-2l-8-2-15-8-14-8-8-4v-2l-8-1-9-5-3-1-1-2h-7l-1 7-3 2-1-7h-2l1-4 3-14 2-13v-11l-2-27-3-12-4-7z" fill="#606A71"/>
<path transform="translate(917,608)" d="m0 0h2l2 3 2 12v20l-1 5 11 2 19 9 8 4 7 3 9 6v6l-5 1-6-4-2-2-14-5-7-4-16-5-2-2v-4h-2v10l1 20-5 6-1 18h-1v-22l1-16z" fill="#6D7B85"/>
<path transform="translate(1183,797)" d="m0 0 3 1v28l-2 3-15 5-27 7-30 8-20 6h-20l-6-3-2-7-1-22 2-6 4-2h12l23-1 23-5 21-5 10-3zm0 2-18 3-4 2-13 3-16 5-15 3-11 2h-16l-21 1-3 2v22l2 7 4 3h13l15-3 19-6 15-3 15-4 17-4 16-5 2-2 1-7v-18z" fill="#8298AA"/>
<path transform="translate(926,795)" d="m0 0 6 1 5 3 10 4 14 8 8 1 3 4v2l5 2 32 16v2l7 2 9 3v2l8 1 4 2-1 5-4 1-7-3-10-5-10-2-19-10-11-7-16-8-18-10-6-4-7-1-2-6z" fill="#82888D"/>
<path transform="translate(918,883)" d="m0 0h11l8 3 20 12 15 10 14 8 10 6 4 4 3 2v3l-7 1-9-3-4-4-9-6-14-7-8-5-3-3-14-6-5-1v-2l-10-4v8h-1z" fill="#868B8F"/>
<path transform="translate(1151,1051)" d="m0 0h2l3 7 1 7-4 7-5 5-5 4-9 3-5 4-10 2-5-5 3-6h2l2-7 5-5 5-3h2l2-4 5-4z" fill="#A2825A"/>
<path transform="translate(917,947)" d="m0 0h1v15l6 2 17 9 19 13 10 7 11 7 9 6 3 1v2l4 1 8 6 6 4-1 4-8-2v-2l-4-1-13-7-16-10-3-2v-2l-7-2v-2l-6-2-13-8-20-12h-3z" fill="#8298AA"/>
<path transform="translate(1074,868)" d="m0 0h18l9 2 5 6 1 6-2 5-5 4-10 4-13-1-4-4-3-11v-7z" fill="#9DB7CF"/>
<path transform="translate(1178,749)" d="m0 0h7l1 1v30l-2 2-31 8-20 5-15 4-28 7-6 1h-15l-6-3-1-3v-33l4-3h26l24-3 35-8 16-3zm-5 4-25 5-28 7-13 2-20 1h-23l-1 3v28l2 4 2 1h19l20-5 13-4 26-6 23-5 16-4 1-1v-26z" fill="#8298AA"/>
<path transform="translate(596,1280)" d="m0 0 7 1 18 18 6 3 6 6v2l4 2 5 6v2h2l1 4 3 1 1 3-1 1h-5l-9-6-3-1v-2l-4-1-9-6-11-7-9-9-3-7z" fill="#BA9569"/>
<path transform="translate(1195,928)" d="m0 0h3v30l-3 3-1 9 4 1 1 13-1 12-4 8-6 1-3-27-2-6 2-5 2-10 1-3v-24z" fill="#687680"/>
<path transform="translate(921,849)" d="m0 0 16 4 14 7 4 4 15 9 2 3-5-2-11-6-8-5-12-6-8-3-4-1v2h-2l1 5-1 13h-2l3 4v2l6 1 17 9 9 6 22 14 16 9 18 10 7 4 12 4 8 3h2l-1-10 3-12 1-8 2 2 2 17v8h2v2h2l-2 5-3 1h-7l-12-6-16-5-9-7-13-7-12-7-19-12-9-6-13-8-7-2h-8l-3-1-1-3v-20l2-7z" fill="#697780"/>
<path transform="translate(498,914)" d="m0 0 2 2 3 10 9 16 11 17 14 22 13 19 10 14 26 36 5 6v2l-5-2-5-6-4-7-2-4h-2l-5-9-5-4-7-12-6-7-6-9-4-3v-4l-4-2v-2h-2l-5-7-3-3-4-5-3-6v-2l-3-1-7-14v-3h-2l-2-6h-2l-1-4h-2v-3h-3l-2-7 1-7z" fill="#AE8A5C"/>
<path transform="translate(1011,304)" d="m0 0h10l3 2 2 8-1 3-1 30-4 6-2 1-10-2 1-10v-35z" fill="#0E3959"/>
<path transform="translate(1179,978)" d="m0 0h5l2 2v22l-4 6-18 7-9 4-7 3-14 5-5 3-9 2-5 3-8 3-5 2-19 3-7-2-3-4-2-15v-8l3-7 6-3 23-1 12-2 16-6 10-3 17-6 9-4 6-3zm-3 3-20 9-17 5-9 4-20 5-14 1h-12l-8 3-2 2-1 13 2 12 3 4 4 1h7l17-4 10-4 8-4 9-4 13-5 8-3 11-5 14-5 4-2 2-9v-10l-2-4z" fill="#7F8990"/>
<path transform="translate(918,919)" d="m0 0 1 3 7 1 3 1v3l5 1 11 7 33 22 10 6v2l5 2 11 6 2 4-7 1-7-5v-2l-6-1-10-7-12-7-11-6-16-9-9-5-10-2z" fill="#8298AA"/>
<path transform="translate(1009,1030)" d="m0 0 9 1 12 3 7 4 14 7 5 2 1 5v21l-2 3h-6l-3-2-6-2-11-5-12-5-1-2 5 1 9 2 8-2 5-3-1-2h2v-2h-2l-1-6-3-4-20-10-9-3z" fill="#606A71"/>
<path transform="translate(1014,645)" d="m0 0 5 2 5 5-1 9-1 5v19l-3 5h-10l-12-4-5-4-7-2 1 4 8 5 16 5 9 5 9 9-1 5-2 12 1 13-2 4h-7l-4-1 1-2 8 1-1-18 2-13-5-7-7-4-11-4-13-5-12-6-9-4-5-4-11-5-12-6 4-1 14 7 8 3 5 4 7 1-1-4 3-1 14 5 10 7 8 2h6l1-2v-21l2-10-3-6z" fill="#787E82"/>
<path transform="translate(489,911)" d="m0 0 4 1-1 4-4 3h-2v2l-4 3h-2l-2 4-6 7-1 3-4-1-1-4-2-1v-2l-8 4h-6l-2-2v-3l-2-1-2-5-4-2 1-3h5l6-2h17l5-2z" fill="#6B4822"/>
<path transform="translate(987,932)" d="m0 0 7 2 5 2 11 2 22 11 10 4 3 2 7-1 1-5v-2l-4-2-1-4 5-5 4-3 4 1 1 4-1 12-1 11-11 10-2 4h-2l-1-6v-7l-5-3-13-7-10-3-12-7-3-1v-2l-5-1-8-4z" fill="#606A71"/>
<path transform="translate(288,454)" d="m0 0 3 1 11 24 15 29 15 35 3 8-1 3-5-6v-3l-3-1v-4l-2-1-2-4-2-5v-3h-2l-13-26-1-5h-2l-3-5-1-6h-2l-4-8-5-11-2-10z" fill="#886334"/>
<path transform="translate(1180,646)" d="m0 0h7v3l-29 3-23 4-26 3-16 1h-32l-2 2-1 6v28l2 5 3 2h15l20-3 21-5 26-4 17-2 1 2-17 3-28 4-15 4-11 2-16 2-9 1-7-2-4-6-2-19v-13l4-8 5-4h8l14 2h10l16-2 13-1 16-3 14-1z" fill="#808990"/>
<path transform="translate(653,654)" d="m0 0h2l-2 6-8 11-9 12-18 18-19 12-23 10-23 6-6 1h-21l-27-3v-1l18-1h27l19-3 12-3 12-5 10-6 9-5 14-10 1-2h2v-2l4-1 2-4 6-5 4-6h2l2-4 7-11z" fill="#204057"/>
<path transform="translate(1034,764)" d="m0 0h5l4 6-1 17-2 16-2 3-9-1-5-3-9-3-5-3v-2l-2-1 6-1 15 2v-16l-1-7 1-3h2l1-3z" fill="#758694"/>
<path transform="translate(1185,696)" d="m0 0h2l1 5 1 18-1 8h-1l-1-25-2-2-11 1-51 9-23 3-16 1-20-1-2 2v36l4 4h18l24-5 16-4 25-5h7l-4 2-9 2-21 4-5 2-10 2-9 3-23 3h-11l-5-5-1-28 1-13 5-3 11 1h18l12-1 7-2 20-3 21-3 6-2 15-2 1-1z" fill="#828A90"/>
<path transform="translate(1152,934)" d="m0 0 5 2-2 4-5 3-15 3-4 2-1 2-10 4h-5l-5 2-7 2h-17l-5 1h-7l1-4 3-2h11l10-4 14-3 15-7 11-2 9-2z" fill="#697780"/>
<path transform="translate(918,598)" d="m0 0 6 2v5l5 2 16 8 14 6 32 16 8 3 15 5 4 4-1 2-4-2-13-4-10-3-9-5-14-6-7-4-5-3-13-3-9 1-10-4v5l-2-4-1-8-2-3z" fill="#606A71"/>
<path transform="translate(918,961)" d="m0 0 6 1 17 9 15 10 10 7 7 4 12 8 13 8 11 7 7 4 5 5v2h2l-1 2h-10l-14-4-11-7-8-5-5-5-8-5-7-3-21-14-13-8-7-2-1 4v-7l3-1 10 6 29 17v2l5 1 2 1v2l5 2 11 7 14 8 6 3v2l8 1v-3l-6-4-8-6-3-1v-2l-5-1-13-9-11-7-17-12-13-8-16-8z" fill="#778591"/>
<path transform="translate(918,975)" d="m0 0h6l10 7 12 7 16 11 7 3 10 7 3 3 13 8 13 7-3 1-15-8-20-13-15-10-17-11-9-5-4-1v2h-3l1 13 4 2v2h4v2l6 2 11 8 8 6 28 20 18 12v2l4 1 6 5-4 1-10-6-4-4-9-6-5-5-24-16-13-10-21-12-5-3v-18z" fill="#697781"/>
<path transform="translate(1179,934)" d="m0 0h5l2 4v22l-3 5-3 3-21 7-27 7-16 8-9 3-19 5h-8l-6-2-5-5-1-13 3-14 4-3 7-2 23-1 6-2 13-2 11-6 15-4 25-9zm-2 2-31 11-11 3-7 4-3 3-7 1h-7l-6 2h-21l-7 2-4 4-2 7-1 9 2 9 4 4 2 1h9l19-4 11-5 6-3v-3l15-2 9-3 9-2 11-4 14-5 3-3 1-10v-12l-2-4z" fill="#768896"/>
<path transform="translate(1175,942)" d="m0 0h6l2 6-1 9-3 3-9 3h-3v2l-13 4-5-3v-13l4-3 10-2 6-1z" fill="#8CA8C0"/>
<path transform="translate(1062,891)" d="m0 0h3l4 10 4 2 15 1v2l19-5 8 1-1 4-11 4-6 2-23 1-5 2-2 5 1 8 1 14 3 5 13 3 1 2-11-1-7-2-3-7v-8l-2-10-1-1 1-9 5-5h3l1-2-5-1-5-12z" fill="#747F88"/>
<path transform="translate(917,321)" d="m0 0h1l2 16 4 6 4 1 4-4 2-7 2 3-1 11 3-1 2-3 7-7v7l-4 11-5 6-4 2h-9l-9-4-8-8-1-3h2l1-2 2 4h6l1-2 11 4v-4l-5 1-6-5-3-8z" fill="#214158"/>
<path transform="translate(919,560)" d="m0 0 2 1 2 26-1 8 2 2 5 1 10 4 15 7 17 7 7 5 18 7 14 4 2-6v-8l3-12 2-4h2l1-3 6 3-4 2h-2l-2 4-1 4-1 22-1 1-9-1-17-6-14-6-16-8-15-7-10-2 5 5 1 2-9-3-7-4-1-5-5-2 1 3-1 7h-1v-18l1-2v-27z" fill="#697781"/>
<path transform="translate(921,561)" d="m0 0h9l13 5 7 3 3 2 6 2 9 4 13 6 7 3 20 7 11 6v3l-39-13-21-9-14-5-6-3v-2l-5-1-8-3h-6z" fill="#606A71"/>
<path transform="translate(916,993)" d="m0 0h1v10l10 3 9 3 16 12 18 13 13 9 2 1-1 2h-6l-8-4v-2l-5-2-7-4v-2l-5-2-15-8-8-3v-2l-4-2v-2l-5-2-5-1z" fill="#8298AA"/>
<path transform="translate(916,1033)" d="m0 0 2 1 2 4 2 1v2l5 2 10 7 12 8 16 12 5 5-2 2-6-1-9-5v-2l-5-2-10-6-12-6-12-5z" fill="#8A8D8F"/>
<path transform="translate(1178,889)" d="m0 0h7l1 1v8h-1l-2-7-8 1-6 2-14 4-16 6-16 5-15 4-33 1-5 3 1 22 3 5 7 3 3 1h7l13-4 11-3 12-5 15-3 37-12 6-5-1 5-5 3-21 7-34 9-13 5-5 1-3 2-13 3-8-1-10-2-4-6-1-14-1-8 2-5 2-2 4-1 24-1 13-2 9-2 18-6 11-3 10-4z" fill="#768895"/>
<path transform="translate(472,302)" d="m0 0h8l2 4v7l1 3-1 28-1 7-1 3h-6l-3-9 1-32-1-10z" fill="#093656"/>
<path transform="translate(1095,1051)" d="m0 0h15l1 7-1 4-7 6-9 3-9-1-6-5v-7l5-5z" fill="#8298AA"/>
<path transform="translate(893,330)" d="m0 0 2 3v7l-3 10-6 10-5 4-6 1-7-3-5-5-3-6v-12l14 1 2-1 1-6h1v9l-2 5-6 3 1 6 10-2 7-6 2-5h2v-12z" fill="#214157"/>
<path transform="translate(598,1277)" d="m0 0 8 4 4 4v2l4 1 4 5 4 4 6 4 5 4 16 16v2l5 2 4 7v5l-5 1-12-6-7-6-10-6-5-4-5-3-6-3-5-5-1-3-3-1v-2h-2l-3-6-1-11 2-4zm-2 3-1 10 3 7 10 10 15 9 5 4h3v2l10 5 2 2h5l1-2-2-3h-2l-1-4h-2l-2-5-5-5h-2l-2-4-5-5-8-4-9-10-8-7z" fill="#AC8758"/>
<path transform="translate(927,752)" d="m0 0 6 1 8 2v2l6 2 6 4 13 4 6 5 19 9 9 5v2l4 1 3 2-1 3-10-2-11-6-7-3-10-7-14-7-22-12-5-3z" fill="#878C8F"/>
<path transform="translate(929,925)" d="m0 0 5 1 15 9v2l5 2 16 10 7 5 11 6 5 4 3 1 1 2 8 3 9 6 5 2 2 3-1 4-11-2-10-3-8-4-12-8-5-3-6-3-2-5 11 6 9 6 6 2v2l4 2 3 2h5v-3l-11-6-5-3v-2l-5-2-11-7-24-16-14-9-5-2z" fill="#7E8890"/>
<path transform="translate(811,313)" d="m0 0 4 2-6 10-1 4v7l2 5 5 3 1 4-2 9-3 4-8-1-8-5-3-4v-7l2 2 4 2v2l4 1 2 2 4 1 1-5-6-4-2-7v-9l3-11 2-3z" fill="#29475E"/>
<path transform="translate(1178,596)" d="m0 0 8 1 3 2 1 29-3 4 1-32-27 3-37 4-24 2-22-1-7-1h-15l1-2 4-1 25 1 10 1 2-1 23-2 31-4 21-2z" fill="#798894"/>
<path transform="translate(1027,608)" d="m0 0 6 3 1 4v14l-3 8-8 5-5-2 1-23 2-7z" fill="#8298AA"/>
<path transform="translate(1087,966)" d="m0 0h6l3 3 4 11-1 5-2 2-14 3-5-3-2-5 2-5 6-10z" fill="#9DB7CF"/>
<path transform="translate(682,275)" d="m0 0 7 1 4 5 1 11-1 2-1 61h-1v-54h-11v-6l-3-6v-8l3-5z" fill="#0F3958"/>
<path transform="translate(1086,1013)" d="m0 0h12l8 5-1 9-10 5-8 1-5-4-1-3v-8z" fill="#9DB7CF"/>
<path transform="translate(1154,1056)" d="m0 0 3 4-1 8-6 8-7 5-9 3-5 4-10 2-5-5 2-3h5l7-6 4-3 11-2 6-4 3-9z" fill="#AE8858"/>
<path transform="translate(1027,662)" d="m0 0h5l3 3 1 3v20l-3 5-4 2h-4v2l-5 1-3-1v-2l-2-1 5-2h3l1-2-1-21 2-6z" fill="#8298AA"/>
<path transform="translate(1064,868)" d="m0 0h2l1 18 2 10 1 3 10 1h7l29-5 19-6 20-6 16-5 12-4 2-1-2 4-23 8-6 3-12 2-21 6-8 3-15 2-10 3h-15l-5-3-3-8-4-18z" fill="#7E8891"/>
<path transform="translate(926,795)" d="m0 0 6 1 5 3 10 4 14 8v2l6 2v3l5 2 8 4 5 3-1 2-4-1-8-4-4-1-5-2-22-12-6-4-7-1-2-6z" fill="#858A8E"/>
<path transform="translate(926,793)" d="m0 0 8 2 5 5-6-2-7-3 2 9h7l15 9 22 12 8 4 11 7 17 8 9 2 8 4 10 4v2l-6-1-10-4-24-9-16-8-8-5-4-1v-2l-3-1v-2l-5-2-14-8-11-5-7-1-3-3v-7z" fill="#767B7F"/>
<path transform="translate(1073,276)" d="m0 0h8l4 3 1 3v16l1 2v12h-1v-10l-13 1v12h-1v-13l4-4-5-6v-12z" fill="#0E3958"/>
<path transform="translate(956,867)" d="m0 0 11 6 10 6v2l6 2 6 3v2l11 2 11 4v2l7 1 8 1 11 6 3 2v2l3 1v8l-3 12h-1l-1-15-1-4-16-6-9-4-12-6-12-5-6-4-7-3-1-2-9-5-10-6z" fill="#606A71"/>
<path transform="translate(918,952)" d="m0 0 4 5 3 3 9 5 13 8 20 13 10 7 13 8 9 5v2l4 1 11 7 11 6 14 7 5 2 8 1 1-15 2-3 1 10-1 11h-7l-20-8-15-9-9-5-13-8-15-10-7-5-7-4-23-15-15-8-6-2z" fill="#697781"/>
<path transform="translate(1229,339)" d="m0 0 2 4v10l-4 8-5 3-9-1-12-5-2-3v-12h3l3 3-2 1 1 3 7 2v3l3-1h6l7-8z" fill="#28475D"/>
<path transform="translate(523,972)" d="m0 0 4 2h2l2-2 19 28 10 14 26 36 5 6v2l-5-2-5-6-4-7-2-4h-2l-5-9-5-4-7-12-6-7-6-9-4-3v-4l-4-2v-2h-2l-5-7-3-3z" fill="#A58660"/>
<path transform="translate(1029,710)" d="m0 0 8 1 5 8v7l-2 14v7l-3 5-6 2h-5l2-5v-2l7-2 1-2v-25l-5-2-2 5-1 12v12l-2 1-5-2 3-1 1-11-1-7 1-9z" fill="#7E8891"/>
<path transform="translate(940,612)" d="m0 0 7 1 30 15 29 12 14 5 6 1 6-3 3-6 2-6h1v8l-8 9-1 1v3h2v2l6 2 2 3h-4-11l-1 2v-9l-5-5-16-5-10-3-5-3-16-8-21-10-10-5z" fill="#727B82"/>
<path transform="translate(1016,1020)" d="m0 0 5 2 14 7 15 6v2l5 1 3 3-1 3-4 1-9-4-10-3-4-3-22-5v-2l-6-2 4-1 6 2h10l-1-1z" fill="#787D80"/>
<path transform="translate(1191,696)" d="m0 0 3 1 3 2v17l1 2-1 13h-2v2l-5 2v2h-2v-39z" fill="#6B7983"/>
<path transform="translate(921,849)" d="m0 0 16 4 14 7 4 4 15 9 2 3-5-2-11-6-8-5-12-6-8-3-4-1v2h-2l1 5-1 13h-2l3 4v2l6 1 2 4h-10l-3-1-1-3v-20l2-7z" fill="#6B7983"/>
<path transform="translate(1153,1099)" d="m0 0h9l1 3 4 2 1 3h2l5 11 3 1-3 10-2 2-1-6-6-5-4-1-3-2-1-3-1-11h-7l-3 3-2-1 4-5z" fill="#A2835B"/>
<path transform="translate(1179,978)" d="m0 0h5l2 2v22l-2 3-2-1 2-9v-10l-1-3h-7l-20 9-17 5-9 4-20 5-14 1h-12l-8 2-1-2 5-2 23-1 12-2 16-6 10-3 17-6 9-4 6-3z" fill="#768895"/>
<path transform="translate(924,700)" d="m0 0h6l13 7 5 1 38 19 9 4 9 5 9 3v2l11 1v1h-8l-12-3-28-14-11-6-8-3v-2l-4-1-8-4-9-3-7-2 5 3v2h2v2l-7-2v-2l-4-1z" fill="#6E7A84"/>
<path transform="translate(972,295)" d="m0 0h1l3 40 3 5-1 3h-2v16l-4 2-10-3-4-4v-7h1l1 5 5 1 3 1 2-4 1-18v-27z" fill="#29475E"/>
<path transform="translate(1020,753)" d="m0 0 5 2 4 4 1 9-1 4 1 6v13l-1 3h-7l-18-6-12-5-8-4v-2l5-1 4-7 2 1-1 9 7 5 10 4 11 3h3l1-3-2-16v-9z" fill="#697780"/>
<path transform="translate(1064,613)" d="m0 0 6 2 2 4 1 11-3 10-7 1-3-4-1-5 1-16z" fill="#D7D8D9"/>
<path transform="translate(429,801)" d="m0 0h3v70l2 16 3 11v2h-2l-4-6-2-8-1-21v-27z" fill="#797D80"/>
<path transform="translate(1185,696)" d="m0 0h2l1 5 1 18-1 8h-1l-1-25-2-2-11 1-51 9-23 3-16 1-16-1-4-2v-1l11 1h18l12-1 7-2 20-3 21-3 6-2 15-2 1-1z" fill="#768895"/>
<path transform="translate(1054,609)" d="m0 0h1l1 35 4 4h20l11-1 11-3 19-2 37-5 24-4 5-1-2 4-50 7-30 4-24 4h-21l-5-4-1-2-1-28z" fill="#768895"/>
<path transform="translate(535,294)" d="m0 0h1l1 61h6l2 1 1-6 3-9 2-12 2-2 12-3-5 6-7 3-1 30-10-1-6-4-1-2z" fill="#2B495E"/>
<path transform="translate(303,579)" d="m0 0 5 1 3 5 4 11 1 10-1 5h-3l-1-3-3-1-6-12-1-3v-8z" fill="#AC8758"/>
<path transform="translate(460,964)" d="m0 0 4 2 4 15 1 4 1 7 1 4-5 3-2-3v-3l-4-1-2-7-2-11-1-4 1-2h3z" fill="#6B4822"/>
<path transform="translate(920,891)" d="m0 0 5 1 5 3v2l4 2h-6l-3 2-2 7-3 3v7l8 3 15 8v2l6 2 10 7 11 7 8 6 9 5 1 2-5-2-9-5-10-7-15-9v-2l-5-2-12-7-13-4-1-3v-18z" fill="#697781"/>
<path transform="translate(1195,928)" d="m0 0h3v26l-2 4-7 2-1-6v-24z" fill="#606A71"/>
<path transform="translate(922,653)" d="m0 0h2l2 5 12 4v2l5 2 20 9 4 4 15 6 14 7 13 4 6 3 4 3v2l-4-2-9-3-12-5-15-7-11-4-10-6-5-2-10-6-6-4-10-3h-3l-2 4-1-6z" fill="#606A71"/>
<path transform="translate(1014,645)" d="m0 0 5 2 5 5-1 9-1 5v19l-3 5h-10l-12-4-5-4v-2l-12-3-4-2v-2l10 3 9 4 7 5 8 2h6l1-2v-21l2-10-3-6z" fill="#697780"/>
<path transform="translate(1025,853)" d="m0 0 12 3 3 1v7l-3 8v10l1 11-1 1-9-1-9-3-16-8-12-7-10-5-1-2 5 2 40 20 9 1-2-6v-13l3-8 1-4h-2v-2l-6-2z" fill="#697780"/>
<path transform="translate(762,339)" d="m0 0 7 6 10-1v10l-4 4-2 1-10-1-9-6-3-4 8 1v2l3-1z" fill="#2B495F"/>
<path transform="translate(459,340)" d="m0 0 2 1-1 13-3 4-14-1-1 2h-6l-6-4-4-5h2v-2h2v2l7-1 2-7 6 1 2 1-3 3 1 3h2l1 4 5-1h3l1-5z" fill="#29485E"/>
<path transform="translate(474,276)" d="m0 0h6l6 6v14l-11 1-4-6v-10z" fill="#0F3A59"/>
<path transform="translate(1031,715)" d="m0 0 5 2 1 3v23l-3 4h-7v-15l2-15z" fill="#8298AA"/>
<path transform="translate(1085,1140)" d="m0 0 9 2 8 5 6 5 1 2v6l-1 1h-6l-9-6v-2h-2l-2-4-7-5 1-3z" fill="#886231"/>
<path transform="translate(951,861)" d="m0 0 6 2 8 5 7 4 10 7 12 6 14 4 7 3h3l-5-5 4 1 9 5v4l-15-1v-2l-16-4-6-2v-2l-6-2-6-3v-2l-5-2-5-5-15-9z" fill="#7B7F81"/>
<path transform="translate(1021,605)" d="m0 0h8l5 2 2 4-1 24-3 5-5 1 1-3 3-3 2-6v-14l-1-4-5-2-6 1-1 7-1 21-5 1-6-2-6-3 4-1 9 1 1-22 2-5z" fill="#758795"/>
<path transform="translate(929,654)" d="m0 0 12 2 10 5 3 3 2 1v2l7 1 9 4 4 4v2l-5 1-6-4-2-2-14-5-7-4-9-3v-2l-4-2z" fill="#878C8F"/>
<path transform="translate(1180,646)" d="m0 0h7v3l-29 3-23 4-26 3-16 1-15-1 2-2h15l16-2 13-1 16-3 14-1z" fill="#768896"/>
<path transform="translate(1050,844)" d="m0 0 5 2 3 3 2 6 4 2v5l-2 2h-9l-4-2-5-7v-5l4-5z" fill="#71777D"/>
<path transform="translate(908,718)" d="m0 0 4 5 5 11 3 8 2 24-2 15-3 18-3 9h-2l-1 2 1-4 3-14 2-13v-11l-2-27-3-12-4-7z" fill="#496177"/>
<path transform="translate(1179,842)" d="m0 0h6l1 5-9-2-12 3-37 11-17 4-21 2-18 1-6 2v-2l9-3 28-1 16-4 11-3h5v-2l14-4 4-2 9-1 10-3z" fill="#768895"/>
<path transform="translate(924,884)" d="m0 0 9 2 11 6 11 7 5 4 1 4-6-1-19-10-10-5-2-2z" fill="#8298AA"/>
<path transform="translate(625,691)" d="m0 0 2 1-9 9-19 12-23 10-23 6-6 1h-21l-11-1v-1l28-1 19-3 9-3 8-2 11-5 18-10 6-5 6-3z" fill="#566C81"/>
<path transform="translate(262,349)" d="m0 0 3 4 2 6-3 3-1 7-2-1-7 5-2-1v2h-3l-1 2-2-3 1-5 1-4v-5l-2-4 2-2 2 4h14l-2-3z" fill="#886231"/>
<path transform="translate(985,679)" d="m0 0 7 2 7 5 14 4 7 1-3 4v2h8v-2h6l3 3-6 3h-7l-14-7-15-5-8-5z" fill="#888C8F"/>
<path transform="translate(918,971)" d="m0 0 6 2 9 6 14 8 12 7v2l5 1 2 1v2l5 2 11 7 8 5 4 5 8 5-2 1-10-6-11-7-5-5-8-5-7-3-21-14-13-8-7-2-1 4v-7z" fill="#79858E"/>
<path transform="translate(1009,986)" d="m0 0 9 2 11 3 15 6 8 3 2 2 1 10-1 5-1 15h-4l1-9-2-18-3-3-9-4-14-6-11-4z" fill="#606A71"/>
<path transform="translate(932,897)" d="m0 0 5 1 12 5 3 2v2l5 2 13 7 16 10 1 3 9 2h7l-1-3-6-4 2-1 11 7 4 4-1 3-10-1-10-3-10-6-8-6-11-6-27-15z" fill="#7A7E80"/>
<path transform="translate(917,997)" d="m0 0 7 3 5 3 14 8 10 8 21 14 11 8-2 1-6-2-11-8-14-10-16-12-9-3-10-4z" fill="#778590"/>
<path transform="translate(936,712)" d="m0 0 6 1 16 8 21 11 19 9 15 5v2l7 2 6 3-4 1-14-5-18-8-32-16-13-7-9-5z" fill="#777C7F"/>
<path transform="translate(988,960)" d="m0 0 5 2 13 7 22 12 10 3 5-1 1-3v-5h3l2-5 3-2-1 17-2 3-6 1-12-4-17-8-13-8-5-2v-2l-4-1z" fill="#697781"/>
<path transform="translate(1179,934)" d="m0 0h5l2 4v22l-2 1v-21l-1-3-9 1-28 10-11 3-5 3h-2l-1 3-5 2h-11l-6 2h-26l3-2 23-1 6-2 13-2 11-6 15-4 25-9z" fill="#768896"/>
<path transform="translate(947,765)" d="m0 0 6 2 10 6 8 4 10 7 8 3 10 5 7 1 1-2-4-2-3-1v-2l5 2 15 4 2 2-10-1-2 1 3 3 3 2-1 2-17-6-9-4-10-3-10-10-16-8-6-4z" fill="#777C80"/>
<path transform="translate(1026,806)" d="m0 0 6 2 1 7-2 9 1 19-1 1-10-1-10-4-2-2 9 2 7 1 1-5-1-3v-8l2-8v-8z" fill="#697780"/>
<path transform="translate(927,1022)" d="m0 0 10 1 8 5 4 4 10 7-2 1-9-5-11-7h-8l-1 8 2 4 11 8-2 1-13-9-4-4v-2l-2-1 3-9z" fill="#697780"/>
<path transform="translate(934,605)" d="m0 0 10 1 30 14 10 5-4 1-9-4-3 1-2 1-12-7-14-5-6-5z" fill="#7B8790"/>
<path transform="translate(985,304)" d="m0 0 13 1 1 5-3 1-2 10-3 1 2 5-5-1-1 2h-2z" fill="#083556"/>
<path transform="translate(1196,839)" d="m0 0h2v29l-3 2-6-2v-12h3l1 1v-5l-4-4v-5l6-2z" fill="#606A71"/>
<path transform="translate(919,560)" d="m0 0 2 1 2 26-1 8 2 2 5 1 10 4 2 3-12-3 1 4 5 3-2 1-9-5-1-5-5-2 1 3-1 7h-1v-18l1-2v-27z" fill="#697780"/>
<path transform="translate(918,934)" d="m0 0 10 1 22 12 15 9 3 5-5-2-19-12-13-5-1-1h-5l-4 5-2 5h-1z" fill="#758490"/>
<path transform="translate(1192,649)" d="m0 0h4l1 2v29l-6 1-2-6v-8l1-10v-6h2z" fill="#697781"/>
<path transform="translate(311,351)" d="m0 0h1l1 9h-28l-6-4-3-4 13 1h7l7-1v2h8z" fill="#234359"/>
<path transform="translate(739,1347)" d="m0 0 7 2 5 7v5l-3 2h-9l-4-3-1-3v-7z" fill="#BE9E78"/>
<path transform="translate(1193,597)" d="m0 0 4 1 1 1-1 27-2 3-5-1v-22l1-7z" fill="#71777D"/>
<path transform="translate(1139,341)" d="m0 0 1 4-5 12-5 6-5 1h-7l-9-4-4-5 4 1 10 2 9-4 4-2v-2h2v-2h2l2-5z" fill="#4F667B"/>
<path transform="translate(1092,1056)" d="m0 0 10 1 2 7-4 5-8 2-4-2-2-3 1-8z" fill="#D7D8D9"/>
<path transform="translate(1065,666)" d="m0 0h5l3 3 1 6v7l-4 6-3 2-3-4-1-15z" fill="#D7D8D9"/>
<path transform="translate(362,343)" d="m0 0h2l-3 10-4 5-4 2h-13l-8-4-4-5 5 1 3 2h10l6-2 4-1 2-4z" fill="#234259"/>
<path transform="translate(973,776)" d="m0 0 10 1 17 9v2l4 1 3 2-1 3-10-2-11-6-7-3-5-5z" fill="#939698"/>
<path transform="translate(661,344)" d="m0 0 2 1-7 10-5 4-2 1-10-1-9-5-2-3 3-1 5 1 12 2 6-3 1-2h3v-2z" fill="#27455C"/>
<path transform="translate(524,1127)" d="m0 0 5 2 4 5 3 7v7l-1 2-4-1-3-2-7-16z" fill="#6B4822"/>
<path transform="translate(498,914)" d="m0 0 2 2 3 10 6 11v6l6 13 1 5-2-1-5-11v-3h-2l-2-6h-2l-1-4h-2v-3h-3l-2-7 1-7z" fill="#A4855E"/>
<path transform="translate(1022,603)" d="m0 0h10l9 4 4 3 8 1 1-2v8l-1 6-2-4-7-3-3 3-3-5v-2l-3-1-2-4-4-1h-9v-2z" fill="#747F89"/>
<path transform="translate(918,883)" d="m0 0h11l8 3 20 12 7 5-3 1-5-3-10-7-10-6-12-4 2 6 5 3 7 3 9 5-2 1-10-4-5-1v-2l-10-4v8h-1z" fill="#838A8F"/>
<path transform="translate(966,823)" d="m0 0 9 3 11 7 19 10 12 3 8 4 10 4v2l-6-1-10-4-24-9-12-6-2-3-6-3-9-6z" fill="#767B7F"/>
<path transform="translate(946,341)" d="m0 0 1 2-4 11-5 6-4 2h-9l-9-4-2-3 5 1h9l9-2 2-4 4-6h2z" fill="#51687D"/>
<path transform="translate(1197,885)" d="m0 0h1v26l-1 1h-5l-2-7 1-7-1-1v-7l5-3h2z" fill="#606A71"/>
<path transform="translate(925,840)" d="m0 0 10 4 9 4 7 4 4 5-3 2-16-8-10-4-2-6z" fill="#8296A7"/>
<path transform="translate(1151,941)" d="m0 0m-1 1m-6 1h6v2l-17 5-12 6-13 2-3 1-23 1-8 3-2 1-2 3-1-4 4-4 14-2h16l10-3 7-1 7-3h3l1-3 7-3z" fill="#74808A"/>
<path transform="translate(221,338)" d="m0 0 4 2-4 16-2 4-5 2-2-2-7-3-1-1v-5l4 4v-2h6l5-11z" fill="#25445B"/>
<path transform="translate(1012,792)" d="m0 0 12 3 3 2 11 3v6l-9-1-5-3-9-3-5-3v-2l-2-1z" fill="#898C8F"/>
<path transform="translate(1123,600)" d="m0 0h20v1l-22 3-23 2-7 1-15-2v-1l18-2 16-1z" fill="#74808A"/>
<path transform="translate(1230,343)" d="m0 0h1v10l-4 8-5 3-9-1-12-5-1-2 10 1h9l5-2 1-2 4-4z" fill="#536A7E"/>
<path transform="translate(920,1014)" d="m0 0 4 1 4 4 6 3-4 1-7 1-2 9 1 3-4-1-2-2v-15z" fill="#74808A"/>
<path transform="translate(1064,868)" d="m0 0h2l1 18 2 10 1 3 10 1h7l9-1-3 2-4 1-1 2h-15l-5-3-3-8-4-18z" fill="#828A90"/>
<path transform="translate(1184,916)" d="m0 0 1 4-6 4-21 7-34 9-13 5-5 1-3 2h-4v-2l15-5 13-5 15-3 37-12z" fill="#768895"/>
<path transform="translate(916,831)" d="m0 0 5 4 9 3 9 5 16 9 11 6 12 8-2 1-12-7-3-1v-2l-5-2-12-6-9-4-8-4v-2l-4 1-2 2v-2l-4-1z" fill="#717E88"/>
<path transform="translate(425,786)" d="m0 0h2l2 13v39l-2-1-2-15v-15l-1-6 1-4z" fill="#A3845E"/>
<path transform="translate(1179,747)" d="m0 0h7l1 3h-9l-24 4-26 6-12 3-13 2h-10l3-2 15-2 16-3 7-2 10-2 1-1 20-3z" fill="#768895"/>
<path transform="translate(1168,317)" d="m0 0 7 1 1 5-4 1-3 8-1 17v14l-6 1-3-4 7-1v-40z" fill="#53697D"/>
<path transform="translate(1107,901)" d="m0 0 8 1-1 4-12 4h-16l-1-3 6-2z" fill="#71777D"/>
<path transform="translate(1037,631)" d="m0 0h1v8l-8 9-1 1v3h2v2l6 2 2 3h-4-11l-1 2v-9l-5-5-5-3 2-1 10 3 7-3 3-6z" fill="#747F89"/>
<path transform="translate(917,839)" d="m0 0 5 1 5-1-2 4 2 4 16 6 3 4-5-1-6-3-10-2-4-1-2 4-1 6h-1z" fill="#878C8F"/>
<path transform="translate(551,294)" d="m0 0 6 1 3 2 1 3v7l-2 4-4 2-4-1z" fill="#88A2B8"/>
<path transform="translate(653,654)" d="m0 0h2l-2 6-8 11-9 12-8 8-5 2-4 5-5 1 5-5 2-3h2v-2l4-1 2-4 6-5 4-6h2l2-4 7-11z" fill="#28465C"/>
<path transform="translate(1041,867)" d="m0 0 6 2v13l-1 4-6 1-2-4v-11z" fill="#7F8991"/>
<path transform="translate(461,346)" d="m0 0 1 3 7 2 2 1v5h-4l-3 4h-10l-11-1v-4l14 1 2-3zm1 8m1 1 2 2v-2z" fill="#546B7F"/>
<path transform="translate(1016,1020)" d="m0 0 5 2 14 7 15 6v2l-5-1-7-3h-9l-6-2-15-1v-2l-6-2 4-1 6 2h10l-1-1z" fill="#737F89"/>
<path transform="translate(1127,844)" d="m0 0h5l-2 2-12 3-10 3-18 5-4 1h-8l-11-2-4-5 1-6 2 4v3l6 2h20l31-9z" fill="#7F8990"/>
<path transform="translate(1015,699)" d="m0 0 5 2 7 5 1 5-2 5-1 13 1 9-2 4h-7l-4-1 1-2 8 1-1-18 2-13-5-7z" fill="#697780"/>
<path transform="translate(1019,936)" d="m0 0 8 1 12 6 1 5-3 1-7-2-10-5-3-2v-3z" fill="#757F88"/>
<path transform="translate(1148,741)" d="m0 0h7l-4 2-9 2-21 4-5 2-10 2-9 3-19 2 1-3 8-1 20-4 16-4z" fill="#768895"/>
<path transform="translate(1034,769)" d="m0 0h4l1 3v18l-1 4-4 1-2-13v-11z" fill="#8298AA"/>
<path transform="translate(1051,832)" d="m0 0h6l3 3 4 16 2 4-2 3-5-3-3-7-5-3-3-1 6-2h3v-3l-2-1-5-5z" fill="#7A7F81"/>
<path transform="translate(973,305)" d="m0 0h1l2 30 3 5-1 3h-2v16l-4 2-5-1 4-4 1-3z" fill="#526A7F"/>
<path transform="translate(945,1029)" d="m0 0 5 2 16 10 9 6v2l4 1 7 4 1 2 5 3 1 3-5-1-9-7-7-4-13-9-5-5-9-6z" fill="#787C80"/>
<path transform="translate(1026,658)" d="m0 0h6l3 4-1 3-2-2h-7l-1 11 1 16-2 3h-3v-2h-7v-1l7-2 1-3v-19l1-5h2v-2z" fill="#768794"/>
<path transform="translate(1141,324)" d="m0 0h1v12l-1 5h-2l-2 5-1 2h-2v2h-2v2l-7 5-7 2-9-2-6-3-2-4 5 2 8 2h8l6-3h3l2-5 7-11z" fill="#234259"/>
<path transform="translate(1029,710)" d="m0 0 7 1v6l-5-1-2 5-1 12v12l-2 1-5-2 3-1 1-11-1-7 1-9z" fill="#758795"/>
<path transform="translate(966,957)" d="m0 0 11 6 9 6 6 2v2l4 2 3 2h5l2-3 7 5-1 2-10-1-9-3-14-9-5-3-6-3z" fill="#858B8F"/>
<path transform="translate(1186,799)" d="m0 0h1v30l-6 2v2l-12 3-9 2-5 2-11 2-4 2h-8l2-2 24-6 26-8 1-2z" fill="#768795"/>
<path transform="translate(1054,1084)" d="m0 0 2 1-1 4-10 6h-12l-2-4 10-1 1-5z" fill="#987139"/>
<path transform="translate(918,961)" d="m0 0 6 1 17 9 15 10 10 7 7 4 11 7-1 2-5-2-14-9-17-12-13-8-16-8z" fill="#768591"/>
<path transform="translate(1070,913)" d="m0 0 3 1-3 4 1 21 3 5 7 3 3 1h7l8-1-1 2-8 2-8-1-10-2-4-6-1-14-1-8 2-5z" fill="#7F8991"/>
<path transform="translate(737,333)" d="m0 0h2v2l-8 2 3 3 5 1-1 4-1-1-10 1-5-3-3-5 4-1v-2z" fill="#76899A"/>
<path transform="translate(1075,961)" d="m0 0 4 1-5 4-2 7-1 9 2 9 1 3 4 1h9l8-2h5v2l-12 3h-8l-6-2-5-5-1-13 3-14z" fill="#7D8891"/>
<path transform="translate(927,758)" d="m0 0 7 1 6 3 7 2 3 3 10 6 10 5 6 6-1 2-4-2-3-4-6-1-4-3v-2l-7-2-8-4-2-4-4 1-5-4-5-1z" fill="#606A71"/>
<path transform="translate(304,583)" d="m0 0h4l5 10v8l-2 3-5-5-3-5v-10z" fill="#BA9569"/>
<path transform="translate(890,350)" d="m0 0 1 2-6 9-6 4-8-1-7-5v-2h15l8-4h2z" fill="#53697E"/>
<path transform="translate(595,1278)" d="m0 0 2 1-1 11 3 7 9 9 15 9 5 4 3 1v2l4 1-1 3-10-6-5-4-5-3-6-3-5-5-1-3-3-1v-2h-2l-3-6-1-11z" fill="#A98559"/>
<path transform="translate(919,696)" d="m0 0 13 3 12 7 1 2-5-2-10-5-6-1 1 7 4 2h-7l-1 5-4-6v-11z" fill="#697781"/>
<path transform="translate(991,356)" d="m0 0h5v2l5-2 13 1h12l-1 5h-25l-7-3z" fill="#536A7F"/>
<path transform="translate(1191,326)" d="m0 0h1l1 35-4 1-5-3h-11l-1-3 4-7 2 1v3l13 2z" fill="#445E72"/>
<path transform="translate(920,891)" d="m0 0 5 1 5 3v2l4 2h-6l-3 2-2 7-3 3-1 7h-1v-17z" fill="#6C7983"/>
<path transform="translate(1024,754)" d="m0 0 9 1 1 2h3l5 5 2 1 1 10-3 4v-7l-3-5-7 1-2 2-1-5-2-6z" fill="#747F89"/>
<path transform="translate(1090,918)" d="m0 0 9 1 1 5-3 3-10 1-5-4 2-4z" fill="#9DB7CF"/>
<path transform="translate(934,899)" d="m0 0 6 2 23 13 14 8 9 7 10 4 4 2-1 2-10-4-12-7-5-4-24-13-13-8z" fill="#697780"/>
<path transform="translate(929,601)" d="m0 0 9 3h6l14 7 13 5 7 5 6 3-2 1-16-8-22-10-10-2 5 5 1 2-5-1-3-3-4-3z" fill="#697781"/>
<path transform="translate(927,752)" d="m0 0 6 1 8 2v2l6 2 6 4 7 3 1 2-16-4-18-10z" fill="#8296A7"/>
<path transform="translate(1060,347)" d="m0 0h1l1 16-1 1h-10l-6-3-3-5 18 1z" fill="#4E6579"/>
<path transform="translate(1145,791)" d="m0 0 4 1-19 6-13 3h-5v2l-10 2-5 3h-8l2-1v-2l15-4 24-6z" fill="#768896"/>
<path transform="translate(1198,909)" d="m0 0h1v69h-1v-7l-5-1 1-9 3-3z" fill="#8B98A2"/>
<path transform="translate(954,995)" d="m0 0 8 5 7 3 10 7 3 3 13 8 13 7-3 1-15-8-20-13-15-10z" fill="#6A7781"/>
<path transform="translate(1146,933)" d="m0 0m-3 1 3 1-10 4-8 1-15 7-14 3-9 3-4-2 17-4 6-3 8-2 14-5z" fill="#74808A"/>
<path transform="translate(562,324)" d="m0 0 3 1-7 6-5 2-1 30-10-1-2-3 10-1 1-29 2-2 8-2z" fill="#748694"/>
<path transform="translate(1049,693)" d="m0 0h2l2 9v6 3l-1 4-4-1 1-2-2-1-2-5 1-9 3-1z" fill="#7B7F81"/>
<path transform="translate(600,1285)" d="m0 0 5 3 4 4v2h2l3 5-1 3-5-1-8-7-1-6z" fill="#D7D8D9"/>
<path transform="translate(1199,993)" d="m0 0h1l1 32h-6l1-11-1-6 3-9z" fill="#919599"/>
<path transform="translate(1053,341)" d="m0 0 8 2-1 14h-14l-6-2v-2h6l9 2v-2h2l-2-4-2-1z" fill="#26455B"/>
<path transform="translate(1160,689)" d="m0 0 3 1v1l-17 3-28 4-9 2h-5l2-2 25-5z" fill="#768895"/>
<path transform="translate(1086,331)" d="m0 0h1l1 32-7-1-3-3-9-1 2-7h1v6l8-1 4-4 2-1z" fill="#2D4B61"/>
<path transform="translate(877,333)" d="m0 0h1v7l-3 6-2 1h-7l-2-3-1 2h-2v5h-1v-12l14 1 2-1z" fill="#51687D"/>
<path transform="translate(1141,981)" d="m0 0h8l-1 4-5 3-5 2-7 1-2-1 2-4 3-3z" fill="#697780"/>
<path transform="translate(958,859)" d="m0 0 4 1 8 5 10 5 7 5-1 4-5-2-11-8-5-3-6-3z" fill="#8298AA"/>
<path transform="translate(932,852)" d="m0 0 5 1 14 7 4 4 15 9 2 3-5-2-11-6-8-5-12-6z" fill="#6E7981"/>
<path transform="translate(1054,609)" d="m0 0h1l1 35 4 4h28l-2 2-11 1h-15l-5-4-1-2-1-28z" fill="#818A90"/>
<path transform="translate(485,326)" d="m0 0h1l1 36-5 1-11-5v-1l13-1z" fill="#576C7F"/>
<path transform="translate(262,349)" d="m0 0 3 4 2 6-3 3-1 7-1-4-5-1-3-2v-2h-5l-3-5 2-2 2 4h14l-2-3z" fill="#5D6A74"/>
<path transform="translate(687,296)" d="m0 0h5v59h-1v-54h-11l1-4z" fill="#556B7F"/>
<path transform="translate(587,341)" d="m0 0h1l1 14 9-1v-2h2v-8h1l1 17-10-1-5-3z" fill="#2A485F"/>
<path transform="translate(929,925)" d="m0 0 5 1 15 9v2l5 2 16 10 7 5-4 1-11-8-17-11-11-7-5-2z" fill="#758490"/>
<path transform="translate(625,691)" d="m0 0 2 1-9 9-19 12-13 6-3-1 23-13 8-6 6-3z" fill="#54697C"/>
<path transform="translate(1185,1094)" d="m0 0 1 4-7 21h-3v-8l2-5 1-5 4-6z" fill="#959899"/>
<path transform="translate(929,704)" d="m0 0 7 2 13 5 4 4-1 2-7-1-5-3-4-1v-2h-2v-2l-4-1-2-2z" fill="#868E95"/>
<path transform="translate(929,654)" d="m0 0 12 2 10 5v2h-4v-2h-3v3l-9-2-2-1v-2l-4-2z" fill="#7C868F"/>
<path transform="translate(611,1098)" d="m0 0 13 6 1 4h7l2 5-5 1-8-6-8-4-4-5z" fill="#A3835C"/>
<path transform="translate(280,356)" d="m0 0h33v4h-28l-5-3z" fill="#536A7E"/>
<path transform="translate(895,1242)" d="m0 0h6l7 6 2 6-3 1-7-4-5-6z" fill="#886231"/>
<path transform="translate(1185,696)" d="m0 0h2l1 5 1 18-1 8h-1l-1-25-2-2-11 1-10 2h-6l4-2 5-2 7-1 1-1z" fill="#758795"/>
<path transform="translate(961,859)" d="m0 0 5 1 10 6 4 1 4 4 16 8 13 7-3 1-21-11-7-3-5-4-14-7z" fill="#76828D"/>
<path transform="translate(936,712)" d="m0 0 6 1 16 8 20 11-1 2-23-11-18-10z" fill="#757B80"/>
<path transform="translate(917,321)" d="m0 0h1l2 16 4 6 4 1 4-4 2-7 2 3-1 5-5 6-5 1-6-5-3-8z" fill="#536B81"/>
<path transform="translate(919,935)" d="m0 0 7 1 14 8-2 1-8-4h-5l-4 5-2 5h-1v-15z" fill="#697781"/>
<path transform="translate(924,700)" d="m0 0h6l15 8-4 1-10-4-1 1 4 2v2h2v2l-7-2v-2l-4-1z" fill="#78848D"/>
<path transform="translate(1083,295)" d="m0 0h3l1 5v12h-1v-10l-13 1v12h-1v-13l4-4v-2z" fill="#556C81"/>
<path transform="translate(1034,764)" d="m0 0h5l4 6-1 17-1 7-2-2-1-20-2-7z" fill="#7F8991"/>
<path transform="translate(940,945)" d="m0 0 6 2 14 9 11 7 12 9 1 2-5-2-2-1v-2l-6-2-12-9-7-4-8-5z" fill="#697781"/>
<path transform="translate(932,897)" d="m0 0 5 1 12 5 3 2v2l5 2 13 7 5 3-1 2-11-6-27-15z" fill="#747F89"/>
<path transform="translate(987,728)" d="m0 0 7 2 6 4 13 5v2l11 1v1h-8l-12-3-13-7v-2l-4-1z" fill="#717A82"/>
<path transform="translate(993,793)" d="m0 0 5 1 22 8 8 6-1 4-5-5-16-7-12-5z" fill="#606A71"/>
<path transform="translate(544,725)" d="m0 0m-35 0h13l22 1-1 2h-35l-9-1v-1z" fill="#25445A"/>
<path transform="translate(929,970)" d="m0 0 6 2 10 7 2 4-5-1-13-7-1-4z" fill="#8CA8C0"/>
<path transform="translate(993,769)" d="m0 0 2 1-1 9 8 6-4 1-14-7v-2l5-1z" fill="#6B7983"/>
<path transform="translate(893,330)" d="m0 0 2 3v7l-3 10-5 4-5 3-3-1 5-4 5-6 1-3h2v-12z" fill="#2A485E"/>
<path transform="translate(990,1015)" d="m0 0 6 2 6 3v2l8 1 1-3 5 2 2 3-4 2-12-2-9-6v-2l-3-1z" fill="#888C8F"/>
<path transform="translate(917,947)" d="m0 0h1v15l6 2 1 2-1 4 3 4-1 2-6-4h-3z" fill="#828F9A"/>
<path transform="translate(966,823)" d="m0 0 9 3 11 7 12 7v1l-7-1-8-4-2-3-6-3-9-6z" fill="#797D80"/>
<path transform="translate(486,284)" d="m0 0h1v25h-1v-7h-12l2-5 10-1z" fill="#5E7182"/>
<path transform="translate(484,281)" d="m0 0 2 1v14l-11 1 3-5 2-1 3-8z" fill="#224259"/>
<path transform="translate(918,971)" d="m0 0 6 2 9 6 14 8 2 4-5-2-16-10-4-3-6-1-1 4v-7z" fill="#76848F"/>
<path transform="translate(975,955)" d="m0 0h5l13 9 3 1 1 2 8 3 4 4-5-2-9-3-7-4v-2l-5-2-8-5z" fill="#7C868E"/>
<path transform="translate(1152,801)" d="m0 0h6l-3 2-19 5-21 5h-4v-2l16-4 23-5z" fill="#7D8891"/>
<path transform="translate(980,684)" d="m0 0h6l8 5 16 5 9 5-2 1-17-6-13-5-7-4z" fill="#767B7F"/>
<path transform="translate(976,673)" d="m0 0 10 3 9 4 7 5 8 2v2l3 1-8-1-9-4-4-3v-2l-12-3-4-2z" fill="#6A7780"/>
<path transform="translate(690,366)" d="m0 0h1v7l-2 6h-6l-10-5 1-3 2 2h8l5-1z" fill="#51687E"/>
<path transform="translate(739,1347)" d="m0 0 7 2 5 7v5l-3 2h-9l-4-3-1-3v-7zm-2 3-1 1v7l2 3 9 1 2-2v-5l-4-5z" fill="#AD8758"/>
<path transform="translate(918,919)" d="m0 0 1 3 7 1 3 1v2l-6 1 1 4 2 4-8-1z" fill="#7F8F9C"/>
<path transform="translate(368,884)" d="m0 0 2 1-6 9-5 5-8 6v-3l4-5 4-4h2l2-5z" fill="#2A485E"/>
<path transform="translate(1184,873)" d="m0 0v3l-9 4-15 5-6 3-4-1v-2l33-11z" fill="#768895"/>
<path transform="translate(572,1032)" d="m0 0 4 4 10 14 5 6v2l-5-2-5-6-4-7-2-4h-2l-2-5z" fill="#A58863"/>
<path transform="translate(917,708)" d="m0 0 3 3v20l-4-1-1-3-2-2 2-1z" fill="#74818C"/>
<path transform="translate(682,275)" d="m0 0 7 1 4 5v2l-3-1-1 2-5-1-1-3-2 2-4-1 3-5z" fill="#2B4960"/>
<path transform="translate(1195,805)" d="m0 0 2 2v13l-7 1v-8l3-3z" fill="#606A71"/>
<path transform="translate(984,632)" d="m0 0 5 1 17 7 7 2 1 3-9-2-13-4-5-3z" fill="#757B7F"/>
<path transform="translate(1177,598)" d="m0 0h11l1 1 1 29-3 4 1-32-9 1h-11l1-2z" fill="#768795"/>
<path transform="translate(690,362)" d="m0 0 1 4-2 6-7 2h-6l-2-2 1-3 2 1v-2h2v2l10-3z" fill="#204057"/>
<path transform="translate(811,313)" d="m0 0 4 2-6 10-2 6h-1l-1-14 1-2z" fill="#4D657B"/>
<path transform="translate(926,749)" d="m0 0 10 3 3 3-6-1-6-2 3 3 13 7-3 1-11-6h-5l-1-7z" fill="#767F87"/>
<path transform="translate(231,310)" d="m0 0 4 1 2 11-4 3-3-2v-9z" fill="#6A8194"/>
<path transform="translate(917,1009)" d="m0 0 6 2 7 6v2l5 1v2l2 1-4-1-8-4-1-3-6 1-2 2v-8z" fill="#808A92"/>
<path transform="translate(430,876)" d="m0 0h2l3 14 2 10h-2l-4-6-2-10z" fill="#7D8184"/>
<path transform="translate(939,844)" d="m0 0 7 3 13 7 10 6 9 6-2 1-12-7-3-1v-2l-5-2-12-6-5-3z" fill="#6B7882"/>
<path transform="translate(917,637)" d="m0 0h1l1 27 1 7v11l-3 3z" fill="#8C97A1"/>
<path transform="translate(391,347)" d="m0 0h1l1 11h-10l-7-3 1-4 2 2h9l2-2z" fill="#335066"/>
<path transform="translate(917,839)" d="m0 0 4 1v5l2 1v2l6 2 2 2-6-1-4-1-2 4-1 6h-1z" fill="#838E98"/>
<path transform="translate(972,876)" d="m0 0 4 1 7 4 14 7 13 4 5 3-4 1v-2l-16-4-6-2v-2l-6-2-6-3v-2l-5-2z" fill="#6F777D"/>
<path transform="translate(961,812)" d="m0 0h8l3 4v2l5 2 10 5-4 1-9-4-7-4v-3l-6-2z" fill="#72808A"/>
<path transform="translate(361,348)" d="m0 0 1 3-5 7-4 2h-13l-5-2 3-1 10 1v-2l5-1 5-3 1-2h2z" fill="#52697D"/>
<path transform="translate(751,348)" d="m0 0 8 1v2l4-1 4 6 6 2v1l-10-1-9-6z" fill="#304D62"/>
<path transform="translate(959,1026)" d="m0 0 5 2 9 4 12 9-2 1-6-2-11-8-7-5z" fill="#7C878F"/>
<path transform="translate(1041,867)" d="m0 0 2 1v3l-1 7 2 8-4 1-2-4v-11z" fill="#768896"/>
<path transform="translate(959,280)" d="m0 0h8l1 2-7 1-1 48h-1l-1-50z" fill="#314E64"/>
<path transform="translate(1017,844)" d="m0 0 9 2 7 3v3l-4 1-12-6z" fill="#888C8F"/>
<path transform="translate(1187,671)" d="m0 0h1v13l-4 4-3 1-18 1 4-2 15-4 5-1z" fill="#768896"/>
<path transform="translate(938,663)" d="m0 0 6 1 12 6 8 3 6 5v2l-4-1-5-4-11-5-12-6z" fill="#767B7F"/>
<path transform="translate(1013,887)" d="m0 0 4 1 9 5v4l-11-1-3-2v-2h6z" fill="#797F82"/>
<path transform="translate(1e3 883)" d="m0 0 6 2 8 4 3 4-8-1-7-3-4-2 3-1z" fill="#7F8990"/>
<path transform="translate(1127,844)" d="m0 0h5l-2 2-12 3-10 3-14 4 1-3z" fill="#778895"/>
<path transform="translate(1061,769)" d="m0 0h1l1 32 1 3 5 2-4 1-4-2-1-22v-11z" fill="#898C8F"/>
<path transform="translate(936,1079)" d="m0 0 4 3v2l6 2 1 3 7 2 12 6-2 1-14-5-11-8-3-2z" fill="#AE8858"/>
<path transform="translate(1013,840)" d="m0 0 12 3v2l8 1 4 2-1 5-4 1 1-4-9-4-10-3z" fill="#7E8891"/>
<path transform="translate(1158,700)" d="m0 0 4 1-7 3-20 4h-5l1-3 21-3z" fill="#788894"/>
<path transform="translate(306,489)" d="m0 0 3 3 9 19v3h-2l-4-9-2-4v-2h-2l-2-3z" fill="#72512D"/>
<path transform="translate(1187,749)" d="m0 0h1l1 18-1 13h-2v-30z" fill="#74838F"/>
<path transform="translate(974,319)" d="m0 0h1l1 16 3 5-1 3h-2v16h-1l-1-9z" fill="#A5B6C4"/>
<path transform="translate(1091,1055)" d="m0 0h9l6 2-1 7-2-1-1-5-10-1-5 1v8 3l-3-3-1-5 4-5z" fill="#8CA8C0"/>
<path transform="translate(934,1023)" d="m0 0 5 1 6 4 4 4 10 7-2 1-9-5-9-6v-3l-5-2z" fill="#717980"/>
<path transform="translate(931,884)" d="m0 0 6 2 20 12 7 5-3 1-5-3-10-7-15-9z" fill="#788590"/>
<path transform="translate(1112,994)" d="m0 0 3 2-1 3-13 3-1-4 9-3z" fill="#6B777F"/>
<path transform="translate(429,801)" d="m0 0h3l-1 27h-2z" fill="#8C8F91"/>
<path transform="translate(882,293)" d="m0 0 10 2v1l-12 1v10l-3-3-1-2v-7z" fill="#4E6579"/>
<path transform="translate(890,849)" d="m0 0 2 1-7 10-10 12-2-2 9-11 1-2h2l2-5z" fill="#344F62"/>
<path transform="translate(549,726)" d="m0 0m-6 1h6v2l-2 1h-21l-11-1v-1z" fill="#5A6F80"/>
<path transform="translate(1218,316)" d="m0 0h10l-1 12-3-2-2-5-4-3z" fill="#7E95A7"/>
<path transform="translate(922,1028)" d="m0 0 2 4v2h2v2h2l2 4 11 8-2 1-13-9-4-4v-2l-2-1z" fill="#70777D"/>
<path transform="translate(916,993)" d="m0 0h1v10l9 3-3 6-6-2h-1z" fill="#9FA1A3"/>
<path transform="translate(963,816)" d="m0 0h4v2l5 2 8 4 5 3-1 2-4-1-8-4-5-2-2-4z" fill="#8197A9"/>
<path transform="translate(929,929)" d="m0 0 6 2 8 6v2l-7-1-6-4z" fill="#8CA8C0"/>
<path transform="translate(1195,778)" d="m0 0h1l1 13-5 1-2-3v-6l4-2z" fill="#75818B"/>
<path transform="translate(551,294)" d="m0 0 6 1 3 2 1 3v7l-2 4-4 2-4-1zm1 1v16l2 1 5-3v-10l-5-4z" fill="#566A7B"/>
<path transform="translate(981,1010)" d="m0 0 4 1 5 3 4 5 8 5-2 1-10-6-11-7z" fill="#7B848C"/>
<path transform="translate(1063,655)" d="m0 0h8l9 2-2 2-17 1-2 1 2-4z" fill="#7F8990"/>
<path transform="translate(1132,357)" d="m0 0h2l-2 4-2 2-5 1h-7l-6-2v-1l17-2z" fill="#7A8893"/>
<path transform="translate(1197,913)" d="m0 0h1v14l-6-1 1-8h2v-2h2z" fill="#74818B"/>
<path transform="translate(922,653)" d="m0 0h2l2 5 12 4-1 2-13-2-2 4-1-6z" fill="#616C73"/>
<path transform="translate(417,350)" d="m0 0h1v8h-9l-6-1 3-2 8-3z" fill="#304C62"/>
<path transform="translate(597,1065)" d="m0 0 4 5 11 14 1 2h-3v-2l-4-2-4-6-2-4h-2z" fill="#A68965"/>
<path transform="translate(1063,817)" d="m0 0h2l-1 11v17h-1l-2-15-1-4 2-8z" fill="#8A8D8F"/>
<path transform="translate(1061,711)" d="m0 0 3 1-3 3-2 16v20h-1l-1-25 1-13z" fill="#7E8891"/>
<path transform="translate(1036,675)" d="m0 0h1l2 16-3 5-3 1-4-3 5-3 1-3z" fill="#768895"/>
<path transform="translate(666,627)" d="m0 0h2l-3 10-9 17-1-3 7-14v-4l3-3z" fill="#355267"/>
<path transform="translate(968,621)" d="m0 0 5 1 7 3 2 3-5 1-9-4-1-3z" fill="#878D92"/>
<path transform="translate(972,920)" d="m0 0 5 2 9 7 10 4 4 2-1 2-10-4-12-7-5-4z" fill="#6C777F"/>
<path transform="translate(972,964)" d="m0 0 6 2 10 7 6 4 1 3-6-2-5-3-5-5-7-5z" fill="#707C86"/>
<path transform="translate(918,961)" d="m0 0 6 1 17 9 7 5-3 1-11-7-16-8z" fill="#75838E"/>
<path transform="translate(918,883)" d="m0 0h11l3 3-8-1v6l-2 1-2-1v8h-1z" fill="#818C96"/>
<path transform="translate(373,868)" d="m0 0 3 4 2 6-1 9-3-4-2-6z" fill="#696E72"/>
<path transform="translate(926,793)" d="m0 0 8 2 5 5-6-2-7-3 2 9h7l1 2h-7l-4-3v-9z" fill="#747D83"/>
<path transform="translate(1141,324)" d="m0 0h1v12l-1 5h-2l-2 5-1 2h-2v2h-2v2l-2-1 10-16z" fill="#345065"/>
<path transform="translate(1147,885)" d="m0 0h3l1 3-24 6-2-1 10-4z" fill="#7C8892"/>
<path transform="translate(765,348)" d="m0 0h5l2 6-3 1v2l-4-2-2-5z" fill="#063455"/>
<path transform="translate(1062,891)" d="m0 0h3l4 10 5 6h-6l-4-9-2-4z" fill="#7A7F81"/>
<path transform="translate(929,601)" d="m0 0 9 3 3 2-7-1 5 5 1 2-5-1-3-3-4-3z" fill="#737E88"/>
<path transform="translate(222,342)" d="m0 0h1l-1 9-1 7-5 4-4-2 5-4 3-8z" fill="#5C6F7F"/>
<path transform="translate(1196,828)" d="m0 0h1l2 10-4 1-3 1-2-3 1-4 4-2z" fill="#7F8E99"/>
<path transform="translate(1192,1021)" d="m0 0 4 1-3 5-4 1-6-2v-2z" fill="#A3835B"/>
<path transform="translate(312,592)" d="m0 0h2l2 9v9h-2l-1-2-4-2v-3h2l1-2z" fill="#AE8858"/>
<path transform="translate(463,349)" d="m0 0 6 2 2 1v5h-4l-2 2-1-2 1-2h-4v-2h2z" fill="#99AAB8"/>
<path transform="translate(941,756)" d="m0 0h6l2 1v2l7 2 6 3v2l-9-2-8-5z" fill="#727F89"/>
<path transform="translate(1034,616)" d="m0 0 2 2-1 17-3 5-5 1 1-3 3-3 2-6z" fill="#768896"/>
<path transform="translate(1169,321)" d="m0 0h6l-4 5-2 6-1 13h-1v-22h2z" fill="#95A6B4"/>
<path transform="translate(1196,871)" d="m0 0h2v12l-5 1v-7z" fill="#7D8A95"/>
<path transform="translate(945,707)" d="m0 0 16 8 1 2 3 2-6-1-2-1v-2l-4-1-8-4z" fill="#6F7C86"/>
<path transform="translate(653,654)" d="m0 0h2l-2 6-8 11h-3l6-10z" fill="#324F64"/>
<path transform="translate(1187,596)" d="m0 0 4 1v28h-2l-1-26-2-2z" fill="#757F88"/>
<path transform="translate(1085,306)" d="m0 0h1l1 6v19h-1l-2-7v-14z" fill="#204057"/>
<path transform="translate(813,305)" d="m0 0h2l1 7-1 2-9 1-1 2 1-4 4-1 1-3z" fill="#28475D"/>
<path transform="translate(551,351)" d="m0 0h1v12l-10-1-2-3 10-1z" fill="#61707D"/>
<path transform="translate(719,335)" d="m0 0 4 1-3 2 4 5 8 1 6-1v5l-1-2h-11l-7-4-2-5z" fill="#4A6278"/>
<path transform="translate(687,296)" d="m0 0h5v4l-3 1h-9l1-4z" fill="#6D7E8C"/>
<path transform="translate(948,1016)" d="m0 0 4 2 10 7 6 4-2 1-5-3-5-2-7-6z" fill="#76848F"/>
<path transform="translate(1095,993)" d="m0 0h5v2l-12 3h-8l-4-2 11-1z" fill="#7A8893"/>
<path transform="translate(1176,324)" d="m0 0h1l2 20-1 5-3-1z" fill="#25455C"/>
<path transform="translate(469 1e3)" d="m0 0h3l3 5 4 2 2 4-1 3h-1l-3-1v-5l-4-2-3-4z" fill="#6B4822"/>
<path transform="translate(962,997)" d="m0 0 4 1v2l5 2 11 7-1 2-5-2-10-7-4-4z" fill="#838A90"/>
<path transform="translate(1040,824)" d="m0 0 3 1 1 6-2 6h-2l-1-8z" fill="#8A8D8F"/>
<path transform="translate(994,743)" d="m0 0 9 3 17 7 2 3-4-1-11-5-12-5z" fill="#606A71"/>
<path transform="translate(1013,1020)" d="m0 0 4 1 4 3v2h2l-1 2h-10l-6-2 4-1 5 1 2-2z" fill="#7E8891"/>
<path transform="translate(1e3 786)" d="m0 0 5 2 15 4 2 2-15-1v-2l-4-2-3-1z" fill="#778086"/>
<path transform="translate(1026,695)" d="m0 0 7 1 1 2-6 3h-7l-2-2 6-1z" fill="#7F8991"/>
<path transform="translate(928,651)" d="m0 0 9 3 1 2-9-2 2 4 2 2h-5l-2-3 1-5z" fill="#737F89"/>
<path transform="translate(1186,983)" d="m0 0h1l1 17 1 6-7 2 3-6z" fill="#74808A"/>
<path transform="translate(1027,795)" d="m0 0 1 2h7l6-2-1 8-2 2v-5l-6-1-7-2z" fill="#7E8891"/>
<path transform="translate(1e3 974)" d="m0 0 7 4v3l-10-1-3-2 6-2z" fill="#8A8D8F"/>
<path transform="translate(966,957)" d="m0 0 11 6 5 5h-3l-5-3-6-3z" fill="#81898F"/>
<path transform="translate(1070,913)" d="m0 0 3 1-3 4v10l-1-2-3-1 1-9z" fill="#818990"/>
<path transform="translate(1e3 1012)" d="m0 0 5 1 10 6v1h-6l-6-4z" fill="#7A8690"/>
<path transform="translate(953,950)" d="m0 0 5 2 6 3 4 6-5-2-9-6z" fill="#79858F"/>
<path transform="translate(1186,898)" d="m0 0 2 1v10l-1 7h-2v-16z" fill="#74838E"/>
<path transform="translate(1069,981)" d="m0 0 2 1 2 9 1 3 4 2-3 1-5-4-1-2z" fill="#808990"/>
<path transform="translate(1018,848)" d="m0 0 6 1 5 3 6 2v2l-6-1-10-4z" fill="#797D80"/>
<path transform="translate(303,595)" d="m0 0 4 4 3 7 4 2 1 3h-3l-1-3-3-1-5-9z" fill="#A4835A"/>
<path transform="translate(1167,349)" d="m0 0h1v14l-6 1-3-4 7-1z" fill="#7B8C9B"/>
<path transform="translate(1151,342)" d="m0 0h1v14l5-1v2h2v3l-6-1-2-1z" fill="#3F5A70"/>
<path transform="translate(803,294)" d="m0 0 7 6 1 2-5-1-2-2-4 1-3 2 2-4z" fill="#425D75"/>
<path transform="translate(964,823)" d="m0 0 5 2 6 4 8 5-2 1-9-5-5-2v-2l-3-1z" fill="#71777D"/>
<path transform="translate(916,718)" d="m0 0 1 2h2v11l-3-1-1-3-2-2 2-1z" fill="#8193A2"/>
<path transform="translate(997,1050)" d="m0 0 6 2 4 2 5 5-6-1-8-5z" fill="#6F7C86"/>
<path transform="translate(1042,788)" d="m0 0 3 1v3l2 1-3 1-1 4-2 1-1-5z" fill="#74808A"/>
<path transform="translate(1025,853)" d="m0 0 12 3 3 1v4l-6-1v-2l-6-2z" fill="#6F777D"/>
<path transform="translate(601,354)" d="m0 0h1v7l-10-1-2-2h4l6-1z" fill="#576D81"/>
<path transform="translate(726,335)" d="m0 0h9l-4 2 3 3v2h-2v-2h-6l-3-3z" fill="#99B0C3"/>
<path transform="translate(1217,316)" d="m0 0 6 5 3 6 1 4-7-6-3-6z" fill="#4D6478"/>
<path transform="translate(974,782)" d="m0 0 4 2 10 4 5 4-4-1-10-3-5-5z" fill="#6D777E"/>
<path transform="translate(992,681)" d="m0 0 5 2 3 2 10 2v2l3 1-8-1-9-4z" fill="#767D82"/>
<path transform="translate(984,632)" d="m0 0 5 1 10 5v1h-7l-5-3z" fill="#777C80"/>
<path transform="translate(1040,353)" d="m0 0h6l7 2 1 2h-8l-6-2z" fill="#234259"/>
<path transform="translate(1054,301)" d="m0 0 6 2v10l-1 2-4-1 3-2v-5h-2z" fill="#385469"/>
<path transform="translate(895,1100)" d="m0 0 4 1-2 4-4 4-4 6-2-1 7-11z" fill="#AF9068"/>
<path transform="translate(969 1e3)" d="m0 0 5 1 5 4 2 4-5-2-7-5z" fill="#6D7A84"/>
<path transform="translate(962,946)" d="m0 0 5 1 10 7-4 1-11-8z" fill="#788590"/>
<path transform="translate(926,749)" d="m0 0 10 3 3 3-6-1-6-2 1 3h-2v-2l-2-1z" fill="#768490"/>
<path transform="translate(974,350)" d="m0 0h1v10l-3 1-5-1 2-2 4-5z" fill="#52697D"/>
<path transform="translate(972,909)" d="m0 0 5 2 12 7 1 2-9-3-5-3z" fill="#77828C"/>
<path transform="translate(625,691)" d="m0 0 2 1-9 9-6 3 2-4 7-5z" fill="#516577"/>
<path transform="translate(653,355)" d="m0 0 2 1-6 4-10-1 1-2h8z" fill="#576D80"/>
<path transform="translate(1111,332)" d="m0 0h1l3 10 2 5-4-1-2-1z" fill="#3F5B70"/>
<path transform="translate(719,315)" d="m0 0 6 1 1 4h-7l-1-4z" fill="#8D9BA7"/>
<path transform="translate(298,280)" d="m0 0h13l-2 3h-11z" fill="#3A5569"/>
<path transform="translate(918,971)" d="m0 0 6 2 4 5-4-2-6-1-1 4v-7z" fill="#75808A"/>
<path transform="translate(932,897)" d="m0 0 5 1 12 5 3 3-10-3-10-5z" fill="#79848D"/>
<path transform="translate(924,700)" d="m0 0h6l5 3-3 1-5-1v4h-2z" fill="#74808A"/>
<path transform="translate(917,999)" d="m0 0 1 2 10 3 2 3-6-1-7-3z" fill="#7E8991"/>
<path transform="translate(1064,845)" d="m0 0 2 4v3l6 2-1 2-5-1-3-4z" fill="#838A90"/>
<path transform="translate(927,839)" d="m0 0 11 3 1 4-6-2-6-3z" fill="#77828A"/>
<path transform="translate(1087,356)" d="m0 0h1v7l-7-1-2-3h8z" fill="#607587"/>
<path transform="translate(723,345)" d="m0 0 14 1-1 4-6-1v-2h-7z" fill="#224158"/>
<path transform="translate(562,324)" d="m0 0 3 1-5 5-8-1 1-2 8-2z" fill="#4F677C"/>
<path transform="translate(875,278)" d="m0 0h6l-4 2-7 3-3-1 4-3zm-10 5 2 1-2 1z" fill="#365469"/>
<path transform="translate(917,997)" d="m0 0 7 3 5 3 2 2-6-1-7-3z" fill="#74808A"/>
<path transform="translate(1086,936)" d="m0 0 5 1 1 2-2 3-4-1-1-3z" fill="#9DB7CF"/>
<path transform="translate(975,920)" d="m0 0 5 2 7 5 1 3-5-2-8-6z" fill="#777F84"/>
<path transform="translate(996,923)" d="m0 0 6 2 9 7-1 2-10-7z" fill="#747F89"/>
<path transform="translate(923,885)" d="m0 0 2 4 6 4 5 2-3 1-7-2-3-4z" fill="#878C8F"/>
<path transform="translate(1013,840)" d="m0 0 12 3 1 3-12-3z" fill="#79858E"/>
<path transform="translate(924,797)" d="m0 0h1l2 7 9 2 2 3-11-2-3-3z" fill="#6E777E"/>
<path transform="translate(553,725)" d="m0 0h7v2l-7 2h-4l1-3z" fill="#52697D"/>
<path transform="translate(1061,357)" d="m0 0h1v6l-1 1h-10l2-2h5l1-3z" fill="#798893"/>
<path transform="translate(985,335)" d="m0 0 2 1 2 8-2 3-3-3z" fill="#0C3757"/>
<path transform="translate(656,1333)" d="m0 0 2 4-5 1-4-2-2-2z" fill="#A3835B"/>
<path transform="translate(623,1318)" d="m0 0 8 2v2l4 1-1 3-10-6z" fill="#A78459"/>
<path transform="translate(961,859)" d="m0 0 5 1 8 5-1 2-10-5z" fill="#7D878E"/>
<path transform="translate(961,812)" d="m0 0h8l3 4v2l-5-2-6-3z" fill="#697781"/>
<path transform="translate(999,338)" d="m0 0 2 4 7 1-1 3h-6l-2-2z" fill="#5D758A"/>
<path transform="translate(878,295)" d="m0 0h4v2h-2v10l-3-3-1-4h2z" fill="#637686"/>
<path transform="translate(935,1021)" d="m0 0 5 1 5 3 2 4-5-2-5-3v-2z" fill="#848B8F"/>
<path transform="translate(975,955)" d="m0 0h5l8 5v1h-5l-8-5z" fill="#7A858E"/>
<path transform="translate(882,860)" d="m0 0 1 3-8 9-2-2z" fill="#365164"/>
<path transform="translate(1158,700)" d="m0 0 4 1-7 3h-12v-1l9-1z" fill="#7D8892"/>
<path transform="translate(1e3 633)" d="m0 0 14 1v2l-4 2-4-1-6-3z" fill="#74808A"/>
<path transform="translate(917,321)" d="m0 0h1l1 18-2-1-1-8z" fill="#576C80"/>
<path transform="translate(810,316)" d="m0 0 3 1-4 8-2-1v-7z" fill="#6F7D88"/>
<path transform="translate(232,313)" d="m0 0 3 1v7l-4-1z" fill="#CED3D7"/>
<path transform="translate(1015,986)" d="m0 0h6l8 3v2l-11-2v-2z" fill="#6E777E"/>
<path transform="translate(923,839)" d="m0 0h4l-1 2h-1v7h-2v-2l-3-1 2-5z" fill="#808990"/>
<path transform="translate(1195,768)" d="m0 0 2 2-1 4-2 3-4-1 1-3h3z" fill="#606A71"/>
<path transform="translate(764,317)" d="m0 0 4 1-4 4-2 6h-1v-8h2z" fill="#4C6479"/>
<path transform="translate(1102,951)" d="m0 0 4 3-6 2-5-1 2-2z" fill="#606A71"/>
<path transform="translate(1196,822)" d="m0 0h1l-1 9-5 2 2-5 3-1z" fill="#75818B"/>
<path transform="translate(922,708)" d="m0 0 7 1-2 3-3-1-1 3h-2v-5z" fill="#606A71"/>
<path transform="translate(231,343)" d="m0 0 2 1v2l-3-1z" fill="#949799"/>
<path transform="translate(227,347)" d="m0 0 2 1-1 2-2-1z" fill="#B5B7B8"/>
<path transform="translate(374,886)" d="m0 0" fill="#8A8D8F"/>
</svg>
