<svg width="534" height="356" viewBox="0 0 534 356" fill="none" xmlns="http://www.w3.org/2000/svg">
<g clip-path="url(#clip0_12_190)">
<path d="M390.814 74.2339H132.532C131.259 74.234 130.039 74.7765 129.138 75.7425C128.238 76.7084 127.731 78.0187 127.729 79.3856V210.332C127.731 211.699 128.237 213.01 129.138 213.977C130.038 214.944 131.259 215.488 132.532 215.49H390.814C392.087 215.487 393.306 214.942 394.205 213.975C395.104 213.009 395.61 211.698 395.611 210.332V79.3856C395.609 78.0197 395.104 76.7101 394.204 75.7443C393.305 74.7785 392.086 74.2353 390.814 74.2339Z" fill="#3F3D56"/>
<path d="M322.592 137.32C321.32 137.321 320.101 137.864 319.201 138.83C318.302 139.796 317.796 141.105 317.795 142.471V179.46C317.796 180.826 318.302 182.137 319.201 183.104C320.1 184.071 321.319 184.615 322.592 184.618H395.611V137.32H322.592Z" fill="#6C63FF"/>
<path opacity="0.5" d="M518.39 184.615H322.594C321.321 184.614 320.101 184.07 319.201 183.103C318.301 182.137 317.795 180.826 317.793 179.459V142.472C317.795 141.106 318.301 139.795 319.201 138.829C320.101 137.862 321.321 137.318 322.594 137.317H518.39C519.663 137.318 520.883 137.862 521.783 138.829C522.683 139.795 523.189 141.106 523.19 142.472V179.459C523.189 180.826 522.683 182.137 521.783 183.103C520.883 184.07 519.663 184.614 518.39 184.615Z" fill="#6C63FF"/>
<path d="M349.072 171.697C353.374 171.697 356.862 167.951 356.862 163.331C356.862 158.71 353.374 154.964 349.072 154.964C344.77 154.964 341.283 158.71 341.283 163.331C341.283 167.951 344.77 171.697 349.072 171.697Z" fill="white"/>
<path d="M512.324 160.9H371.573C370.957 160.9 370.367 160.637 369.932 160.17C369.497 159.703 369.253 159.069 369.253 158.408C369.253 157.748 369.497 157.114 369.932 156.647C370.367 156.179 370.957 155.917 371.573 155.917H512.324C512.939 155.917 513.529 156.179 513.964 156.647C514.399 157.114 514.643 157.748 514.643 158.408C514.643 159.069 514.399 159.703 513.964 160.17C513.529 160.637 512.939 160.9 512.324 160.9Z" fill="white"/>
<path d="M458.865 170.744H371.573C370.957 170.744 370.367 170.482 369.932 170.014C369.497 169.547 369.253 168.913 369.253 168.253C369.253 167.592 369.497 166.958 369.932 166.491C370.367 166.024 370.957 165.761 371.573 165.761H458.865C459.48 165.761 460.07 166.024 460.505 166.491C460.94 166.958 461.185 167.592 461.185 168.253C461.185 168.913 460.94 169.547 460.505 170.014C460.07 170.482 459.48 170.744 458.865 170.744Z" fill="white"/>
<path d="M90.1028 348.689L96.8441 348.688L100.051 320.761H90.1016L90.1028 348.689Z" fill="#FFB6B6"/>
<path d="M88.3833 346.325L90.2808 346.325L97.6889 343.089L101.659 346.324C103.903 346.325 106.056 347.282 107.642 348.986C109.229 350.69 110.12 353.001 110.12 355.411V355.706L88.3837 355.707L88.3833 346.325Z" fill="#2F2E41"/>
<path d="M29.1904 339.276L35.2242 342.505L49.6936 319.047L40.7891 314.28L29.1904 339.276Z" fill="#FFB6B6"/>
<path d="M28.6334 336.336L30.3316 337.245L38.3057 337.898L40.5155 342.696C42.5237 343.771 44.0524 345.659 44.7646 347.945C45.4769 350.23 45.3147 352.726 44.3139 354.883L44.1913 355.147L24.7368 344.733L28.6334 336.336Z" fill="#2F2E41"/>
<path d="M93.0894 221.853L50.2263 223.054L50.9717 245.471C50.9717 245.471 50.2263 251.476 51.7172 253.077C53.2081 254.679 53.9535 254.679 53.2081 257.481C52.4626 260.283 50.5355 287.057 50.5355 287.057C50.5355 287.057 32.9432 320.467 33.6887 321.267C34.4341 322.068 35.1795 321.267 34.4341 323.269C33.6887 325.27 32.9432 324.47 33.6887 325.27C34.349 326.035 34.9711 326.837 35.5523 327.672H47.7017C47.7017 327.672 48.3811 323.669 48.3811 323.269C48.3811 322.869 49.1265 320.467 49.1265 320.066C49.1265 319.666 70.3533 295.511 70.3533 295.511L74.826 255.479L85.635 294.711C85.635 294.711 85.635 329.138 86.3804 329.939C87.1259 330.739 87.1259 330.339 86.7532 331.94C86.3804 333.541 84.8895 333.141 86.0077 334.342C87.1259 335.543 87.4986 333.541 87.1259 335.543L86.7532 337.545L101.073 337.716C101.073 337.716 102.564 334.342 101.818 333.141C101.073 331.94 101.118 332.268 102.027 330.303C102.936 328.337 103.309 327.937 102.936 327.537C102.564 327.136 102.564 325.007 102.564 325.007C102.564 325.007 97.1894 246.272 97.1894 245.071C97.1613 244.453 97.2673 243.837 97.499 243.27V241.64L96.0712 235.864L93.0894 221.853Z" fill="#2F2E41"/>
<path d="M517.553 152.344C514.3 152.344 511.12 151.308 508.415 149.367C505.71 147.426 503.602 144.667 502.357 141.439C501.112 138.211 500.786 134.659 501.421 131.232C502.056 127.806 503.622 124.658 505.922 122.187C508.223 119.717 511.153 118.034 514.344 117.353C517.534 116.671 520.841 117.021 523.847 118.358C526.852 119.695 529.421 121.959 531.228 124.864C533.035 127.769 534 131.185 534 134.679C534 139.364 532.267 143.857 529.183 147.17C526.098 150.483 521.915 152.344 517.553 152.344Z" fill="#6C63FF"/>
<path d="M524.042 132.936H519.175V127.708C519.175 127.246 519.004 126.803 518.7 126.476C518.395 126.149 517.983 125.966 517.552 125.966C517.122 125.966 516.709 126.149 516.405 126.476C516.101 126.803 515.93 127.246 515.93 127.708V132.936H511.063C510.849 132.936 510.638 132.98 510.441 133.068C510.244 133.155 510.064 133.284 509.913 133.445C509.762 133.607 509.643 133.799 509.561 134.011C509.479 134.223 509.437 134.45 509.437 134.679C509.437 134.908 509.479 135.135 509.561 135.346C509.643 135.558 509.762 135.75 509.913 135.912C510.064 136.074 510.244 136.202 510.441 136.29C510.638 136.377 510.849 136.422 511.063 136.421H515.93V141.649C515.93 142.111 516.101 142.554 516.405 142.881C516.709 143.208 517.122 143.392 517.552 143.392C517.983 143.392 518.395 143.208 518.7 142.881C519.004 142.554 519.175 142.111 519.175 141.649V136.421H524.042C524.472 136.421 524.885 136.238 525.189 135.911C525.494 135.584 525.665 135.141 525.665 134.679C525.665 134.217 525.494 133.773 525.189 133.447C524.885 133.12 524.472 132.936 524.042 132.936Z" fill="white"/>
<path d="M266.538 184.854H204.046C202.773 184.856 201.552 185.4 200.652 186.367C199.751 187.334 199.245 188.645 199.244 190.012V215.49H271.335V190.012C271.334 188.646 270.828 187.335 269.929 186.369C269.03 185.402 267.811 184.857 266.538 184.854Z" fill="#6C63FF"/>
<path opacity="0.5" d="M266.536 256.441H204.044C202.771 256.439 201.551 255.896 200.651 254.929C199.751 253.963 199.245 252.652 199.244 251.285V190.01C199.245 188.643 199.751 187.332 200.651 186.366C201.551 185.399 202.771 184.856 204.044 184.854H266.536C267.809 184.856 269.029 185.399 269.929 186.366C270.829 187.332 271.335 188.643 271.337 190.01V251.285C271.335 252.652 270.829 253.963 269.929 254.929C269.029 255.896 267.809 256.439 266.536 256.441Z" fill="#6C63FF"/>
<path d="M222.456 213.899C226.758 213.899 230.245 210.153 230.245 205.532C230.245 200.912 226.758 197.166 222.456 197.166C218.154 197.166 214.666 200.912 214.666 205.532C214.666 210.153 218.154 213.899 222.456 213.899Z" fill="white"/>
<path d="M253.594 226.615H216.986C216.371 226.615 215.781 226.352 215.346 225.885C214.911 225.418 214.667 224.784 214.667 224.123C214.667 223.463 214.911 222.829 215.346 222.362C215.781 221.895 216.371 221.632 216.986 221.632H253.594C254.209 221.632 254.799 221.895 255.234 222.362C255.669 222.829 255.913 223.463 255.913 224.123C255.913 224.784 255.669 225.418 255.234 225.885C254.799 226.352 254.209 226.615 253.594 226.615Z" fill="white"/>
<path d="M234.651 236.459H216.986C216.37 236.459 215.78 236.197 215.345 235.729C214.91 235.262 214.666 234.629 214.666 233.968C214.666 233.307 214.91 232.673 215.345 232.206C215.78 231.739 216.37 231.476 216.986 231.476H234.651C235.266 231.476 235.856 231.739 236.291 232.206C236.726 232.673 236.97 233.307 236.97 233.968C236.97 234.629 236.726 235.262 236.291 235.729C235.856 236.197 235.266 236.459 234.651 236.459Z" fill="white"/>
<path d="M202.741 274.425C199.488 274.425 196.308 273.389 193.603 271.448C190.898 269.507 188.79 266.748 187.545 263.52C186.301 260.292 185.975 256.74 186.61 253.313C187.244 249.887 188.811 246.739 191.111 244.268C193.411 241.798 196.342 240.115 199.532 239.434C202.723 238.752 206.03 239.102 209.035 240.439C212.041 241.776 214.609 244.04 216.417 246.945C218.224 249.85 219.189 253.266 219.189 256.76C219.189 261.445 217.456 265.938 214.371 269.251C211.287 272.564 207.103 274.425 202.741 274.425Z" fill="#6C63FF"/>
<path d="M209.231 255.017H204.364V249.789C204.364 249.327 204.193 248.884 203.889 248.557C203.584 248.23 203.172 248.047 202.741 248.047C202.311 248.047 201.898 248.23 201.594 248.557C201.29 248.884 201.119 249.327 201.119 249.789V255.017H196.252C196.038 255.017 195.827 255.061 195.63 255.149C195.432 255.236 195.253 255.364 195.102 255.526C194.951 255.688 194.832 255.88 194.75 256.092C194.668 256.304 194.626 256.53 194.626 256.76C194.626 256.989 194.668 257.215 194.75 257.427C194.832 257.639 194.951 257.831 195.102 257.993C195.253 258.155 195.432 258.283 195.63 258.37C195.827 258.458 196.038 258.503 196.252 258.502H201.119V263.73C201.119 264.192 201.29 264.635 201.594 264.962C201.898 265.289 202.311 265.472 202.741 265.472C203.172 265.472 203.584 265.289 203.889 264.962C204.193 264.635 204.364 264.192 204.364 263.73V258.502H209.231C209.661 258.502 210.074 258.319 210.378 257.992C210.683 257.665 210.854 257.222 210.854 256.76C210.854 256.297 210.683 255.854 210.378 255.527C210.074 255.201 209.661 255.017 209.231 255.017Z" fill="white"/>
<path d="M195.128 145.9H132.635C131.363 145.899 130.142 145.355 129.243 144.389C128.343 143.422 127.836 142.112 127.835 140.745V79.4693C127.836 78.1024 128.343 76.7919 129.243 75.8254C130.143 74.8589 131.363 74.3152 132.635 74.3137H195.128C196.4 74.3152 197.62 74.8589 198.52 75.8254C199.42 76.7919 199.926 78.1024 199.928 79.4693V140.745C199.926 142.112 199.42 143.422 198.52 144.389C197.62 145.355 196.4 145.899 195.128 145.9Z" fill="#6C63FF"/>
<path d="M151.048 108.471C155.35 108.471 158.837 104.726 158.837 100.105C158.837 95.4845 155.35 91.7388 151.048 91.7388C146.746 91.7388 143.258 95.4845 143.258 100.105C143.258 104.726 146.746 108.471 151.048 108.471Z" fill="#6C63FF"/>
<path d="M182.185 118.631H145.578C144.963 118.631 144.373 118.368 143.938 117.901C143.503 117.434 143.258 116.8 143.258 116.14C143.258 115.479 143.503 114.845 143.938 114.378C144.373 113.911 144.963 113.648 145.578 113.648H182.185C182.801 113.648 183.391 113.911 183.826 114.378C184.261 114.845 184.505 115.479 184.505 116.14C184.505 116.8 184.261 117.434 183.826 117.901C183.391 118.368 182.801 118.631 182.185 118.631Z" fill="#6C63FF"/>
<path d="M163.243 128.475H145.578C144.963 128.475 144.373 128.213 143.938 127.746C143.503 127.278 143.258 126.645 143.258 125.984C143.258 125.323 143.503 124.689 143.938 124.222C144.373 123.755 144.963 123.492 145.578 123.492H163.243C163.858 123.492 164.448 123.755 164.883 124.222C165.318 124.689 165.563 125.323 165.563 125.984C165.563 126.645 165.318 127.278 164.883 127.746C164.448 128.213 163.858 128.475 163.243 128.475Z" fill="#6C63FF"/>
<path opacity="0.5" d="M195.128 145.9H132.635C131.363 145.899 130.142 145.355 129.243 144.389C128.343 143.422 127.836 142.112 127.835 140.745V79.4693C127.836 78.1024 128.343 76.7919 129.243 75.8254C130.143 74.8589 131.363 74.3152 132.635 74.3137H195.128C196.4 74.3152 197.62 74.8589 198.52 75.8254C199.42 76.7919 199.926 78.1024 199.928 79.4693V140.745C199.926 142.112 199.42 143.422 198.52 144.389C197.62 145.355 196.4 145.899 195.128 145.9Z" fill="#6C63FF"/>
<path d="M151.048 108.471C155.35 108.471 158.837 104.726 158.837 100.105C158.837 95.4845 155.35 91.7388 151.048 91.7388C146.746 91.7388 143.258 95.4845 143.258 100.105C143.258 104.726 146.746 108.471 151.048 108.471Z" fill="white"/>
<path d="M182.185 118.631H145.578C144.963 118.631 144.373 118.368 143.938 117.901C143.503 117.434 143.258 116.8 143.258 116.14C143.258 115.479 143.503 114.845 143.938 114.378C144.373 113.911 144.963 113.648 145.578 113.648H182.185C182.801 113.648 183.391 113.911 183.826 114.378C184.261 114.845 184.505 115.479 184.505 116.14C184.505 116.8 184.261 117.434 183.826 117.901C183.391 118.368 182.801 118.631 182.185 118.631Z" fill="white"/>
<path d="M163.243 128.475H145.578C144.963 128.475 144.373 128.213 143.938 127.746C143.503 127.278 143.258 126.645 143.258 125.984C143.258 125.323 143.503 124.689 143.938 124.222C144.373 123.755 144.963 123.492 145.578 123.492H163.243C163.858 123.492 164.448 123.755 164.883 124.222C165.318 124.689 165.563 125.323 165.563 125.984C165.563 126.645 165.318 127.278 164.883 127.746C164.448 128.213 163.858 128.475 163.243 128.475Z" fill="white"/>
<path d="M133.924 87.5348C140.827 87.5348 146.422 81.5254 146.422 74.1123C146.422 66.6993 140.827 60.6898 133.924 60.6898C127.022 60.6898 121.427 66.6993 121.427 74.1123C121.427 81.5254 127.022 87.5348 133.924 87.5348Z" fill="#FF6584"/>
<path d="M131.254 109.666C131.768 111.209 131.696 112.906 131.055 114.393C130.414 115.88 129.255 117.037 127.827 117.614C127.511 117.741 127.185 117.837 126.854 117.902L123.553 139.608L115.811 131.93L120.132 112.495C119.972 110.857 120.418 109.217 121.375 107.931C122.332 106.644 123.721 105.813 125.244 105.618C126.524 105.46 127.817 105.775 128.909 106.51C130.001 107.246 130.828 108.359 131.254 109.666Z" fill="#FFB6B6"/>
<path d="M74.1147 158.848C74.1147 158.848 80.1238 150.321 101.929 150.555L114.306 145.725L117.135 117.876L127.035 120.408L125.621 154.839L104.406 168.004L76.5916 174.08L74.1147 158.848Z" fill="#3F3D56"/>
<path d="M70.9221 141.083C78.0698 141.083 83.8641 134.86 83.8641 127.183C83.8641 119.506 78.0698 113.283 70.9221 113.283C63.7743 113.283 57.98 119.506 57.98 127.183C57.98 134.86 63.7743 141.083 70.9221 141.083Z" fill="#FFB6B6"/>
<path d="M49.0175 232.578C48.9945 232.579 48.9717 232.575 48.9496 232.569C48.7106 232.497 48.5219 232.44 49.3842 224.432L50.3148 218.102L49.4063 212.513L47.878 210.872L50.3342 208.234L52.3953 201.946L48.829 196.27L44.7373 173.058C44.0338 169.052 44.5805 164.909 46.2924 161.272C48.0043 157.634 50.7859 154.705 54.2058 152.938L58.9415 151.452L60.6646 148.058C61.1484 147.105 61.8609 146.308 62.728 145.75C63.5951 145.193 64.5854 144.894 65.596 144.886L74.2683 144.816C75.1432 144.809 76.0078 145.02 76.7942 145.432C77.5807 145.844 78.2676 146.446 78.8011 147.191L81.8266 151.415L94.373 155.993L92.2927 204.136C92.6232 204.433 92.8926 204.8 93.084 205.215C93.2754 205.629 93.3847 206.082 93.4047 206.544C93.4248 207.007 93.3554 207.469 93.2007 207.9C93.0461 208.332 92.8097 208.725 92.5065 209.054C92.376 209.195 92.2723 209.311 92.2085 209.387C91.9969 209.709 92.3938 212.119 92.8839 214.165L93.5123 217.297C93.3106 217.452 93.141 217.65 93.0142 217.879C92.8874 218.108 92.8061 218.362 92.7755 218.626C92.7449 218.89 92.7656 219.159 92.8363 219.414C92.907 219.669 93.0262 219.906 93.1863 220.109L93.9876 221.125C94.146 222.4 93.8273 223.69 93.1013 224.713C92.3754 225.735 91.3014 226.407 90.115 226.581C78.6488 228.257 49.0774 232.578 49.0175 232.578Z" fill="#3F3D56"/>
<path d="M67.6112 140.403C67.5559 140.272 67.5008 140.141 67.4458 140.009C67.467 140.01 67.488 140.013 67.5092 140.014L67.6112 140.403Z" fill="#2F2E41"/>
<path d="M57.62 113.915C58.2345 113.292 59.0332 112.921 59.8765 112.867C60.7134 112.896 61.5621 113.708 61.3887 114.588C62.9259 111.665 65.3726 109.416 68.2995 108.238C71.2263 107.059 74.4462 107.025 77.3939 108.142C79.474 108.93 81.5138 110.507 81.9916 112.82C82.0381 113.427 82.2067 114.016 82.4857 114.546C82.7275 114.83 83.0413 115.031 83.3884 115.126C83.7354 115.22 84.1006 115.204 84.439 115.078L84.4595 115.071C84.5753 115.029 84.7004 115.025 84.8184 115.059C84.9365 115.094 85.0421 115.166 85.1217 115.266C85.2013 115.366 85.2511 115.489 85.2648 115.62C85.2785 115.75 85.2553 115.882 85.1984 115.998L84.6099 117.177C85.3518 117.355 86.1226 117.337 86.8568 117.126C86.9788 117.092 87.1076 117.099 87.2257 117.146C87.3439 117.194 87.4454 117.279 87.5165 117.391C87.5875 117.503 87.6246 117.636 87.6227 117.771C87.6208 117.906 87.5799 118.038 87.5056 118.147C86.5275 119.584 85.2506 120.757 83.7765 121.57C82.3023 122.384 80.6716 122.817 79.0142 122.835C76.6627 122.82 74.287 121.949 71.9985 122.53C71.1131 122.755 70.2858 123.189 69.5773 123.802C68.8688 124.415 68.297 125.191 67.9039 126.072C67.5108 126.953 67.3064 127.917 67.3057 128.895C67.3049 129.872 67.5078 130.837 67.8996 131.718C67.1965 130.892 65.8374 131.088 65.1183 131.898C64.7871 132.331 64.5423 132.833 64.399 133.372C64.2558 133.912 64.2171 134.477 64.2854 135.033C64.4772 136.735 64.9479 138.388 65.6757 139.915C62.895 139.823 60.2075 138.817 57.9763 137.032C55.745 135.247 54.0776 132.77 53.1991 129.935C52.3207 127.1 52.2736 124.043 53.0642 121.178C53.8548 118.313 55.445 115.778 57.62 113.915Z" fill="#2F2E41"/>
<path d="M54.059 252.514C52.8217 251.556 51.9846 250.114 51.7283 248.498C51.472 246.883 51.817 245.224 52.6889 243.88C52.8823 243.583 53.0998 243.305 53.3388 243.05L44.6055 223.157L55.0358 224.771L61.7301 243.414C62.7259 244.666 63.2231 246.289 63.1139 247.931C63.0048 249.574 62.2982 251.104 61.1469 252.191C60.1749 253.101 58.9437 253.628 57.6557 253.687C56.3677 253.746 55.0993 253.332 54.059 252.514Z" fill="#FFB6B6"/>
<path d="M51.4146 241.652L37.5176 208.107L37.3784 181.612L41.759 167.301C42.3534 165.359 43.304 163.565 44.5549 162.025C45.8058 160.485 47.3314 159.23 49.0417 158.333C50.752 157.437 52.6121 156.918 54.5123 156.807C56.4125 156.697 58.314 156.996 60.1046 157.688L60.2011 157.725L60.2416 157.826C60.4035 158.232 64.0776 167.993 53.1794 188.073L50.9861 201.813L58.6821 233.307L51.4146 241.652Z" fill="#3F3D56"/>
</g>
<defs>
<clipPath id="clip0_12_190">
<rect width="534" height="356" fill="white"/>
</clipPath>
</defs>
</svg>
