<svg width="150" height="150" viewBox="0 0 150 150" fill="none" xmlns="http://www.w3.org/2000/svg">
<path d="M72.2634 55.7544C73.0839 54.5704 74.4389 54.9164 75.3404 55.7521C76.5007 56.8276 76.8325 58.7917 77.0037 60.5327C77.2934 63.48 77.3792 67.6463 79.9304 68.8785C81.109 69.4478 82.4583 68.9777 83.4539 68.0533C84.5413 67.0436 85.2196 65.4904 85.6739 63.8807C86.224 61.9319 86.5424 59.8471 86.8123 57.8047C87.0883 55.7161 87.2692 53.605 87.3504 51.488C87.4299 49.4168 87.3782 47.3593 87.3153 45.2895C87.2663 43.6734 87.2475 41.9764 87.6642 40.4311C88.0851 38.8704 89.0635 37.6833 90.3501 37.5267C91.5989 37.3747 92.8851 38.0646 93.7886 39.178C95.9565 41.8496 96.0585 46.2111 96.543 49.7931C96.7976 51.6752 97.1697 53.5796 97.9498 55.217C98.5914 56.5637 99.483 57.6926 100.51 58.5302C102.581 60.2197 105.221 60.7127 107.52 59.552C109.764 58.4188 111.57 55.9417 112.352 52.9642C112.545 52.2289 112.664 51.4693 112.725 50.6965C112.753 50.3371 112.324 50.3397 112.296 50.6965C112.039 53.981 110.43 56.9556 108.224 58.5134C105.955 60.1164 103.207 59.913 100.99 58.2512C99.9 57.4342 98.9518 56.2819 98.293 54.8767C97.4941 53.1725 97.1519 51.1861 96.903 49.2357C96.4535 45.7132 96.2496 41.6687 94.2344 38.9641C92.6716 36.8665 89.7956 36.0248 88.116 38.3612C86.3865 40.767 86.9049 44.6424 86.9602 47.6288C87.041 52.0026 86.6968 56.3865 85.9338 60.646C85.6017 62.5 85.2197 64.4119 84.3861 66.0017C83.6243 67.4546 82.3792 68.5808 80.9928 68.5629C79.6102 68.545 78.6387 67.2137 78.1479 65.6266C77.63 63.9522 77.5961 62.1438 77.4169 60.3763C77.2524 58.7537 76.9527 56.9582 76.0239 55.7707C75.3016 54.8473 74.2302 54.2529 73.2136 54.4653C72.7252 54.5673 72.292 54.8782 71.9602 55.3572C71.775 55.6243 72.0774 56.0228 72.2634 55.7544Z" fill="#6C63FF"/>
<path d="M134.238 115.817C133.996 115.284 132.952 115.855 132.76 115.371C132.569 114.889 133.539 114.154 134.093 112.476C134.193 112.173 134.823 110.266 134.357 109.678C133.473 108.562 129.428 113.165 128.013 111.659C127.702 111.328 127.485 110.668 126.545 109.597C126.171 109.171 125.945 108.978 125.726 109.05C125.415 109.151 125.391 109.696 125.058 110.767C124.558 112.372 124.263 112.275 123.972 113.557C123.756 114.508 123.805 115.061 123.551 115.168C123.191 115.321 122.86 114.312 122.404 114.402C121.939 114.494 121.658 115.669 121.569 116.548C121.402 118.199 121.865 119.288 122.121 120.433C122.4 121.677 122.565 123.569 121.922 126.248L115.553 149.757C116.959 144.933 121.03 131.709 122.741 126.795C123.235 125.377 123.78 123.938 124.9 123.37C125.977 122.823 127.458 123.15 129.345 122.554C129.566 122.485 130.177 122.281 130.254 121.809C130.318 121.42 129.958 121.202 130.013 120.837C130.088 120.348 130.795 120.342 131.665 119.777C132.278 119.379 132.66 118.905 132.988 118.498C133.087 118.375 134.559 116.527 134.238 115.817Z" fill="#F2F2F2"/>
<path d="M109.181 128.193C108.912 128.194 108.824 129.031 108.588 129.014C108.352 128.998 108.357 128.163 107.888 127.322C107.803 127.17 107.27 126.215 106.915 126.345C106.242 126.591 106.8 130.52 105.827 130.996C105.614 131.1 105.304 131.049 104.631 131.345C104.364 131.462 104.226 131.552 104.19 131.714C104.138 131.943 104.335 132.116 104.64 132.639C105.098 133.423 104.976 133.585 105.372 134.142C105.666 134.555 105.888 134.683 105.855 134.877C105.808 135.153 105.334 135.075 105.237 135.394C105.137 135.719 105.496 136.239 105.8 136.55C106.37 137.133 106.911 137.15 107.414 137.316C107.961 137.496 108.718 137.935 109.535 139.122L116.505 150C115.104 147.704 111.324 141.271 109.977 138.753C109.588 138.026 109.206 137.261 109.316 136.377C109.423 135.526 109.972 134.668 110.293 133.283C110.331 133.121 110.431 132.669 110.277 132.483C110.149 132.33 109.964 132.499 109.843 132.358C109.681 132.169 109.883 131.712 109.922 130.99C109.95 130.481 109.883 130.099 109.825 129.77C109.807 129.671 109.54 128.191 109.181 128.193Z" fill="#F2F2F2"/>
<path d="M114.557 129.774L114.395 127.875L114.469 127.732C114.812 127.066 114.987 126.416 114.989 125.799C114.989 125.701 114.986 125.603 114.982 125.503C114.968 125.107 114.951 124.615 115.147 124.041C115.256 123.722 115.565 122.981 116.029 123.073C116.154 123.096 116.248 123.171 116.32 123.259C116.33 123.237 116.341 123.215 116.353 123.191C116.497 122.902 116.612 122.778 116.722 122.659C116.807 122.568 116.894 122.473 117.031 122.25C117.091 122.151 117.138 122.065 117.178 121.993C117.298 121.774 117.454 121.513 117.731 121.517C118.026 121.536 118.181 121.855 118.283 122.067C118.466 122.445 118.549 122.717 118.604 122.898C118.624 122.964 118.647 123.038 118.658 123.061C118.753 123.244 119.527 123.073 119.818 123.01C120.473 122.867 121.039 122.744 121.272 123.284C121.44 123.671 121.315 124.183 120.892 124.845C120.76 125.052 120.62 125.208 120.495 125.331C120.599 125.412 120.691 125.535 120.728 125.73C120.817 126.19 120.515 126.651 119.831 127.102C119.662 127.215 119.433 127.365 119.113 127.437C118.962 127.471 118.827 127.48 118.711 127.484C118.708 127.572 118.692 127.667 118.652 127.766C118.532 128.054 118.282 128.192 117.905 128.159C117.491 128.13 117.15 128.027 116.849 127.936C116.587 127.857 116.36 127.79 116.182 127.806C115.853 127.841 115.599 128.186 115.301 128.634L114.557 129.774Z" fill="#F2F2F2"/>
<path d="M115.309 118.472L113.949 119.159L113.824 119.101C113.246 118.835 112.721 118.778 112.265 118.932C112.193 118.957 112.121 118.986 112.048 119.016C111.76 119.134 111.401 119.281 110.927 119.178C110.663 119.12 110.038 118.917 109.988 118.306C109.973 118.142 110.005 118.003 110.052 117.89C110.033 117.882 110.014 117.874 109.993 117.865C109.743 117.756 109.623 117.642 109.507 117.533C109.418 117.449 109.326 117.362 109.126 117.245C109.039 117.193 108.963 117.156 108.9 117.124C108.707 117.028 108.475 116.895 108.408 116.544C108.347 116.165 108.544 115.888 108.674 115.704C108.906 115.377 109.086 115.203 109.206 115.087C109.249 115.045 109.298 114.998 109.312 114.977C109.424 114.81 109.101 113.873 108.981 113.52C108.709 112.727 108.474 112.04 108.815 111.608C109.058 111.298 109.467 111.325 110.063 111.694C110.249 111.808 110.401 111.946 110.523 112.073C110.556 111.922 110.624 111.773 110.758 111.677C111.075 111.448 111.492 111.714 111.999 112.465C112.125 112.652 112.294 112.903 112.429 113.29C112.492 113.473 112.532 113.643 112.565 113.789C112.631 113.769 112.705 113.765 112.788 113.792C113.032 113.871 113.196 114.153 113.268 114.638C113.352 115.17 113.362 115.629 113.371 116.033C113.379 116.386 113.387 116.69 113.444 116.911C113.553 117.319 113.873 117.554 114.279 117.818L115.309 118.472Z" fill="#F2F2F2"/>
<path d="M114.557 112.879L114.395 110.981L114.469 110.837C114.812 110.172 114.987 109.522 114.989 108.905C114.989 108.807 114.986 108.709 114.982 108.609C114.968 108.213 114.951 107.721 115.147 107.147C115.256 106.827 115.565 106.087 116.029 106.178C116.154 106.201 116.248 106.276 116.32 106.364C116.33 106.342 116.341 106.32 116.353 106.296C116.497 106.008 116.612 105.884 116.722 105.765C116.807 105.673 116.894 105.579 117.031 105.355C117.091 105.257 117.138 105.171 117.178 105.099C117.298 104.879 117.454 104.618 117.731 104.623C118.026 104.641 118.181 104.961 118.283 105.173C118.466 105.55 118.549 105.823 118.604 106.003C118.624 106.069 118.647 106.143 118.658 106.166C118.753 106.35 119.527 106.178 119.818 106.116C120.473 105.973 121.039 105.849 121.272 106.39C121.44 106.777 121.315 107.288 120.892 107.951C120.76 108.157 120.62 108.314 120.495 108.437C120.599 108.517 120.691 108.641 120.728 108.835C120.817 109.296 120.515 109.757 119.831 110.208C119.662 110.32 119.433 110.471 119.113 110.543C118.962 110.577 118.827 110.585 118.711 110.59C118.708 110.678 118.692 110.773 118.652 110.871C118.532 111.16 118.282 111.297 117.905 111.264C117.491 111.236 117.15 111.132 116.849 111.042C116.587 110.963 116.36 110.896 116.182 110.911C115.853 110.946 115.599 111.292 115.301 111.74L114.557 112.879Z" fill="#F2F2F2"/>
<path d="M116.038 149.726L115.735 149.476L115.381 149.53C115.375 149.487 115.356 149.388 115.327 149.233C115.168 148.384 114.685 145.801 114.282 141.733C114.001 138.894 113.842 135.974 113.809 133.055C113.776 130.131 113.882 127.918 113.966 126.139C114.03 124.797 114.108 123.519 114.184 122.274C114.387 118.949 114.579 115.808 114.436 112.33C114.405 111.554 114.339 109.938 113.618 108.219C113.2 107.221 112.624 106.336 111.906 105.588L112.353 104.853C113.145 105.68 113.782 106.66 114.246 107.768C115.045 109.674 115.117 111.435 115.152 112.281C115.297 115.82 115.103 118.991 114.898 122.349C114.823 123.589 114.745 124.861 114.681 126.197C114.597 127.96 114.493 130.154 114.525 133.04C114.558 135.925 114.715 138.808 114.992 141.612C115.39 145.629 115.867 148.173 116.023 149.009C116.106 149.455 116.124 149.549 116.038 149.726Z" fill="#F2F2F2"/>
<path d="M110.592 107.079C110.563 107.079 110.533 107.078 110.503 107.076C109.893 107.033 109.328 106.554 108.824 105.654C108.587 105.231 108.466 104.747 108.225 103.784C108.187 103.636 108.005 102.882 107.895 101.846C107.822 101.168 107.832 100.885 107.934 100.635C108.048 100.356 108.232 100.162 108.439 100.031C108.43 99.9409 108.437 99.8484 108.467 99.754C108.589 99.3626 108.914 99.4139 109.089 99.4387C109.178 99.4533 109.289 99.4726 109.409 99.4643C109.597 99.4524 109.698 99.3791 109.851 99.2691C109.998 99.1637 110.18 99.0326 110.45 98.9602C110.983 98.8145 111.43 99.0125 111.577 99.0775C112.352 99.4157 112.734 100.205 113.177 101.119C113.265 101.302 113.567 101.969 113.767 102.884C113.911 103.544 113.891 103.837 113.847 104.055C113.759 104.504 113.551 104.76 113.023 105.327C112.471 105.92 112.194 106.217 111.956 106.397C111.402 106.816 111.054 107.079 110.592 107.079Z" fill="#F2F2F2"/>
<path d="M95.4339 32.7106H85.6505C85.4038 32.7106 85.2031 32.4477 85.2031 32.1246C85.2031 31.8015 85.4038 31.5387 85.6505 31.5387H95.4339C95.6806 31.5387 95.8812 31.8015 95.8812 32.1246C95.8812 32.4477 95.6806 32.7106 95.4339 32.7106Z" fill="#1971F4"/>
<path d="M110.586 66.7938H100.803C100.556 66.7938 100.355 66.5309 100.355 66.2077C100.355 65.8846 100.556 65.6218 100.803 65.6218H110.586C110.833 65.6218 111.034 65.8846 111.034 66.2077C111.034 66.5309 110.833 66.7938 110.586 66.7938Z" fill="#1971F4"/>
<path d="M118.592 90.0153H108.809C108.562 90.0153 108.361 89.7524 108.361 89.4292C108.361 89.1061 108.562 88.8433 108.809 88.8433H118.592C118.839 88.8433 119.039 89.1061 119.039 89.4292C119.039 89.7524 118.839 90.0153 118.592 90.0153Z" fill="#1971F4"/>
<path d="M73.9925 19.9763H64.2091C63.9624 19.9763 63.7617 19.7133 63.7617 19.3902C63.7617 19.0671 63.9624 18.8043 64.2091 18.8043H73.9925C74.2392 18.8043 74.4398 19.0671 74.4398 19.3902C74.4398 19.7133 74.2392 19.9763 73.9925 19.9763Z" fill="#1971F4"/>
<path d="M113.571 83.2152H69.2293C69.0714 83.2152 68.9434 83.0475 68.9434 82.8407V27.4087C68.9434 27.2017 69.0714 27.0342 69.2293 27.0342C69.3871 27.0342 69.5151 27.2017 69.5151 27.4087V50.0265C69.5151 67.9424 80.6014 82.4661 94.2769 82.4661H113.571C113.729 82.4661 113.857 82.6337 113.857 82.8407C113.857 83.0477 113.729 83.2152 113.571 83.2152Z" fill="#1971F4"/>
<path d="M78.5667 60.9373H68.7833C68.5366 60.9373 68.3359 60.6744 68.3359 60.3513C68.3359 60.0282 68.5366 59.7654 68.7833 59.7654H78.5667C78.8134 59.7654 79.014 60.0282 79.014 60.3513C79.014 60.6744 78.8134 60.9373 78.5667 60.9373Z" fill="#1971F4"/>
<path d="M68.8657 62.605C70.4173 61.9337 71.4106 60.3407 71.0844 59.0472C70.7581 57.7536 69.236 57.2495 67.6839 57.9213C67.0611 58.1785 66.4944 58.6274 66.0312 59.2304L59.4844 62.1834L60.6076 66.1787L66.9424 62.8433C67.5888 62.9662 68.2483 62.8845 68.8657 62.605Z" fill="#FFB6B6"/>
<path d="M35.2123 85.5034C35.2653 87.6429 36.1509 89.3414 37.1902 89.297C38.2296 89.2526 39.0289 87.4824 38.9757 85.3421C38.9634 84.4867 38.7949 83.6477 38.4843 82.8951L38.1725 73.8335L34.9297 74.1158L35.5814 83.019C35.3087 83.7966 35.1821 84.6485 35.2123 85.5034Z" fill="#FFB6B6"/>
<path d="M42.6998 146.562L45.5943 146.561L46.3359 131.838L42.6992 131.935L42.6998 146.562Z" fill="#FFB6B6"/>
<path d="M52.6159 146.476C52.706 146.675 52.7536 147.316 52.7536 147.548C52.7536 148.258 52.3137 148.835 51.7712 148.835H42.8072C42.437 148.835 42.137 148.442 42.137 147.957V147.468C42.137 147.468 41.6935 145.998 42.6065 144.187C42.6065 144.187 43.7412 145.605 45.4367 143.384L45.9367 142.197L49.556 145.665L51.5621 145.989C52.001 146.059 52.3901 145.978 52.6159 146.476Z" fill="#1971F4"/>
<path d="M49.5611 146.562L52.4557 146.561L53.1973 131.838L49.5605 131.935L49.5611 146.562Z" fill="#FFB6B6"/>
<path d="M59.4772 146.476C59.5673 146.675 59.6149 147.316 59.6149 147.548C59.6149 148.258 59.1751 148.835 58.6325 148.835H49.6685C49.2984 148.835 48.9983 148.442 48.9983 147.957V147.468C48.9983 147.468 48.5549 145.998 49.4678 144.187C49.4678 144.187 50.6025 145.605 52.298 143.384L52.798 142.197L56.4173 145.665L58.4234 145.989C58.8623 146.059 59.2515 145.978 59.4772 146.476Z" fill="#1971F4"/>
<path d="M44.3829 36.8977C46.7344 36.8977 48.6408 34.4003 48.6408 31.3196C48.6408 28.2389 46.7344 25.7415 44.3829 25.7415C42.0313 25.7415 40.125 28.2389 40.125 31.3196C40.125 34.4003 42.0313 36.8977 44.3829 36.8977Z" fill="#FFB6B6"/>
<path d="M38.4922 77.7171L40.4934 115.171L41.637 140.265L47.069 139.891L46.4972 112.549L47.6408 95.695L49.3562 139.891H53.6795L55.3599 78.0916L46.0684 76.4062L38.4922 77.7171Z" fill="#1971F4"/>
<path d="M45.9255 35.7686C44.7145 37.2958 41.9158 36.2832 40.4935 35.7686C39.7106 35.4853 39.2381 35.1934 39.064 34.645C38.943 34.2637 39.0118 33.9022 38.7781 33.1468C38.6413 32.7043 38.5691 32.6713 38.4922 32.3977C38.2779 31.6351 38.5756 30.9556 38.7781 30.1505C39.2007 28.4706 38.6962 28.2819 39.064 27.1542C39.617 25.4587 41.1214 24.7688 41.6371 24.5324C42.5999 24.0909 43.4029 24.1375 43.6383 24.1578C45.1465 24.2879 46.1549 25.3018 46.4973 25.656C47.1913 26.374 47.5317 27.1334 48.2126 28.6523C48.8051 29.974 48.8483 30.4813 48.7844 30.8996C48.687 31.5369 48.4064 31.5393 48.2126 32.3977C47.9926 33.3721 48.2429 33.8618 47.9267 34.2704C47.713 34.5466 47.5144 34.4317 47.069 34.645C46.4561 34.9384 46.1535 35.481 45.9255 35.7686Z" fill="#1971F4"/>
<path d="M49.3549 41.3867C49.3549 41.3867 45.0665 34.2704 39.6345 36.8922L37.8753 41.3867L37.2875 42.1156C34.8219 45.1731 33.6748 49.634 34.2255 54.0228L36.7756 74.3462C36.7756 74.3462 36.4897 82.2116 38.491 84.4588C38.491 84.4588 41.3499 77.3425 48.2114 80.7134C55.0728 84.0843 56.5023 82.2116 56.5023 82.2116L54.2151 60.8628L49.3549 41.3867Z" fill="#1971F4"/>
<path d="M47.9256 42.5103L46.4961 46.6302L51.9281 70.6008L66.7946 63.4846L64.7933 58.9901L57.646 61.6118C57.646 61.6118 52.214 40.6376 47.9256 42.5103Z" fill="#1971F4"/>
<path d="M37.7772 80.1516H34.6323L34.0605 50.1884L37.7772 60.301V80.1516Z" fill="#1971F4"/>
<path d="M72.2279 57.3046C72.9385 57.3046 73.5145 56.55 73.5145 55.6192C73.5145 54.6884 72.9385 53.9338 72.2279 53.9338C71.5174 53.9338 70.9414 54.6884 70.9414 55.6192C70.9414 56.55 71.5174 57.3046 72.2279 57.3046Z" fill="#3F3D56"/>
<path d="M80.8041 70.4135C81.5146 70.4135 82.0906 69.659 82.0906 68.7281C82.0906 67.7973 81.5146 67.0427 80.8041 67.0427C80.0936 67.0427 79.5176 67.7973 79.5176 68.7281C79.5176 69.659 80.0936 70.4135 80.8041 70.4135Z" fill="#3F3D56"/>
<path d="M90.5248 38.9522C91.2353 38.9522 91.8113 38.1976 91.8113 37.2667C91.8113 36.3359 91.2353 35.5813 90.5248 35.5813C89.8143 35.5813 89.2383 36.3359 89.2383 37.2667C89.2383 38.1976 89.8143 38.9522 90.5248 38.9522Z" fill="#3F3D56"/>
<path d="M104.82 61.4246C105.53 61.4246 106.106 60.67 106.106 59.7392C106.106 58.8083 105.53 58.0537 104.82 58.0537C104.109 58.0537 103.533 58.8083 103.533 59.7392C103.533 60.67 104.109 61.4246 104.82 61.4246Z" fill="#3F3D56"/>
<path d="M113.111 52.4356C113.821 52.4356 114.397 51.681 114.397 50.7502C114.397 49.8194 113.821 49.0648 113.111 49.0648C112.4 49.0648 111.824 49.8194 111.824 50.7502C111.824 51.681 112.4 52.4356 113.111 52.4356Z" fill="#3F3D56"/>
<path d="M110.661 14.9906L113.013 16.4507C112.048 14.6864 111.217 11.9308 110.772 9.73806C110.018 11.7806 108.803 14.2798 107.6 15.7726L110.087 14.9345C108.554 24.7729 102.791 31.8359 96.1911 31.8359L96.0977 32.1913C102.991 32.1913 109.096 25.2262 110.661 14.9906Z" fill="#3F3D56"/>
<path d="M103.548 0H118.414C119.045 0 119.558 0.672086 119.558 1.49816C119.558 2.32424 119.045 2.99632 118.414 2.99632H103.548C102.917 2.99632 102.404 2.32424 102.404 1.49816C102.404 0.672086 102.917 0 103.548 0Z" fill="#6C63FF"/>
<path d="M113.59 86.2807C113.434 86.2807 113.275 86.2349 113.125 86.1424C112.753 85.9138 112.52 85.4566 112.501 84.9197L112.347 80.5653C112.327 80.006 112.55 79.4976 112.928 79.2379C113.307 78.9782 113.753 79.0287 114.092 79.3681L116.356 81.6362C116.628 81.9087 116.784 82.3228 116.783 82.7712C116.782 83.2203 116.624 83.6325 116.351 83.9032L114.241 85.9899C114.047 86.1823 113.82 86.2807 113.59 86.2807Z" fill="#1971F4"/>
<path d="M71.857 27.7718C71.857 27.9772 71.8221 28.1844 71.7515 28.3817C71.577 28.8684 71.228 29.174 70.8181 29.1989L67.4944 29.4008C67.0675 29.4267 66.6794 29.1348 66.4812 28.6389C66.2829 28.1431 66.3215 27.5586 66.5806 27.114L68.3118 24.1484C68.5198 23.7918 68.8359 23.5881 69.1782 23.5895C69.521 23.5908 69.8357 23.7971 70.0423 24.1554L71.6351 26.9191C71.7819 27.1742 71.857 27.471 71.857 27.7718Z" fill="#1971F4"/>
<path d="M90.4189 23.9154C88.7263 23.3843 86.918 23.865 85.4711 25.1171C83.954 26.43 82.9495 28.5325 82.6095 30.8617C81.908 35.6672 84.0511 40.4677 87.4382 42.3803C90.9988 44.3909 95.2346 43.0418 97.8203 39.3102C99.1019 37.4606 99.9029 35.1207 100.144 32.6463C100.382 30.2086 100.111 27.3962 98.984 25.3617C97.8664 23.3437 96.0054 22.6665 94.2081 22.3358C92.4642 22.0149 90.1508 21.8754 89.2078 24.2936C89.028 24.7546 88.9435 25.2515 88.9634 25.7685C88.9773 26.1283 89.4062 26.1305 89.3923 25.7685C89.3487 24.6379 89.9241 23.6932 90.6616 23.185C91.5163 22.5961 92.5473 22.646 93.4794 22.7773C95.1622 23.0142 97.0728 23.437 98.2864 25.1302C99.4953 26.8169 99.8577 29.3872 99.7826 31.6262C99.7043 33.9631 99.0897 36.2633 98.0127 38.1323C95.8874 41.8205 92.1691 43.5752 88.7484 42.3837C85.4153 41.2228 85.3717 38.6314 85.4268 34.0424C85.4561 31.5942 83.6909 27.7407 85.1321 26.1453C86.5432 24.5833 88.499 23.8904 90.3049 24.4572C90.5731 24.5413 90.6876 23.9997 90.4189 23.9154Z" fill="#6C63FF"/>
</svg>
