<svg width="150" height="150" viewBox="0 0 150 150" fill="none" xmlns="http://www.w3.org/2000/svg">
<g clip-path="url(#clip0_309_702)">
<path d="M79.102 147.675L81.5252 147.675L82.6779 132.716L79.1016 132.716L79.102 147.675Z" fill="#FFB6B6"/>
<path d="M87.4036 147.587C87.479 147.791 87.5188 148.447 87.5188 148.684C87.5188 149.411 87.1506 150 86.6964 150H79.1922C78.8824 150 78.6312 149.598 78.6312 149.102V148.602C78.6312 148.602 78.2599 147.099 79.0242 145.247C79.0242 145.247 79.9741 146.697 81.3935 144.425L81.8121 143.212L84.842 146.758L86.5214 147.089C86.8888 147.162 87.2146 147.078 87.4036 147.587Z" fill="#2F2E41"/>
<path d="M69.9067 147.675L72.3299 147.675L73.4826 132.716L69.9062 132.716L69.9067 147.675Z" fill="#FFB6B6"/>
<path d="M78.2083 147.587C78.2837 147.791 78.3235 148.447 78.3235 148.684C78.3235 149.411 77.9553 150 77.5011 150H69.9969C69.687 150 69.4358 149.598 69.4358 149.102V148.602C69.4358 148.602 69.0646 147.099 69.8289 145.247C69.8289 145.247 70.7788 146.697 72.1982 144.425L72.6168 143.212L75.6467 146.758L77.3261 147.089C77.6935 147.162 78.0193 147.078 78.2083 147.587Z" fill="#2F2E41"/>
<path d="M68.1216 67.3201L65.0566 78.4389L68.9389 139.266L73.7406 139.756L75.6817 85.9605L77.5206 139.92L83.2418 138.939L84.5989 70.4397L68.1216 67.3201Z" fill="#2F2E41"/>
<path d="M80.1973 23.0081L74.0473 21.2094L72.8053 23.1973L66.4872 27.4229L67.5089 59.1444C67.5089 59.1444 65.4656 61.3229 66.4872 64.3215C67.5089 67.3201 67.3045 70.9174 67.3045 70.9174H84.5992L83.8551 52.931L85.8983 30.0391L81.124 26.4214L80.1973 23.0081Z" fill="#6C63FF"/>
<path d="M75.7389 59.9648C77.4861 60.6323 79.1176 59.7306 79.3829 57.9509C79.6481 56.1712 78.4468 54.1878 76.6989 53.5204C76.003 53.2385 75.275 53.2274 74.5759 53.488L67.1506 50.8092L66.4395 56.4129L73.8349 58.4588C74.3854 59.1969 75.0382 59.7134 75.7389 59.9648Z" fill="#FFB6B6"/>
<path d="M67.7129 29.058L66.487 27.4229C66.487 27.4229 64.035 29.3851 63.6264 31.0202C63.2177 32.6553 60.7658 48.3526 60.7658 48.3526C60.7658 48.3526 60.2847 56.9554 61.5469 58.0499C62.8091 59.1444 70.7778 58.4904 70.7778 58.4904L71.3908 51.9499L68.1216 49.9877L67.7129 29.058Z" fill="#6C63FF"/>
<path d="M77.5085 20.2814C80.4914 20.2814 82.9095 16.4111 82.9095 11.637C82.9095 6.86285 80.4914 2.99265 77.5085 2.99265C74.5256 2.99265 72.1074 6.86285 72.1074 11.637C72.1074 16.4111 74.5256 20.2814 77.5085 20.2814Z" fill="#FFB6B6"/>
<path d="M73.6336 19.3108C72.9866 19.4033 71.9303 16.7541 71.9774 14.1885C72.0077 12.538 71.1124 12.2135 71.0458 10.0849C71.0071 8.84463 72.1974 8.45791 72.2792 7.46313C72.4274 5.66068 73.1539 4.44781 73.2446 4.30037C74.0276 3.0276 74.5803 3.44136 75.5011 1.96626C76.0554 1.07818 75.9134 0.834879 76.2868 0.440967C77.3643 -0.695887 79.3005 0.536245 80.4583 2.19598C80.8589 2.77031 82.3524 2.1426 83.0048 3.76446C83.7734 5.6753 83.5949 9.57224 83.2653 10.0865C83.0651 10.399 82.6078 9.63562 81.3684 9.14569C80.2209 8.6921 81.3033 10.9352 79.9767 10.5588C78.408 10.1137 78.1009 9.34983 77.5134 9.80797C76.8923 10.2923 76.4071 11.7919 76.548 12.9707C76.6179 13.5557 76.8205 13.8819 76.7062 14.1794C76.4976 14.7225 76.2582 14.1898 75.9906 14.7349C75.6794 15.3688 76.4528 16.9951 76.3072 17.1522C76.2779 17.1838 76.189 17.1797 75.3542 15.8947C75.0208 15.3816 74.9231 15.0665 74.8579 15.1149C74.7523 15.1931 74.0603 16.2249 74.3245 17.0397C74.7357 18.3077 74.2095 18.3472 74.3245 19.2008C74.4432 20.0814 74.0448 19.2519 73.6336 19.3108Z" fill="#2F2E41"/>
<path d="M79.376 61.3104C77.7836 62.6407 76.9216 65.034 77.4508 66.6559C77.9799 68.2778 79.6995 68.5138 81.2924 67.1827C81.9332 66.6649 82.4873 65.9091 82.9082 64.9784L89.6109 59.2056L87.8513 54.2292L81.4304 60.4484C80.7124 60.469 80.008 60.7646 79.376 61.3104Z" fill="#FFB6B6"/>
<path d="M84.672 30.3662C84.672 30.3662 86.5109 28.404 87.7369 33.6364C88.7041 37.7644 90.4979 49.932 91.2121 54.8849C91.4017 56.1997 91.1273 57.5731 90.4972 58.4696L89.678 59.635L85.6936 64.3769L82.977 58.0499L86.2764 54.8661L82.5137 41.8019L84.672 30.3662Z" fill="#6C63FF"/>
<path d="M136.66 24.2227C139.653 24.2227 142.08 20.339 142.08 15.5483C142.08 10.7575 139.653 6.87384 136.66 6.87384C133.667 6.87384 131.24 10.7575 131.24 15.5483C131.24 20.339 133.667 24.2227 136.66 24.2227Z" fill="#FF6884"/>
<path d="M128.663 69.7289L122.551 69.1052L122.221 25.1134C122.213 24.0456 122.479 23 122.951 22.2449L129.499 11.7639C130.416 10.2968 131.859 10.1908 132.856 11.5179L139.962 20.9797C140.542 21.7515 140.869 22.8865 140.86 24.0934L140.616 57.1775L143.705 64.0435L143.712 64.058L144.235 71.3175L128.663 69.7289Z" fill="#E6E6E6"/>
<path d="M129.691 22.0069V19.967C129.691 19.4286 129.965 18.9905 130.302 18.9905H132.092C132.429 18.9905 132.702 19.4286 132.702 19.967V22.0069C132.702 22.5454 132.429 22.9835 132.092 22.9835H130.302C129.965 22.9835 129.691 22.5454 129.691 22.0069Z" fill="#6C63FF"/>
<path d="M125.906 37.8412V30.2937C125.906 29.7553 126.18 29.3172 126.516 29.3172H129.167C129.504 29.3172 129.778 29.7553 129.778 30.2937V37.8412C129.778 38.3797 129.504 38.8178 129.167 38.8178H126.516C126.18 38.8178 125.906 38.3797 125.906 37.8412Z" fill="#1971F4"/>
<path d="M131.898 55.5083C131.578 55.4901 131.32 55.074 131.31 54.561L131.176 47.266C131.17 46.9546 131.255 46.6652 131.407 46.4718C131.56 46.2784 131.755 46.2139 131.943 46.2937L132.077 46.351C132.344 46.4649 132.53 46.8528 132.53 47.2945V54.5324C132.53 54.7997 132.464 55.0492 132.344 55.2349C132.229 55.4124 132.079 55.5088 131.921 55.5088C131.913 55.5088 131.906 55.5087 131.898 55.5083Z" fill="#1971F4"/>
<path d="M123.768 55.2349C123.648 55.0492 123.582 54.7997 123.582 54.5324V47.2945C123.582 46.8528 123.768 46.4649 124.035 46.351L124.169 46.2937C124.357 46.2139 124.552 46.2784 124.705 46.4717C124.858 46.6651 124.942 46.9546 124.936 47.266L124.802 54.561C124.793 55.074 124.534 55.4901 124.214 55.5083C124.206 55.5087 124.199 55.5088 124.192 55.5088C124.033 55.5088 123.883 55.4123 123.768 55.2349Z" fill="#1971F4"/>
<path d="M126.336 54.5017V46.9323C126.336 46.3979 126.597 45.9691 126.931 45.9559L129.341 45.8619C129.675 45.8545 129.956 46.2741 129.966 46.8099L130.104 54.4733C130.109 54.7394 130.048 54.9911 129.932 55.1821C129.816 55.373 129.661 55.4781 129.494 55.4781H126.946C126.61 55.4781 126.336 55.0401 126.336 54.5017Z" fill="#1971F4"/>
<path d="M140.578 59.674L142.467 65.0476L142.684 71.0908L144.188 71.2436L143.671 64.0837L140.574 57.1993C140.307 57.9693 140.309 58.9062 140.578 59.674Z" fill="#CCCCCC"/>
<path d="M142.624 69.3611L136.494 69.4952L136.495 69.6329L142.625 69.4988L142.624 69.3611Z" fill="#1971F4"/>
<path d="M142.251 68.146L136.439 68.2186L136.44 68.3563L142.252 68.2837L142.251 68.146Z" fill="#1971F4"/>
<path d="M141.95 66.9042L136.391 67.0779L136.392 67.2156L141.951 67.0419L141.95 66.9042Z" fill="#1971F4"/>
<path d="M141.776 65.6692L136.438 65.9529L136.44 66.0906L141.779 65.8069L141.776 65.6692Z" fill="#1971F4"/>
<path d="M141.518 64.5696L136.389 64.8582L136.392 64.9959L141.521 64.7073L141.518 64.5696Z" fill="#1971F4"/>
<path d="M141.176 63.6019H136.18V63.7396H141.176V63.6019Z" fill="#1971F4"/>
<path d="M140.918 62.6357L136.062 62.7267L136.064 62.8644L140.919 62.7734L140.918 62.6357Z" fill="#1971F4"/>
<path d="M140.658 61.6727L135.953 61.9227L135.956 62.0604L140.661 61.8103L140.658 61.6727Z" fill="#1971F4"/>
<path d="M140.487 60.7139L135.842 60.8446L135.843 60.9823L140.489 60.8516L140.487 60.7139Z" fill="#1971F4"/>
<path d="M140.142 59.7602L135.693 59.9827L135.696 60.1204L140.144 59.8979L140.142 59.7602Z" fill="#1971F4"/>
<path d="M139.971 58.9204L135.562 58.9893L135.563 59.127L139.972 59.0581L139.971 58.9204Z" fill="#1971F4"/>
<path d="M135.24 56.0851V46.7477C135.24 46.2091 135.514 45.7711 135.85 45.7711H138.673C139.01 45.7711 139.284 46.2091 139.284 46.7477V56.0851C139.284 56.6235 139.01 57.0616 138.673 57.0616H135.85C135.514 57.0616 135.24 56.6235 135.24 56.0851Z" fill="#6C63FF"/>
<path d="M128.665 69.7288L123.667 69.2194L123.627 69.2152V63.0251C123.627 62.2423 124.025 61.6053 124.514 61.6053H129.45C129.939 61.6053 130.337 62.2423 130.337 63.0251V69.729H130.294L128.665 69.7288Z" fill="#CCCCCC"/>
<path d="M135.584 39.1493V32.0148C135.584 31.4764 135.858 31.0383 136.194 31.0383H137.125C137.461 31.0383 137.735 31.4764 137.735 32.0148V39.1493C137.735 39.6877 137.461 40.1258 137.125 40.1258H136.194C135.858 40.1258 135.584 39.6877 135.584 39.1493Z" fill="#1971F4"/>
<path d="M136.53 70.4174L136.272 64.3591L135.498 58.5762L135.283 56.9927C134.841 56.5117 134.246 57.0468 134.272 57.9011L134.293 58.5762L135.068 64.3591L135.326 70.4174" fill="#CCCCCC"/>
<path d="M119.157 57.471L121.045 62.8445L121.262 68.8877L122.766 69.0406L122.25 61.8807L119.153 54.9962C118.885 55.7663 118.887 56.7032 119.157 57.471Z" fill="#CCCCCC"/>
<path d="M71.7129 64.0334L71.724 63.7586L150 71.8491L149.688 79.7702L71.7129 64.0334Z" fill="#CCCCCC"/>
<path d="M13.3398 18.5815C16.333 18.5815 18.7596 14.6978 18.7596 9.90706C18.7596 5.11631 16.333 1.23264 13.3398 1.23264C10.3465 1.23264 7.91992 5.11631 7.91992 9.90706C7.91992 14.6978 10.3465 18.5815 13.3398 18.5815Z" fill="#FF6884"/>
<path d="M5.76367 65.6763L6.28703 58.4168L6.29358 58.4023L9.38235 51.5363L9.13817 18.4522C9.12926 17.2453 9.4567 16.1103 10.0365 15.3384L17.1431 5.87668C18.1398 4.5496 19.5827 4.65562 20.4994 6.12268L27.048 16.6037C27.5198 17.3588 27.7858 18.4044 27.7778 19.4722L27.4481 63.464L21.3355 64.0877L5.76367 65.6763Z" fill="#E6E6E6"/>
<path d="M19.6997 17.3423H17.9089C17.5725 17.3423 17.2988 16.9042 17.2988 16.3657V14.3258C17.2988 13.7874 17.5725 13.3493 17.9089 13.3493H19.6997C20.0361 13.3493 20.3098 13.7874 20.3098 14.3258V16.3657C20.3098 16.9042 20.0361 17.3423 19.6997 17.3423Z" fill="#6C63FF"/>
<path d="M23.4838 33.1766H20.8328C20.4963 33.1766 20.2227 32.7385 20.2227 32.2V24.6525C20.2227 24.1141 20.4963 23.676 20.8328 23.676H23.4838C23.8202 23.676 24.094 24.1141 24.094 24.6525V32.2C24.094 32.7385 23.8202 33.1766 23.4838 33.1766Z" fill="#1971F4"/>
<path d="M18.0802 49.8676C17.9214 49.8676 17.7719 49.7712 17.6571 49.5937C17.5369 49.408 17.4707 49.1584 17.4707 48.8911V41.6533C17.4707 41.2116 17.657 40.8237 17.9236 40.7098L18.0577 40.6525C18.2458 40.5726 18.4411 40.6372 18.5937 40.8305C18.7463 41.024 18.8305 41.3134 18.8248 41.6248L18.6907 48.9198C18.6812 49.4327 18.4229 49.8489 18.1024 49.867C18.095 49.8674 18.0876 49.8676 18.0802 49.8676Z" fill="#1971F4"/>
<path d="M25.8074 49.8676C25.8 49.8676 25.7926 49.8675 25.7852 49.8671C25.4647 49.8489 25.2063 49.4328 25.1969 48.9198L25.0628 41.6248C25.0571 41.3134 25.1413 41.0239 25.2939 40.8305C25.4464 40.6372 25.6417 40.5726 25.8299 40.6525L25.9639 40.7098C26.2306 40.8237 26.4169 41.2116 26.4169 41.6533V48.8912C26.4169 49.1585 26.3507 49.408 26.2305 49.5937C26.1157 49.7711 25.9661 49.8676 25.8074 49.8676Z" fill="#1971F4"/>
<path d="M23.053 49.8369H20.5047C20.3384 49.8369 20.183 49.7318 20.0671 49.5409C19.9512 49.3499 19.89 49.0982 19.8948 48.8321L20.0336 41.1687C20.0434 40.6329 20.3244 40.2133 20.6584 40.2207L23.0679 40.3147C23.4017 40.3279 23.6632 40.7567 23.6632 41.2911V48.8605C23.6632 49.3989 23.3895 49.8369 23.053 49.8369Z" fill="#1971F4"/>
<path d="M9.42572 51.5581L6.32867 58.4425L5.8125 65.6024L7.31629 65.4496L7.53308 59.4064L9.42163 54.0328C9.69147 53.265 9.69302 52.3281 9.42572 51.5581Z" fill="#CCCCCC"/>
<path d="M7.37813 63.7199L7.37695 63.8576L13.5064 63.9917L13.5076 63.854L7.37813 63.7199Z" fill="#1971F4"/>
<path d="M7.74872 62.5047L7.74805 62.6424L13.5597 62.7151L13.5604 62.5774L7.74872 62.5047Z" fill="#1971F4"/>
<path d="M8.05051 61.2629L8.04883 61.4006L13.608 61.5744L13.6097 61.4367L8.05051 61.2629Z" fill="#1971F4"/>
<path d="M8.22356 60.028L8.2207 60.1657L13.5593 60.4494L13.5621 60.3117L8.22356 60.028Z" fill="#1971F4"/>
<path d="M8.48154 58.9284L8.47852 59.0661L13.6078 59.3547L13.6108 59.217L8.48154 58.9284Z" fill="#1971F4"/>
<path d="M13.82 57.9607H8.82422V58.0983H13.82V57.9607Z" fill="#1971F4"/>
<path d="M9.08304 56.9945L9.08203 57.1322L13.9372 57.2232L13.9382 57.0855L9.08304 56.9945Z" fill="#1971F4"/>
<path d="M9.3427 56.0314L9.33984 56.1691L14.0444 56.4191L14.0473 56.2814L9.3427 56.0314Z" fill="#1971F4"/>
<path d="M9.51323 55.0727L9.51172 55.2104L14.1574 55.3411L14.1589 55.2034L9.51323 55.0727Z" fill="#1971F4"/>
<path d="M9.85816 54.1191L9.85547 54.2567L14.3037 54.4792L14.3064 54.3415L9.85816 54.1191Z" fill="#1971F4"/>
<path d="M10.0282 53.2792L10.0273 53.4169L14.4363 53.4858L14.4372 53.3481L10.0282 53.2792Z" fill="#1971F4"/>
<path d="M14.15 51.4204H11.3269C10.9905 51.4204 10.7168 50.9823 10.7168 50.4439V41.1064C10.7168 40.5679 10.9905 40.1299 11.3269 40.1299H14.15C14.4864 40.1299 14.7602 40.5679 14.7602 41.1064V50.4439C14.7602 50.9823 14.4864 51.4204 14.15 51.4204Z" fill="#6C63FF"/>
<path d="M19.7071 64.0878H19.6641V57.3839C19.6641 56.6011 20.062 55.9641 20.5511 55.9641H25.4873C25.9764 55.9641 26.3743 56.6011 26.3743 57.3839V63.574L26.334 63.5782L21.3366 64.0876L19.7071 64.0878Z" fill="#CCCCCC"/>
<path d="M13.8062 34.4846H12.8757C12.5393 34.4846 12.2656 34.0465 12.2656 33.5081V26.3736C12.2656 25.8352 12.5393 25.3971 12.8757 25.3971H13.8062C14.1426 25.3971 14.4163 25.8352 14.4163 26.3736V33.5081C14.4163 34.0465 14.1426 34.4846 13.8062 34.4846Z" fill="#1971F4"/>
<path d="M14.6732 64.7762L14.9312 58.7179L15.7055 52.935L15.7266 52.2599C15.7533 51.4056 15.1581 50.8705 14.7162 51.3515L14.5011 52.935L13.7268 58.7179L13.4688 64.7762" fill="#CCCCCC"/>
<path d="M30.8476 49.355L27.7505 56.2395L27.2344 63.3994L28.7382 63.2465L28.955 57.2033L30.8435 51.8298C31.1133 51.062 31.1149 50.1251 30.8476 49.355Z" fill="#CCCCCC"/>
<path d="M0.311977 74.129L0 66.2079L78.276 58.1174L78.2871 58.3922L0.311977 74.129Z" fill="#CCCCCC"/>
</g>
<defs>
<clipPath id="clip0_309_702">
<rect width="150" height="150" fill="white"/>
</clipPath>
</defs>
</svg>
